<svg width="81" height="93" viewBox="0 0 81 93" fill="none" xmlns="http://www.w3.org/2000/svg">
<path d="M65.0546 49.7972C58.7852 66.0221 47.243 66.322 44.2824 70.3178C42.6565 72.8947 41.174 75.5594 39.8416 78.2996L22.3589 73.7911C22.5374 70.7493 22.5374 67.6997 22.3589 64.6579C21.7204 59.7334 11.7165 53.88 14.1352 36.6005C15.6832 25.2808 28.4348 10.0524 46.9334 14.8318C65.4319 19.6113 69.1761 39.1353 65.0546 49.7972Z" fill="#FFC727"/>
<path d="M28.031 46.9079L26.0342 76.0483L26.9994 76.1145L28.9962 46.9741L28.031 46.9079Z" fill="white"/>
<path d="M47.0138 51.6131L34.665 78.083L35.5418 78.492L47.8906 52.0221L47.0138 51.6131Z" fill="white"/>
<path d="M36.2806 58.7271C36.0457 58.7263 35.8118 58.6971 35.584 58.64C34.007 58.2336 32.933 56.4051 32.3816 54.2766C32.1424 54.4607 31.8673 54.5928 31.5741 54.6644C31.2809 54.7361 30.9759 54.7457 30.6788 54.6926C28.0569 54.0057 28.3955 48.3362 28.4148 48.0943H28.8986C28.8986 48.1523 28.56 53.609 30.8336 54.1895C31.0963 54.2244 31.3634 54.2009 31.616 54.1207C31.8685 54.0404 32.1002 53.9053 32.2945 53.7251C31.9122 51.9915 31.9122 50.1955 32.2945 48.4619C32.6912 46.943 33.4845 46.2173 34.4907 46.4689C35.6517 46.7688 36.0774 47.8718 35.6517 49.4875C35.1621 51.2068 34.1921 52.7507 32.8557 53.938C33.3394 55.9891 34.3166 57.8079 35.7581 58.1369C36.8417 58.4175 38.1479 57.8466 39.4443 56.5308L39.7636 56.1922C39.0354 54.5957 38.8949 52.7932 39.3669 51.1032C39.87 49.1682 40.9149 48.133 42.0952 48.4329C42.3302 48.4889 42.545 48.609 42.7158 48.7798C42.8866 48.9506 43.0067 49.1654 43.0627 49.4004C43.4981 50.9484 42.2404 54.0444 40.3634 56.2503C40.7171 56.8244 41.2785 57.2402 41.9308 57.4113C43.5465 57.837 45.9169 54.3733 46.7102 53.0092L47.1262 53.251C47.0004 53.4639 44.0689 58.4658 41.805 57.8853C41.0836 57.6907 40.4577 57.2402 40.0441 56.6179L39.8119 56.8598C38.9266 57.9229 37.6577 58.5939 36.2806 58.7271ZM41.6405 48.8973C40.7214 48.8973 40.0732 50.1163 39.7732 51.2483C39.3711 52.7659 39.4626 54.3721 40.0345 55.8343C41.7276 53.7638 42.8886 50.9194 42.5113 49.5649C42.4829 49.4148 42.4123 49.2759 42.3078 49.1645C42.2032 49.0531 42.0691 48.9738 41.9211 48.936C41.8362 48.9112 41.7483 48.8982 41.6599 48.8973H41.6405ZM34.065 46.9623C33.2717 46.9623 32.8847 47.9879 32.7202 48.6361C32.3788 50.2305 32.3788 51.8791 32.7202 53.4736C33.8737 52.3726 34.7177 50.9881 35.168 49.4584C35.4098 48.491 35.4679 47.33 34.3456 47.0397C34.2656 46.9889 34.1771 46.9529 34.0844 46.9333L34.065 46.9623Z" fill="white"/>
<path d="M42.0721 78.0845L20.5078 72.5156L19.4192 76.7311L40.9835 82.2999L42.0721 78.0845Z" fill="#7D7D7D"/>
<path d="M40.8094 82.9912L19.2451 77.4224L18.1565 81.6378L39.7208 87.2067L40.8094 82.9912Z" fill="#7D7D7D"/>
<path d="M39.5379 87.8887L17.9736 82.3198L16.885 86.5353L38.4493 92.1041L39.5379 87.8887Z" fill="#7D7D7D"/>
<path d="M40.4222 7.19818C39.7772 4.84212 39.7772 2.35606 40.4222 0C41.0671 2.35606 41.0671 4.84212 40.4222 7.19818Z" fill="white"/>
<path d="M23.9067 11.5229C23.0233 10.6751 22.2759 9.69611 21.6911 8.6204C21.0638 7.57727 20.5973 6.44546 20.3076 5.26318C21.1911 6.11094 21.9384 7.08996 22.5232 8.16567C23.1505 9.20881 23.617 10.3406 23.9067 11.5229Z" fill="white"/>
<path d="M11.7451 23.4424C10.5628 23.1526 9.43098 22.6862 8.38784 22.0588C7.31213 21.474 6.33311 20.7267 5.48535 19.8433C6.67741 20.1167 7.81977 20.5737 8.87159 21.1978C9.93571 21.7989 10.9042 22.5554 11.7451 23.4424Z" fill="white"/>
<path d="M7.19818 39.8802C6.02955 40.2211 4.81626 40.3842 3.59909 40.3639C2.38164 40.389 1.16763 40.2258 0 39.8802C2.35606 39.2353 4.84212 39.2353 7.19818 39.8802Z" fill="white"/>
<path d="M11.4746 56.3955C10.6268 57.279 9.64777 58.0263 8.57206 58.6111C7.52893 59.2384 6.39712 59.7049 5.21484 59.9946C6.06659 59.1156 7.04489 58.3689 8.11733 57.779C9.16047 57.1517 10.2923 56.6852 11.4746 56.3955Z" fill="white"/>
<path d="M68.5566 56.8599C69.7389 57.1496 70.8707 57.616 71.9139 58.2434C72.9917 58.8249 73.9712 59.5726 74.8163 60.459C73.6341 60.1692 72.5023 59.7028 71.4591 59.0754C70.3867 58.4856 69.4084 57.7388 68.5566 56.8599Z" fill="white"/>
<path d="M73.1045 40.4124C75.4605 39.7675 77.9466 39.7675 80.3027 40.4124C77.9466 41.0573 75.4605 41.0573 73.1045 40.4124Z" fill="white"/>
<path d="M68.8271 23.9067C70.5392 22.1641 72.6929 20.92 75.0578 20.3076C74.2061 21.1866 73.2278 21.9333 72.1553 22.5232C71.1212 23.1479 69.9994 23.6142 68.8271 23.9067Z" fill="white"/>
<path d="M56.8604 11.7455C57.1501 10.5633 57.6165 9.43146 58.2439 8.38833C58.8287 7.31262 59.576 6.3336 60.4594 5.48584C60.1697 6.66812 59.7033 7.79992 59.0759 8.84306C58.4861 9.9155 57.7393 10.8938 56.8604 11.7455Z" fill="white"/>
</svg>
