<svg width="68" height="82" viewBox="0 0 68 82" fill="none" xmlns="http://www.w3.org/2000/svg">
<path d="M50.6588 20.5057L45.2348 23.902C38.257 20.2441 30.138 19.4158 22.5652 21.5891C14.9925 23.7624 8.54843 28.7703 4.5724 35.5718C0.59637 42.3734 -0.605829 50.4455 1.21565 58.1105C3.03714 65.7754 7.74221 72.4438 14.353 76.7295C20.9638 81.0152 28.9718 82.5887 36.7127 81.123C44.4536 79.6572 51.3319 75.2649 55.9182 68.859C60.5045 62.4531 62.4459 54.5262 61.339 46.7259C60.2321 38.9256 56.162 31.8519 49.9746 26.9748L50.6588 20.5057Z" fill="#FAFAFA"/>
<path d="M50.6594 20.5059C50.6159 20.8915 50.4293 22.7762 50.0374 26.9749V26.9252C51.6737 28.2074 53.1744 29.6539 54.5159 31.242C55.3518 32.2276 56.1227 33.2665 56.8237 34.3521C57.2093 34.9182 57.5203 35.5526 57.8811 36.1809C58.2664 36.8148 58.6092 37.4735 58.9074 38.1527C59.2122 38.8494 59.5295 39.5647 59.8405 40.2925L60.5869 42.6188L60.7797 43.2409C60.8233 43.4461 60.8668 43.6514 60.9166 43.8629C61.0037 44.2796 61.0908 44.6964 61.1841 45.1069C61.2774 45.5175 61.3831 45.9529 61.4391 46.3945L61.5884 47.7194C62.0416 51.7922 61.6817 55.9144 60.5295 59.847C59.3774 63.7796 57.456 67.4443 54.8767 70.6286L54.3542 71.3004L53.7322 71.9224L52.5441 73.1665L52.2456 73.4775L51.9159 73.7636L51.2565 74.3359L49.9192 75.4866L48.4574 76.4881C47.9774 76.8455 47.4791 77.1777 46.9646 77.4833L45.3846 78.3666L44.5884 78.8145C44.3147 78.9451 44.0348 79.0571 43.7549 79.1815L42.063 79.9155C41.7814 80.0453 41.4903 80.1534 41.1922 80.2389L40.3089 80.5188C39.6869 80.6992 39.127 80.9169 38.5175 81.06L36.6514 81.4519C36.3466 81.5203 36.0294 81.5887 35.7246 81.6447L34.7791 81.7504L32.8757 81.9619C32.2537 81.9619 31.5943 81.9619 30.9474 81.9992H29.9771C29.6536 81.9992 29.355 81.9557 29.0129 81.937L27.066 81.7753C26.444 81.7007 25.7784 81.5514 25.1253 81.4456C23.8276 81.2049 22.5459 80.885 21.2874 80.4877C20.6654 80.2887 20.0433 80.0212 19.4213 79.7848L18.482 79.4241C18.171 79.3059 17.86 79.1317 17.5801 78.9886L15.7762 78.0867C15.1542 77.7508 14.6255 77.3714 14.047 77.0168L13.1886 76.4694C12.9087 76.2828 12.6475 76.0589 12.38 75.8474L10.7876 74.622C10.2838 74.1679 9.80481 73.6952 9.31963 73.2349L8.59185 72.5445C8.35548 72.3143 8.15021 72.0468 7.92628 71.798L6.62625 70.2865C6.20949 69.7702 5.86116 69.2104 5.4755 68.6755C4.71926 67.6061 4.03756 66.4858 3.43526 65.3227C3.1207 64.755 2.84433 64.1669 2.60798 63.5624C2.35295 62.9715 2.08547 62.3806 1.8491 61.7834L1.27063 59.9547L0.978273 59.0465C0.897409 58.7417 0.847643 58.4245 0.77922 58.1197L0.387341 56.2536C0.269157 55.6316 0.231838 55.0096 0.157195 54.3876L0.0514427 53.4607L0.00168904 52.9942V52.5339C0.00168904 51.9119 0.00168904 51.2899 0.00168904 50.6678C-0.00788916 50.0569 0.0232774 49.4459 0.094989 48.8391L0.244269 47.029C0.350013 46.4381 0.45577 45.8471 0.567734 45.2624C0.650781 44.6738 0.775503 44.0918 0.940953 43.5208C1.22103 42.3837 1.57423 41.2659 1.99838 40.1743L2.62041 38.5632C2.863 38.047 3.13047 37.5431 3.37928 37.0331C5.33784 33.1652 8.09382 29.7562 11.4656 27.0309C13.0279 25.7948 14.6927 24.694 16.4418 23.7404C17.3126 23.3236 18.1524 22.8695 19.0232 22.5399C19.4586 22.3719 19.8816 22.1729 20.317 22.0298L21.6108 21.5944C27.436 19.7833 33.6668 19.7357 39.5189 21.4576C41.4986 22.0589 43.4184 22.8418 45.254 23.7964H45.198L50.6594 20.5059L45.2664 23.9519H45.2353C43.4003 23.0158 41.4825 22.2516 39.5065 21.669C33.6832 19.9868 27.4933 20.0582 21.7104 21.8743L20.429 22.3097C19.9998 22.4528 19.5768 22.6518 19.1476 22.8198C18.283 23.1495 17.4557 23.6035 16.5911 24.0203C14.8597 24.9702 13.2117 26.0647 11.6647 27.2921C8.31547 30.0025 5.58216 33.3953 3.64675 37.2445C3.39794 37.7484 3.13669 38.2522 2.8941 38.7623C2.65151 39.2724 2.48356 39.826 2.27208 40.3609C1.85324 41.442 1.50623 42.5495 1.23331 43.6763C1.06238 44.2369 0.929374 44.8084 0.8352 45.3869C0.729456 45.9653 0.629932 46.55 0.524188 47.141C0.418444 47.7319 0.42467 48.329 0.374908 48.9324C0.302325 49.5308 0.273212 50.1337 0.287815 50.7363C0.287815 51.3583 0.287815 51.9803 0.287815 52.565V53.0253L0.337588 53.4856L0.437095 54.4C0.517958 55.022 0.549076 55.644 0.66726 56.2661C0.785445 56.8881 0.928495 57.5101 1.05912 58.0948C1.12754 58.3996 1.18353 58.7169 1.25817 59.0154L1.55053 59.9173C1.73713 60.5394 1.92997 61.1179 2.1228 61.7274C2.31562 62.337 2.62041 62.8969 2.87544 63.4816C3.10591 64.0815 3.38035 64.6637 3.69652 65.2232C4.29046 66.3758 4.96386 67.4857 5.71187 68.5448C6.09753 69.0673 6.43964 69.6272 6.8564 70.1372L8.14399 71.6301C8.3617 71.8789 8.56696 72.1401 8.79711 72.3703L9.51866 73.0545C10.0038 73.5086 10.4766 73.9751 10.9742 74.423L12.5541 75.667C12.8216 75.8661 13.0767 76.0838 13.3566 76.289L14.2087 76.824C14.781 77.1786 15.3346 77.5518 15.9131 77.8814L17.6983 78.7771C17.9895 78.9352 18.2884 79.0784 18.594 79.2063L19.5208 79.5671C20.1429 79.7973 20.7649 80.0647 21.3869 80.2638C22.6337 80.6548 23.9028 80.9705 25.1875 81.2093C25.8095 81.315 26.4626 81.4643 27.1033 81.5327L29.0316 81.6944C29.3488 81.6944 29.6536 81.7629 29.9895 81.7567H30.9474C31.5695 81.7567 32.2226 81.7567 32.8571 81.7256L34.7231 81.5203L35.6624 81.4145L36.583 81.2279L38.4055 80.8423C39.0275 80.6992 39.5936 80.4753 40.1783 80.3011L41.0616 80.0212C41.3569 79.9424 41.6443 79.8362 41.9199 79.704L43.5932 78.9824C43.8669 78.8642 44.153 78.7523 44.4205 78.6154L45.2105 78.18L46.778 77.3092C47.3005 77.0293 47.7608 76.6436 48.2522 76.3202L49.7264 75.244L51.0451 74.1058L51.7044 73.5397L52.0278 73.2598L52.3264 72.9488L53.5021 71.7047L54.0867 71.0827L54.6093 70.4171C57.1702 67.2651 59.0813 63.637 60.2322 59.7422C61.3831 55.8475 61.751 51.7634 61.3147 47.7257C61.2649 47.2778 61.2152 46.8362 61.1716 46.4008C61.1281 45.9653 60.9975 45.5486 60.9166 45.1256L60.6553 43.8815L60.5247 43.2595L60.3381 42.6375C60.0831 41.8475 59.8405 41.0762 59.5979 40.3236L58.6835 38.2336C58.3902 37.5574 58.0536 36.9008 57.6758 36.268C57.3151 35.6459 57.0103 35.0239 56.6308 34.4454C55.9388 33.3614 55.1784 32.3226 54.3542 31.3353C53.0261 29.7385 51.5402 28.2797 49.9192 26.9811V26.95C50.3919 22.7825 50.5972 20.8977 50.6594 20.5059Z" fill="#263238"/>
<path d="M48.1904 57.5165L48.943 63.4382L57.9686 55.7375L62.9137 56.9318C62.9137 56.9318 57.8193 67.6244 53.7948 71.8604C49.7703 76.0964 47.5745 76.6998 46.0817 76.7682C43.9979 76.8615 43.04 74.3174 43.04 74.3174L42.1318 59.5941L48.1904 57.5165Z" fill="#B78876"/>
<path d="M48.9047 63.2766C48.6023 63.7245 48.3909 64.2275 48.2827 64.757C48.1034 65.2676 48.0314 65.8097 48.0712 66.3494C48.2409 65.8461 48.38 65.333 48.488 64.813C48.6591 64.3102 48.7984 63.797 48.9047 63.2766Z" fill="#995037"/>
<path d="M58.8451 40.7281H65.6439C65.8999 40.7416 66.1497 40.8122 66.3751 40.9346C66.6004 41.0569 66.7956 41.2281 66.9464 41.4355C67.0972 41.6429 67.1998 41.8813 67.2467 42.1334C67.2936 42.3856 67.2837 42.6449 67.2176 42.8927L60.3753 56.2103C60.2458 56.4633 60.0489 56.6756 59.8063 56.8238C59.5637 56.972 59.2849 57.0503 59.0006 57.05H50.709C50.5155 57.0273 50.3305 56.9574 50.1703 56.8464C50.0102 56.7353 49.8798 56.5866 49.7907 56.4133C49.7016 56.24 49.6564 56.0474 49.6593 55.8525C49.6622 55.6577 49.7129 55.4665 49.8071 55.2959L56.4068 42.2334C56.631 41.7789 56.9785 41.3967 57.4097 41.1305C57.8409 40.8643 58.3384 40.7248 58.8451 40.7281Z" fill="#455A64"/>
<path d="M59.3055 41.5303H66.1043C66.2989 41.5304 66.4903 41.5805 66.6601 41.6756C66.83 41.7708 66.9725 41.9079 67.0742 42.0739C67.176 42.2399 67.2334 42.4292 67.2411 42.6237C67.2488 42.8182 67.2065 43.0114 67.1182 43.1849L60.4438 56.2101C60.3133 56.4636 60.1153 56.6762 59.8716 56.8244C59.628 56.9725 59.3481 57.0506 59.0629 57.0499H50.8709C50.7548 57.0534 50.6399 57.0268 50.5372 56.9726C50.4345 56.9185 50.3476 56.8386 50.2849 56.7409C50.2223 56.6432 50.186 56.5309 50.1797 56.415C50.1734 56.299 50.1972 56.1835 50.2489 56.0795L56.8423 43.017C57.0727 42.5635 57.4257 42.1838 57.8611 41.921C58.2966 41.6582 58.797 41.5229 59.3055 41.5303Z" fill="#263238"/>
<path d="M59.8775 46.9856L64.0139 48.634L64.9034 51.968L62.9129 56.9442L55.573 57.9954L57.719 55.8059L57.4391 53.9025C57.4391 53.9025 55.3989 53.2805 55.3491 52.9508C55.2994 52.6211 55.6041 51.5948 55.9151 51.5388C56.751 51.7206 57.5706 51.9703 58.3659 52.2852C58.3659 52.2852 55.8343 50.2823 55.9089 49.9589C55.9836 49.6354 56.251 48.8143 56.7549 48.7148C57.2587 48.6153 61.3454 50.5436 61.3454 50.5436L62.011 52.0613L62.5895 49.6416C62.5895 49.6416 58.9817 48.634 59.8775 46.9856Z" fill="#B78876"/>
<path d="M59.3615 54.7981C59.3615 54.7981 59.461 54.655 59.4983 54.3876C59.5432 54.0343 59.5005 53.6754 59.3739 53.3426C59.2548 53.008 59.0538 52.7087 58.7892 52.4717C58.584 52.2914 58.4285 52.2291 58.416 52.2478C58.7257 52.5977 58.9815 52.9918 59.1749 53.4172C59.3072 53.8653 59.3701 54.331 59.3615 54.7981Z" fill="#995037"/>
<path d="M61.3271 54.0951C61.2496 53.738 61.1936 53.3766 61.1592 53.0128C61.143 52.6055 61.074 52.2019 60.9539 51.8123C60.8695 51.582 60.7406 51.3707 60.5745 51.1903C60.3809 51.0014 60.15 50.8552 59.8965 50.7611C58.9074 50.4065 58.0304 50.1391 57.3648 49.9027C57.019 49.7694 56.6605 49.6714 56.2949 49.6104C56.6209 49.7865 56.9623 49.9322 57.315 50.0458C57.9371 50.2946 58.8452 50.6118 59.8031 50.9601C60.0341 51.0402 60.2459 51.1673 60.4252 51.3334C60.5773 51.4962 60.6938 51.689 60.7673 51.8994C60.8924 52.2723 60.9737 52.6585 61.0099 53.0501C61.0237 53.42 61.133 53.78 61.3271 54.0951Z" fill="#995037"/>
<path d="M62.2729 53.33C62.3351 53.33 62.3226 52.9568 62.2729 52.5152C62.2584 52.2387 62.1773 51.9698 62.0365 51.7314C61.9809 52.278 62.071 52.8296 62.2977 53.33H62.2729Z" fill="#995037"/>
<path d="M61.5209 44.9082C61.9984 44.9082 62.3855 44.5211 62.3855 44.0436C62.3855 43.566 61.9984 43.179 61.5209 43.179C61.0433 43.179 60.6562 43.566 60.6562 44.0436C60.6562 44.5211 61.0433 44.9082 61.5209 44.9082Z" fill="#FAFAFA"/>
<path d="M36.9929 8.99214C39.2819 15.2124 41.8198 21.8121 47.1505 25.7868C46.4541 25.9544 45.7199 25.8499 45.0979 25.4945C46.349 27.3176 47.3394 29.3065 48.0401 31.4037C48.6621 33.531 48.5812 35.9383 47.3869 37.7919C47.2439 37.5555 47.1008 37.3192 46.9639 37.0828C47.5786 39.3724 47.4448 41.7987 46.5819 44.0068C45.719 46.2149 44.1724 48.0891 42.1681 49.3553C40.4203 50.4128 38.0814 50.9228 36.3646 49.8094C35.0584 48.9635 34.4426 47.4084 33.9077 45.9529L23.4203 17.5885C22.4437 14.9574 21.4547 12.1645 21.9399 9.39647C22.2221 7.82286 22.9644 6.36821 24.0731 5.21634C25.1817 4.06447 26.6069 3.26708 28.1686 2.92492C29.7303 2.58276 31.3583 2.71119 32.847 3.29399C34.3357 3.87679 35.6183 4.8878 36.5326 6.19925" fill="#263238"/>
<path d="M43.0957 43.8319C43.0957 43.8319 43.1641 43.7759 43.2699 43.6578C43.4281 43.4823 43.5756 43.2974 43.7115 43.1042C44.2004 42.3839 44.5603 41.5841 44.7752 40.7405C45.0835 39.4896 45.1532 38.1917 44.9804 36.915C44.7529 35.355 44.3069 33.8348 43.6555 32.3991C42.9899 30.8689 42.2435 29.4631 41.6028 28.1755C41.0247 27.0396 40.5097 25.8725 40.0602 24.6798C39.7643 23.8696 39.5314 23.0377 39.3635 22.1917C39.2516 21.5696 39.2143 21.2524 39.1956 21.2586C39.1887 21.3394 39.1887 21.4205 39.1956 21.5012C39.1956 21.663 39.2329 21.8993 39.2765 22.2041C39.4134 23.0495 39.6215 23.8818 39.8985 24.6922C40.3317 25.8969 40.8365 27.0746 41.41 28.2191C42.032 29.5191 42.7847 30.9187 43.444 32.4427C44.0857 33.8629 44.5334 35.363 44.7752 36.9026C44.9493 38.1609 44.8923 39.4404 44.6072 40.6783C44.4075 41.5116 44.0712 42.3061 43.612 43.0295C43.3196 43.5707 43.077 43.8195 43.0957 43.8319Z" fill="#455A64"/>
<path d="M30.0076 5.47792C32.2753 5.58471 34.4154 6.5581 35.9861 8.19712C37.5568 9.83614 38.4383 12.0157 38.4485 14.2858C38.4485 17.9433 38.3988 21.9243 38.1624 24.288C37.6212 29.7804 33.491 30.7197 33.491 30.7197C33.491 30.7197 33.6216 34.1346 33.8082 37.3691C33.9824 40.4793 31.4507 43.1664 28.154 43.4339C24.8884 43.6951 22.0893 41.4559 21.8653 38.4079L20.7395 14.7337C20.681 13.5037 20.88 12.2752 21.3236 11.1266C21.7673 9.97797 22.4459 8.93467 23.316 8.06342C24.1861 7.19217 25.2285 6.51217 26.3765 6.06696C27.5245 5.62174 28.7528 5.42112 29.9827 5.47792H30.0076Z" fill="#B78876"/>
<path d="M36.4968 16.4503C36.5091 16.6308 36.4514 16.8092 36.3355 16.9483C36.2196 17.0873 36.0546 17.1763 35.8747 17.1967C35.7859 17.2089 35.6956 17.2031 35.6091 17.1799C35.5225 17.1566 35.4415 17.1162 35.3708 17.0612C35.3001 17.0061 35.2411 16.9374 35.1973 16.8592C35.1535 16.781 35.1258 16.6949 35.1159 16.6058C35.1036 16.4259 35.1616 16.2482 35.2776 16.1102C35.3936 15.9722 35.5586 15.8845 35.7379 15.8656C35.8263 15.8525 35.9165 15.8573 36.0031 15.8799C36.0896 15.9024 36.1707 15.9422 36.2415 15.9967C36.3124 16.0513 36.3715 16.1196 36.4153 16.1975C36.4592 16.2754 36.4869 16.3614 36.4968 16.4503Z" fill="#263238"/>
<path d="M37.1806 15.6292C37.0998 15.7225 36.5586 15.368 35.7935 15.4115C35.0284 15.4551 34.5184 15.8656 34.4313 15.7785C34.3442 15.6914 34.4686 15.5733 34.6925 15.3804C35.0058 15.1381 35.3855 14.997 35.7811 14.9761C36.171 14.9532 36.5582 15.0533 36.8883 15.2622C37.1309 15.424 37.2179 15.5857 37.1806 15.6292Z" fill="#263238"/>
<path d="M28.6775 17.1221C28.6897 17.3019 28.6318 17.4796 28.5157 17.6176C28.3997 17.7557 28.2348 17.8434 28.0554 17.8623C27.9671 17.8745 27.8772 17.869 27.791 17.8461C27.7049 17.8232 27.6241 17.7834 27.5535 17.7289C27.4828 17.6745 27.4237 17.6066 27.3796 17.5291C27.3355 17.4516 27.3073 17.3661 27.2966 17.2776C27.2842 17.097 27.342 16.9186 27.4578 16.7796C27.5737 16.6405 27.7387 16.5515 27.9186 16.5311C28.0074 16.5189 28.0977 16.5247 28.1843 16.548C28.2708 16.5712 28.3518 16.6116 28.4226 16.6667C28.4933 16.7217 28.5523 16.7904 28.596 16.8686C28.6398 16.9468 28.6675 17.033 28.6775 17.1221Z" fill="#263238"/>
<path d="M29.361 16.3694C29.2802 16.4627 28.739 16.102 27.9739 16.1517C27.2088 16.2015 26.6988 16.6058 26.6117 16.5187C26.5246 16.4316 26.6428 16.3072 26.8729 16.1206C27.1868 15.8784 27.5658 15.7355 27.9615 15.7101C28.3525 15.6847 28.7412 15.7873 29.0687 16.0024C29.3113 16.1517 29.3983 16.3259 29.361 16.3694Z" fill="#263238"/>
<path d="M32.4156 21.75C32.8041 21.6026 33.2095 21.5044 33.6224 21.4577C33.8152 21.4266 33.9894 21.3768 34.0142 21.2462C34.019 21.0455 33.9626 20.848 33.8525 20.6802L33.1807 19.2619C32.5839 18.0591 32.0826 16.8112 31.6816 15.5298C32.3764 16.6845 32.9775 17.893 33.4793 19.1437L34.1013 20.5806C34.2377 20.804 34.2906 21.0684 34.2506 21.3271C34.2274 21.3966 34.1883 21.4597 34.1365 21.5115C34.0847 21.5634 34.0215 21.6024 33.952 21.6256C33.8479 21.6632 33.739 21.6862 33.6286 21.6941C33.2283 21.7642 32.8207 21.783 32.4156 21.75Z" fill="#263238"/>
<path d="M33.517 30.7507C30.9291 30.8622 28.3568 30.2984 26.0527 29.1147C26.0527 29.1147 28.0805 33.0273 33.5544 32.3182L33.517 30.7507Z" fill="#995037"/>
<path d="M26.8796 14.2857C26.9729 14.4164 27.5016 14.1862 28.1983 14.0432C28.8949 13.9001 29.4734 13.8503 29.4983 13.6948C29.5232 13.5393 28.8763 13.3092 28.0739 13.4896C27.2715 13.6699 26.7863 14.1613 26.8796 14.2857Z" fill="#263238"/>
<path d="M34.319 12.9234C34.3563 13.0789 34.9721 13.0603 35.7123 13.0727C36.4526 13.0852 37.0621 13.1163 37.1057 12.9608C37.1492 12.8053 36.5396 12.5129 35.7185 12.5067C34.8975 12.5005 34.2817 12.7804 34.319 12.9234Z" fill="#263238"/>
<path d="M13.0146 38.8557C13.0146 38.8557 14.9492 35.0178 13.7424 31.5718C12.5357 28.1257 12.996 25.5381 14.7377 24.1821C15.9817 23.2304 16.1061 21.6629 15.9817 20.4188C15.7628 18.3377 15.8088 16.2371 16.1186 14.1675C16.6037 11.188 17.4746 8.02189 19.266 5.68307C21.5924 2.63515 25.8035 -0.13908 29.2993 1.41598C30.9228 2.13753 31.75 2.09399 33.4482 3.61796C33.4482 3.61796 35.0095 3.71748 35.8305 3.8481C38.6732 4.28974 40.5144 7.319 40.8441 9.53963C41.6154 14.6838 38.7789 16.1455 38.4866 19.6413C38.4866 19.6413 37.9765 12.3574 37.3358 10.4913C36.8111 9.12641 35.8222 7.99002 34.5429 7.28168C32.4405 7.48073 31.6443 8.72478 30.9663 10.7153C30.2883 12.7057 29.9151 14.2919 28.2481 15.5857C26.6743 16.8298 25.5422 18.8451 22.6498 17.8126C22.1223 18.886 21.9212 20.0906 22.0714 21.2772C22.3824 23.05 24.348 23.5414 23.8503 26.5458C23.3527 29.5502 21.5177 32.0134 21.5675 33.1393" fill="#263238"/>
<path d="M31.5141 23.5666C31.3833 23.4275 31.2194 23.3238 31.0378 23.2651C30.8562 23.2064 30.6627 23.1945 30.4753 23.2307C30.339 23.2523 30.2086 23.3015 30.092 23.3753C29.9754 23.4491 29.8751 23.546 29.7973 23.6599C29.7165 23.7675 29.6729 23.8985 29.6729 24.0331C29.6729 24.1677 29.7165 24.2986 29.7973 24.4063C29.9063 24.5101 30.0438 24.5792 30.1922 24.6047C30.3407 24.6302 30.4933 24.6109 30.6308 24.5494C30.9169 24.4234 31.1749 24.2415 31.3896 24.0144C31.455 23.9607 31.5099 23.8953 31.5514 23.8216C31.5741 23.7864 31.5863 23.7453 31.5863 23.7034C31.5863 23.6615 31.5741 23.6204 31.5514 23.5852" fill="#995037"/>
<path d="M29.8652 22.6147C29.9647 22.6147 30.0145 23.2803 30.6303 23.7157C31.2461 24.1511 31.9552 24.0205 31.9676 24.12C31.9801 24.2196 31.8184 24.2631 31.5136 24.2942C31.1189 24.3281 30.7249 24.2224 30.4001 23.9956C30.0798 23.7797 29.8566 23.4471 29.7781 23.0688C29.7532 22.7889 29.8155 22.6147 29.8652 22.6147Z" fill="#263238"/>
<path d="M18.8736 6.23047C17.8402 7.91373 16.6733 9.51126 15.3841 11.0076C14.0032 12.5316 12.6285 14.2732 12.529 16.3259C12.4605 17.8188 13.0764 19.3863 12.4854 20.761C11.9754 21.9304 10.7438 22.5773 9.82318 23.4543C9.01812 24.2419 8.43884 25.2309 8.14566 26.3183C7.85247 27.4056 7.85609 28.5517 8.15613 29.6373C8.55423 31.0119 9.4375 32.3617 9.12649 33.7613C8.8528 35.0053 7.72072 35.8575 7.3786 37.0642C7.03649 38.271 7.48435 39.4279 8.00063 40.504C8.78438 42.1462 9.94757 43.8443 11.7328 44.2362C12.3429 44.348 12.9699 44.3281 13.5717 44.1779C14.1735 44.0277 14.7363 43.7507 15.2223 43.3654C16.1936 42.594 16.987 41.6223 17.5487 40.5165C18.7054 38.4261 19.421 36.1206 19.6512 33.7426C19.9186 30.9 19.4894 28.0511 19.2095 25.2147C18.7026 20.0144 18.7026 14.7772 19.2095 9.57696C19.3277 8.33291 19.8315 7.08886 18.8861 6.23047" fill="#263238"/>
<path d="M23.851 18.64C23.851 18.2793 22.8931 17.6137 22.5323 17.6199C21.6988 17.6199 20.349 18.0305 20.3303 20.3382C20.2992 23.6349 23.4404 22.6708 23.4404 22.5712C23.6803 21.2737 23.8176 19.9592 23.851 18.64Z" fill="#B78876"/>
<path d="M22.6684 21.3086C22.6684 21.3086 22.6124 21.346 22.5129 21.3895C22.4449 21.4181 22.372 21.4328 22.2983 21.4328C22.2246 21.4328 22.1516 21.4181 22.0837 21.3895C21.8762 21.2498 21.7094 21.0576 21.6001 20.8326C21.4909 20.6075 21.4431 20.3576 21.4617 20.1081C21.457 19.8254 21.5143 19.5452 21.6296 19.2871C21.6631 19.1855 21.72 19.0932 21.7956 19.0176C21.8712 18.942 21.9635 18.8851 22.065 18.8516C22.1319 18.8361 22.2021 18.8436 22.2642 18.873C22.3263 18.9023 22.3767 18.9518 22.4071 19.0134C22.4445 19.1067 22.4071 19.1689 22.4445 19.1751C22.4818 19.1813 22.5129 19.1253 22.488 18.9885C22.4711 18.9061 22.4273 18.8318 22.3636 18.777C22.2724 18.7093 22.1593 18.6783 22.0464 18.6899C21.9081 18.7133 21.7782 18.7719 21.6692 18.8602C21.5603 18.9484 21.4759 19.0633 21.4243 19.1938C21.2789 19.4784 21.2062 19.7947 21.2129 20.1143C21.1946 20.4078 21.2633 20.7001 21.4105 20.9546C21.5576 21.2091 21.7767 21.4145 22.0401 21.545C22.1278 21.5707 22.2201 21.5768 22.3104 21.5629C22.4007 21.5489 22.4868 21.5152 22.5626 21.4641C22.6622 21.3895 22.6808 21.3149 22.6684 21.3086Z" fill="#995037"/>
<path d="M39.5311 17.3585C39.4897 17.1712 39.4314 16.988 39.357 16.8111C39.225 16.3032 39.1561 15.7809 39.1517 15.2561C39.1661 14.4763 39.2389 13.6987 39.3694 12.9297C39.534 11.9788 39.609 11.0146 39.5933 10.0497C39.565 9.54616 39.4709 9.04846 39.3134 8.56931C39.1564 8.11807 38.9228 7.69724 38.623 7.32526C38.1153 6.706 37.458 6.22644 36.7134 5.93193C36.2171 5.73241 35.6869 5.63101 35.1521 5.63336C35.0074 5.61733 34.8614 5.61733 34.7167 5.63336C34.6654 5.63459 34.6148 5.64513 34.5674 5.66446C34.5674 5.66446 34.7789 5.66446 35.1459 5.66446C35.7933 5.70009 36.4257 5.87265 37.0015 6.17073C37.5773 6.46881 38.0833 6.88563 38.4861 7.39369C38.7664 7.7497 38.9869 8.14884 39.1393 8.57554C39.2906 9.04057 39.3784 9.52389 39.4005 10.0124C39.4174 10.9663 39.3487 11.9197 39.1953 12.8613C39.0732 13.639 39.0149 14.4253 39.0211 15.2125C39.033 15.7453 39.1231 16.2735 39.2886 16.7801C39.3397 16.9157 39.3978 17.0485 39.4627 17.1781C39.5 17.3212 39.5249 17.3959 39.5311 17.3585Z" fill="#455A64"/>
<path d="M20.7395 22.3721C20.7395 22.3721 20.6399 22.4592 20.528 22.652C20.3642 22.9354 20.2804 23.2578 20.2854 23.585C20.2979 23.8341 20.3693 24.0767 20.4936 24.293C20.618 24.5092 20.7917 24.6929 21.0007 24.8291C21.2469 25.0044 21.5333 25.1145 21.8335 25.1493C22.1337 25.1841 22.4378 25.1424 22.7175 25.0281C22.9941 24.9029 23.2328 24.707 23.4097 24.4603C23.5866 24.2135 23.6954 23.9245 23.7252 23.6223C23.7503 23.3569 23.7007 23.0898 23.5821 22.851C23.4787 22.646 23.3323 22.4657 23.1529 22.3223C22.8991 22.1145 22.5849 21.9944 22.2572 21.9802C22.1375 21.9668 22.0165 21.9884 21.9089 22.0424C21.9089 22.0424 22.0333 22.0424 22.251 22.0424C22.5545 22.0823 22.8399 22.2098 23.072 22.4094C23.2418 22.5527 23.3742 22.7352 23.4576 22.9411C23.541 23.147 23.5731 23.3702 23.551 23.5912C23.5172 23.8585 23.4162 24.1128 23.2574 24.3304C23.0985 24.5479 22.8871 24.7217 22.6428 24.8353C22.3902 24.9357 22.1168 24.9724 21.8466 24.942C21.5765 24.9116 21.318 24.8152 21.094 24.6611C20.9066 24.5421 20.7484 24.3825 20.631 24.1941C20.5137 24.0056 20.4402 23.7932 20.416 23.5726C20.402 23.2658 20.464 22.9602 20.5964 22.6831C20.6897 22.4529 20.7395 22.3721 20.7395 22.3721Z" fill="#FFC727"/>
<path d="M12.5977 20.506C12.5986 20.4085 12.6154 20.3119 12.6474 20.2198C12.7333 19.9571 12.8437 19.703 12.9771 19.461C13.4958 18.5788 14.2057 17.8242 15.0546 17.2528C15.6439 16.8471 16.3148 16.5753 17.0202 16.4566C17.8164 16.3344 18.6232 16.2948 19.4275 16.3384C20.3 16.393 21.1753 16.3827 22.0462 16.3073C22.9619 16.1899 23.8386 15.8643 24.609 15.3556C25.3698 14.8047 26.0968 14.2086 26.786 13.5704C27.4808 13.0373 28.1075 12.4211 28.6521 11.7354C29.6909 10.398 30.6799 9.2473 31.4388 8.23962C32.0551 7.45518 32.6083 6.62322 33.0934 5.75152C33.4293 5.1295 33.5537 4.75006 33.5848 4.7625C33.5733 4.85823 33.5504 4.95221 33.5164 5.04241C33.4604 5.2228 33.3546 5.47783 33.2116 5.8075C32.7631 6.71281 32.2321 7.57486 31.6254 8.38269C30.879 9.4277 29.9024 10.5909 28.8885 11.9282C28.3472 12.6352 27.7204 13.2725 27.0224 13.8254C26.3273 14.4765 25.5918 15.0831 24.8204 15.6417C24.0066 16.1751 23.0806 16.5136 22.1146 16.6307C21.2286 16.702 20.3384 16.702 19.4524 16.6307C18.6657 16.5767 17.8755 16.6059 17.0949 16.7178C16.4275 16.8186 15.7904 17.0649 15.2288 17.4394C14.3919 17.9769 13.6776 18.6848 13.1326 19.5169C12.9312 19.8336 12.7525 20.1641 12.5977 20.506Z" fill="#455A64"/>
<path d="M30.3253 43.1788C31.5071 39.54 34.412 35.8327 37.603 37.1701C41.1485 38.6567 42.1375 40.5414 44.0845 43.465C46.0314 46.3885 47.1946 49.7288 48.3951 53.0317C48.8554 54.3255 51.2564 60.2534 50.5473 61.4353C49.9253 62.4492 43.9103 70.0503 42.7658 70.3551C39.8112 71.1389 39.6557 60.185 36.6388 60.7448C35.4321 60.9687 34.1072 61.1554 33.0435 60.552C31.6875 59.7869 31.277 58.0639 30.9909 56.5337C30.0039 51.176 29.0128 45.8017 28.0176 40.4108" fill="#FFC727"/>
<path d="M33.5849 35.7145L38.2501 37.7299C40.6138 39.5959 41.2793 42.7682 41.1985 45.7664L42.9837 70.6474L43.1392 79.25C43.1392 79.25 29.3924 86.7143 14.0346 77.048L16.5911 70.268L11.9384 54.0953C11.6025 51.7379 11.3972 46.8425 12.013 44.5224C13.593 38.5634 17.8228 36.7844 22.1583 35.5901C22.1583 35.5901 26.5125 39.2289 30.736 38.4638C30.736 38.4576 33.3174 38.215 33.5849 35.7145Z" fill="#FFC727"/>
<g opacity="0.2">
<path d="M40.0233 62.8037L31.937 74.5165C30.8858 76.0404 29.791 77.6266 28.2049 78.6032C27.0543 79.3158 25.725 79.6871 24.3717 79.6739C23.0184 79.6607 21.6966 79.2635 20.5602 78.5285C18.3209 77.0294 16.3304 73.0112 16.828 70.3613C16.884 70.0441 17.9477 70.6226 17.9477 70.6226C18.1324 70.4577 18.3585 70.3462 18.6018 70.3001C18.8451 70.2541 19.0964 70.2753 19.3286 70.3613C19.7908 70.537 20.2346 70.7578 20.6535 71.0207C23.1851 72.3643 26.4072 71.6427 28.7896 70.0379C31.1719 68.4331 32.9198 66.0694 34.7424 63.8487C35.3501 62.9707 36.1811 62.2707 37.1496 61.8209C38.1448 61.454 39.4697 61.7525 39.8927 62.7291" fill="black"/>
</g>
<path d="M26.0833 60.3157L26.7925 63.0588L40.9684 52.727L45.3226 46.5565C45.9024 45.7295 46.7814 45.1606 47.7734 44.9703C48.2921 44.8645 48.827 44.8651 49.3456 44.972C49.8641 45.0789 50.3556 45.2899 50.7902 45.5923L54.8271 48.4599C54.8271 48.4599 54.7152 50.637 53.7386 50.2016C52.762 49.7661 50.7902 48.6776 50.7902 48.6776L50.249 53.8964L47.848 55.6381L45.447 57.5041L29.4485 73.4093C28.647 74.2031 27.669 74.796 26.5944 75.1394C25.5198 75.4827 24.3792 75.5668 23.2659 75.3848C22.1526 75.2028 21.0982 74.7598 20.1889 74.0921C19.2796 73.4245 18.5413 72.551 18.0343 71.5432L15.6582 64.8067L26.0833 60.3157Z" fill="#B78876"/>
<path d="M27.1472 62.6794C27.1472 62.6794 26.8735 62.7417 26.5562 63.0465C26.1484 63.4496 25.8599 63.9576 25.7227 64.5144C25.5925 65.0599 25.5422 65.6215 25.5734 66.1814C25.5611 66.4145 25.5884 66.648 25.6543 66.8719C25.7106 66.6484 25.7337 66.4179 25.7227 66.1877C25.7373 65.6427 25.8082 65.1008 25.9342 64.5704C26.0624 64.0472 26.3117 63.5614 26.662 63.1522C26.9605 62.8412 27.1658 62.7105 27.1472 62.6794Z" fill="#995037"/>
<path d="M50.802 48.9824C50.802 48.9824 50.7584 48.802 50.5905 48.5595C50.371 48.2307 50.0563 47.9767 49.6886 47.8317C49.496 47.7648 49.2891 47.7504 49.0891 47.7897C48.8891 47.8291 48.7031 47.9208 48.5502 48.0556C48.3139 48.2795 48.3263 48.4972 48.345 48.491C48.3636 48.4848 48.4258 48.3231 48.6435 48.1676C48.786 48.0736 48.9478 48.0131 49.1169 47.9905C49.286 47.9678 49.458 47.9837 49.6201 48.037C49.9513 48.1706 50.2441 48.3843 50.4723 48.659C50.6651 48.8643 50.7771 49.0011 50.802 48.9824Z" fill="#995037"/>
<path d="M48.2647 50.3634C48.2647 50.3634 48.4015 50.2887 48.5943 50.183C48.8416 50.0388 49.123 49.9636 49.4092 49.9653C49.6955 49.9687 49.9762 50.0458 50.224 50.1892C50.4169 50.2949 50.5226 50.3945 50.5475 50.3758C50.5724 50.3571 50.4977 50.2203 50.3049 50.0648C50.051 49.8605 49.7351 49.7487 49.4092 49.7476C49.0823 49.7479 48.7649 49.8574 48.5073 50.0586C48.3144 50.2203 48.246 50.3634 48.2647 50.3634Z" fill="#995037"/>
<path d="M20.566 35.9136C17.3812 37.2447 14.0596 38.6692 11.8576 41.3314C9.65566 43.9937 8.83458 47.7072 8.99631 51.2092C9.15803 54.7112 9.13938 57.9892 10.1533 61.3482C10.5452 62.6607 11.3973 65.8641 12.094 67.3134C12.9151 68.9555 16.7778 70.7034 18.6315 70.6599C21.6856 70.5853 23.1474 64.8315 25.9029 63.5066C27.0101 62.9779 28.7269 60.6577 29.2246 59.5381C29.8466 58.1199 27.9805 55.4327 27.3025 54.0332L20.1554 39.2974" fill="#FFC727"/>
<path d="M26.469 63.1269C26.4831 63.0336 26.5125 62.9432 26.5561 62.8594C26.6584 62.6177 26.7234 62.3618 26.7489 62.1006C26.7566 61.9015 26.7218 61.7031 26.6467 61.5186C26.5716 61.3341 26.458 61.1677 26.3135 61.0307C26.1102 60.8623 25.8713 60.7423 25.6148 60.6798C25.3583 60.6173 25.091 60.6139 24.833 60.6699H24.7149V60.5455C24.5381 59.4015 24.15 58.3005 23.5703 57.2985C22.8814 56.0966 21.9259 55.0688 20.7775 54.2941C19.506 53.4811 18.0985 52.9038 16.6223 52.5898C15.4126 52.3155 14.1836 52.1346 12.9462 52.0486C11.8887 51.974 11.0303 51.9864 10.4581 51.9926C10.1497 52.0183 9.83966 52.0183 9.53125 51.9926C9.83309 51.919 10.1414 51.8753 10.4518 51.862C11.2918 51.7925 12.1354 51.778 12.9773 51.8185C14.2325 51.8692 15.4811 52.0274 16.7094 52.2912C18.2291 52.5964 19.6785 53.1829 20.9827 54.0205C22.1705 54.8184 23.1547 55.8836 23.8565 57.1306C24.4481 58.1674 24.8287 59.3111 24.9761 60.4957L24.8393 60.39C25.1319 60.336 25.433 60.3494 25.7197 60.4292C26.0064 60.509 26.2711 60.6529 26.4939 60.8503C26.6531 61.0131 26.7747 61.2089 26.8499 61.4239C26.9251 61.6389 26.9522 61.8677 26.9293 62.0943C26.8865 62.3672 26.7959 62.6304 26.6618 62.8719C26.5312 63.0522 26.4814 63.1331 26.469 63.1269Z" fill="#263238"/>
<path d="M19.6514 65.6028C21.0254 63.574 22.8416 61.8832 24.9635 60.6577C25.0194 60.7386 23.7194 61.7027 22.2452 63.065C20.771 64.4272 19.726 65.6588 19.6514 65.6028Z" fill="#263238"/>
<g opacity="0.3">
<path d="M24.8146 60.4524C23.5309 60.9222 22.3172 61.5647 21.2069 62.362C20.0871 63.1715 19.3176 64.3769 19.0547 65.7334L20.2303 64.6511C21.7597 63.1859 23.396 61.8365 25.1256 60.6141" fill="black"/>
</g>
<path d="M41.2666 52.2292C41.266 51.8192 41.3397 51.4125 41.4843 51.0287C41.7794 50.0916 42.1605 49.1837 42.6226 48.3167C43.6801 46.2765 44.8744 44.8209 44.9614 44.8956C44.7814 45.2594 44.5734 45.6088 44.3394 45.9406C43.9475 46.5626 43.4313 47.4645 42.9025 48.466C42.4547 49.3235 42.0519 50.2039 41.6958 51.1034C41.5861 51.4906 41.4425 51.8673 41.2666 52.2292Z" fill="#263238"/>
<path d="M43.1333 77.2719C43.0722 77.0552 43.0408 76.8313 43.04 76.6063C42.9964 76.1709 42.9529 75.5488 42.9156 74.7775C42.8347 73.2287 42.7725 71.0951 42.7601 68.7377C42.7476 66.3802 42.7601 64.2404 42.8347 62.6978C42.8347 61.9203 42.8845 61.2983 42.9156 60.8691C42.9093 60.6428 42.9344 60.4167 42.9902 60.1973C43.0356 60.4181 43.0524 60.6439 43.04 60.8691C43.04 61.3729 43.04 61.9825 43.04 62.6978C43.04 64.3213 43.04 66.43 43.04 68.7377C43.04 71.0454 43.0835 73.1478 43.096 74.7713C43.096 75.4866 43.096 76.0962 43.096 76.6001C43.1372 76.8215 43.1498 77.0473 43.1333 77.2719Z" fill="#263238"/>
<path d="M37.4478 50.525C37.2904 49.9928 37.1699 49.4503 37.0871 48.9015C36.967 48.3581 36.8818 47.8075 36.832 47.2532C36.9934 47.7848 37.1161 48.3273 37.199 48.8766C37.319 49.4199 37.4021 49.9706 37.4478 50.525Z" fill="#EBEBEB"/>
<path d="M38.4555 48.323C38.0611 48.5388 37.6438 48.7099 37.2114 48.8331C36.7946 48.9908 36.3633 49.1075 35.9238 49.1814C36.329 49.0051 36.7444 48.8535 37.1679 48.7273C37.5879 48.5649 38.018 48.4298 38.4555 48.323Z" fill="#EBEBEB"/>
<path d="M36.5947 50.1331C36.7177 49.694 36.8758 49.2655 37.0675 48.8517C37.2214 48.4211 37.4129 48.0048 37.6397 47.6077C37.5208 48.0472 37.3647 48.4759 37.1732 48.889C37.0158 49.3193 36.8222 49.7354 36.5947 50.1331Z" fill="#EBEBEB"/>
<path d="M38.4432 49.8285C37.6126 49.3076 36.8206 48.7276 36.0732 48.093C36.5089 48.3335 36.9249 48.608 37.3173 48.9141C37.7168 49.1878 38.0933 49.4936 38.4432 49.8285Z" fill="#EBEBEB"/>
<path d="M41.1422 69.6461C40.9843 69.1136 40.8617 68.5713 40.7752 68.0226C40.6552 67.4794 40.5721 66.9287 40.5264 66.3743C40.6838 66.9065 40.8044 67.449 40.8872 67.9978C41.0113 68.5405 41.0965 69.0913 41.1422 69.6461Z" fill="#EBEBEB"/>
<path d="M42.1434 67.469C41.3547 67.8603 40.5182 68.1467 39.6553 68.3212C40.0602 68.1461 40.4757 67.9966 40.8993 67.8733C41.3049 67.7119 41.7204 67.5769 42.1434 67.469Z" fill="#EBEBEB"/>
<path d="M40.29 69.2791C40.409 68.8395 40.5651 68.4109 40.7566 67.9977C40.9136 67.5683 41.105 67.1523 41.3288 66.7537C41.2098 67.1932 41.0538 67.6219 40.8623 68.035C40.7053 68.4644 40.5139 68.8804 40.29 69.2791Z" fill="#EBEBEB"/>
<path d="M42.1313 68.9679C41.7067 68.7253 41.3012 68.4509 40.9183 68.1468C40.5088 67.8762 40.1237 67.5702 39.7676 67.2324C40.202 67.4773 40.6178 67.7538 41.0116 68.0597C41.4063 68.335 41.7805 68.6385 42.1313 68.9679Z" fill="#EBEBEB"/>
<path d="M46.443 62.1069C46.2829 61.5729 46.1603 61.0283 46.076 60.4772C45.9556 59.9341 45.8724 59.3833 45.8271 58.8289C45.9815 59.364 46.102 59.9083 46.1879 60.4586C46.3047 61.0026 46.3899 61.553 46.443 62.1069Z" fill="#EBEBEB"/>
<path d="M47.4438 59.905C47.0479 60.1177 46.631 60.2887 46.1997 60.4151C45.7846 60.5769 45.3527 60.6917 44.9121 60.7572C45.3173 60.5809 45.7327 60.4293 46.1562 60.3031C46.5756 60.1408 47.0059 60.0078 47.4438 59.905Z" fill="#EBEBEB"/>
<path d="M45.583 61.7089C45.8639 60.8427 46.2133 60.0004 46.628 59.1897C46.5101 59.6296 46.354 60.0584 46.1615 60.4711C46.0037 60.8992 45.8102 61.3132 45.583 61.7089Z" fill="#EBEBEB"/>
<path d="M47.4314 61.4039C46.9958 61.1635 46.5798 60.8889 46.1874 60.5829C45.7904 60.3149 45.4141 60.0176 45.0615 59.6934C45.4972 59.9338 45.9132 60.2084 46.3056 60.5144C46.7025 60.7824 47.0789 61.0797 47.4314 61.4039Z" fill="#EBEBEB"/>
<path d="M39.1265 43.3529C38.9687 42.8187 38.8482 42.2741 38.7658 41.7232C38.6456 41.1819 38.5604 40.6333 38.5107 40.0811C38.6686 40.6136 38.7912 41.1559 38.8777 41.7045C38.9981 42.2477 39.0813 42.7984 39.1265 43.3529Z" fill="#EBEBEB"/>
<path d="M40.1352 41.1509C39.7393 41.3636 39.3224 41.5345 38.8911 41.6609C38.4758 41.822 38.044 41.9367 37.6035 42.0031C38.4302 41.6819 39.2708 41.3975 40.1227 41.1509H40.1352Z" fill="#EBEBEB"/>
<path d="M38.2744 42.961C38.405 42.512 38.5735 42.075 38.7783 41.6547C38.9322 41.224 39.1237 40.8077 39.3505 40.4106C39.2315 40.8502 39.0755 41.2789 38.884 41.692C38.7145 42.1304 38.5107 42.5547 38.2744 42.961Z" fill="#EBEBEB"/>
<path d="M40.1223 42.65C39.6867 42.4095 39.2707 42.135 38.8783 41.8289C38.4719 41.554 38.0872 41.2483 37.7275 40.9146C38.1632 41.155 38.5792 41.4296 38.9716 41.7356C39.378 42.0105 39.7627 42.3162 40.1223 42.65Z" fill="#EBEBEB"/>
<path d="M32.0416 56.7763C31.8838 56.242 31.7632 55.6975 31.6808 55.1465C31.5569 54.6059 31.4717 54.0571 31.4258 53.5044C31.5837 54.0369 31.7063 54.5792 31.7928 55.1279C31.9132 55.671 31.9963 56.2218 32.0416 56.7763Z" fill="#EBEBEB"/>
<path d="M33.0502 54.5742C32.6536 54.7855 32.2369 54.9563 31.8062 55.0843C31.3908 55.2453 30.959 55.3601 30.5186 55.4264C30.9232 55.2489 31.3387 55.0972 31.7626 54.9723C32.1829 54.8125 32.613 54.6795 33.0502 54.5742Z" fill="#EBEBEB"/>
<path d="M31.1904 56.378C31.467 55.5203 31.8166 54.6879 32.2354 53.8899C32.1125 54.329 31.9544 54.7575 31.7627 55.1713C31.6064 55.589 31.415 55.9927 31.1904 56.378Z" fill="#EBEBEB"/>
<path d="M33.0374 56.0736C32.6017 55.8331 32.1857 55.5586 31.7933 55.2525C31.3869 54.9776 31.0022 54.6719 30.6426 54.3381C31.0772 54.5803 31.4931 54.8548 31.8866 55.1592C32.293 55.4341 32.6777 55.7398 33.0374 56.0736Z" fill="#EBEBEB"/>
<path d="M33.1803 74.504C33.0228 73.9718 32.9023 73.4294 32.8195 72.8806C32.6954 72.3379 32.6101 71.787 32.5645 71.2322C32.7227 71.7667 32.8453 72.3111 32.9314 72.8619C33.0512 73.4031 33.1343 73.9517 33.1803 74.504Z" fill="#EBEBEB"/>
<path d="M34.2016 72.302C33.8072 72.5178 33.3899 72.6889 32.9575 72.8121C32.5429 72.9767 32.111 73.0936 31.6699 73.1604C32.0746 72.9828 32.4901 72.8312 32.914 72.7063C33.3352 72.5474 33.7651 72.4124 34.2016 72.302Z" fill="#EBEBEB"/>
<path d="M32.3408 74.112C32.6217 73.2458 32.9712 72.4034 33.3858 71.5928C33.2629 72.0319 33.1048 72.4604 32.9131 72.8741C32.7588 73.3027 32.5673 73.7169 32.3408 74.112Z" fill="#EBEBEB"/>
<path d="M34.1887 73.8075C33.7531 73.567 33.3371 73.2925 32.9447 72.9864C32.5383 72.7115 32.1536 72.4058 31.7939 72.072C32.2296 72.3125 32.6456 72.587 33.038 72.8931C33.4444 73.168 33.8291 73.4737 34.1887 73.8075Z" fill="#EBEBEB"/>
<path d="M39.2955 78.8832C39.1376 78.3507 39.015 77.8083 38.9285 77.2597C38.8081 76.7165 38.725 76.1658 38.6797 75.6113C38.8375 76.1456 38.9581 76.6901 39.0405 77.241C39.1607 77.7824 39.2459 78.3309 39.2955 78.8832Z" fill="#EBEBEB"/>
<path d="M40.2963 76.6812C39.9019 76.8969 39.4846 77.068 39.0522 77.1912C38.6356 77.3496 38.2043 77.4663 37.7646 77.5395C38.1698 77.3633 38.5852 77.2116 39.0087 77.0855C39.4299 76.9265 39.8598 76.7915 40.2963 76.6812Z" fill="#EBEBEB"/>
<path d="M38.4365 78.4912C38.5629 78.0532 38.7208 77.625 38.9092 77.2099C39.0663 76.7805 39.2577 76.3645 39.4815 75.9658C39.3625 76.4054 39.2065 76.834 39.015 77.2472C38.8575 77.6774 38.664 78.0936 38.4365 78.4912Z" fill="#EBEBEB"/>
<path d="M40.2844 78.1864C39.8498 77.9442 39.434 77.6697 39.0404 77.3653C38.634 77.0904 38.2493 76.7847 37.8896 76.4509C38.3253 76.6914 38.7413 76.9659 39.1337 77.272C39.5401 77.5469 39.9248 77.8526 40.2844 78.1864Z" fill="#EBEBEB"/>
<path d="M27.5816 81.1846C27.4198 80.651 27.2971 80.1063 27.2146 79.5549C27.0942 79.0117 27.0111 78.461 26.9658 77.9065C27.1184 78.4421 27.2388 78.9863 27.3266 79.5362C27.447 80.0796 27.5322 80.6302 27.5816 81.1846Z" fill="#EBEBEB"/>
<path d="M28.6088 78.9763C28.2129 79.189 27.796 79.36 27.3647 79.4864C26.9497 79.6482 26.5178 79.7629 26.0771 79.8285C26.8936 79.5082 27.7238 79.2238 28.5652 78.9763H28.6088Z" fill="#EBEBEB"/>
<path d="M26.749 80.7864C26.8754 80.3484 27.0334 79.9201 27.2218 79.505C27.3792 79.0758 27.5706 78.6598 27.794 78.261C27.6755 78.6987 27.5195 79.1253 27.3275 79.5361C27.1704 79.9685 26.9769 80.3868 26.749 80.7864Z" fill="#EBEBEB"/>
<path d="M28.596 80.4815C28.1603 80.2411 27.7443 79.9665 27.3519 79.6605C26.9455 79.3856 26.5608 79.0799 26.2012 78.7461C26.6369 78.9866 27.0528 79.2611 27.4452 79.5672C27.8516 79.8421 28.2363 80.1478 28.596 80.4815Z" fill="#EBEBEB"/>
<path d="M17.6304 77.5891C17.4726 77.0549 17.3521 76.5103 17.2697 75.9594C17.1456 75.4167 17.0603 74.8659 17.0146 74.311C17.1712 74.846 17.2937 75.3903 17.3816 75.9407C17.5021 76.4839 17.5852 77.0346 17.6304 77.5891Z" fill="#EBEBEB"/>
<path d="M18.6186 75.3872C18.2227 75.5999 17.8058 75.7708 17.3745 75.8973C16.9592 76.0583 16.5274 76.173 16.0869 76.2394C16.4916 76.0618 16.9071 75.9101 17.331 75.7853C17.7516 75.6265 18.1816 75.4935 18.6186 75.3872Z" fill="#EBEBEB"/>
<path d="M16.7588 77.1912C16.8784 76.751 17.0365 76.3222 17.2315 75.9098C17.3858 75.4793 17.5773 75.0631 17.8038 74.6658C17.6847 75.1041 17.5265 75.5309 17.331 75.9409C17.1775 76.3737 16.986 76.7921 16.7588 77.1912Z" fill="#EBEBEB"/>
<path d="M18.6067 76.8863C18.171 76.6459 17.755 76.3713 17.3627 76.0653C16.9563 75.7903 16.5715 75.4847 16.2119 75.1509C16.6476 75.3913 17.0636 75.6659 17.456 75.972C17.8624 76.2469 18.2471 76.5526 18.6067 76.8863Z" fill="#EBEBEB"/>
<path d="M31.3453 44.6469C31.1879 44.1146 31.0673 43.5722 30.9845 43.0234C30.8604 42.4807 30.7752 41.9298 30.7295 41.375C30.8873 41.9092 31.0079 42.4538 31.0903 43.0047C31.2137 43.5454 31.2989 44.0942 31.3453 44.6469Z" fill="#EBEBEB"/>
<path d="M32.3471 42.4509C31.9507 42.661 31.5339 42.8299 31.103 42.9548C30.6885 43.1194 30.2565 43.2363 29.8154 43.3031C30.2196 43.1243 30.6352 42.9726 31.0595 42.849C31.479 42.687 31.9093 42.554 32.3471 42.4509Z" fill="#EBEBEB"/>
<path d="M30.4941 44.2547C30.6131 43.8151 30.7692 43.3865 30.9607 42.9733C31.1197 42.5437 31.3132 42.1277 31.5391 41.7292C31.4139 42.1676 31.2559 42.596 31.0664 43.0106C30.9094 43.44 30.718 43.856 30.4941 44.2547Z" fill="#EBEBEB"/>
<path d="M32.3411 43.9501C31.9054 43.7096 31.4894 43.435 31.097 43.129C30.6906 42.8541 30.3059 42.5484 29.9463 42.2146C30.3809 42.4568 30.7968 42.7313 31.1903 43.0357C31.5967 43.3106 31.9815 43.6163 32.3411 43.9501Z" fill="#EBEBEB"/>
<path d="M13.7291 49.6852C13.5677 49.1536 13.445 48.611 13.3621 48.0617C13.2417 47.5186 13.1586 46.9678 13.1133 46.4133C13.2711 46.9476 13.3917 47.4921 13.4741 48.043C13.5943 48.5844 13.6795 49.1329 13.7291 49.6852Z" fill="#EBEBEB"/>
<path d="M14.7318 47.4832C14.3374 47.6989 13.9202 47.87 13.4878 47.9932C13.0712 48.1516 12.6399 48.2683 12.2002 48.3416C12.6053 48.1653 13.0208 48.0136 13.4442 47.8875C13.8655 47.7285 14.2954 47.5935 14.7318 47.4832Z" fill="#EBEBEB"/>
<path d="M12.8721 49.2932C12.9984 48.8552 13.1564 48.427 13.3448 48.0119C13.5018 47.5825 13.6932 47.1665 13.9171 46.7678C13.7981 47.2074 13.642 47.636 13.4505 48.0492C13.2931 48.4794 13.0996 48.8956 12.8721 49.2932Z" fill="#EBEBEB"/>
<path d="M14.719 48.9886C14.2833 48.7482 13.8674 48.4736 13.475 48.1676C13.0686 47.8926 12.6838 47.587 12.3242 47.2532C12.7599 47.4936 13.1759 47.7682 13.5683 48.0743C13.9747 48.3492 14.3594 48.6549 14.719 48.9886Z" fill="#EBEBEB"/>
<path d="M24.5592 54.002C24.4031 53.4673 24.2826 52.9229 24.1984 52.3723C24.0743 51.8296 23.989 51.2787 23.9434 50.7239C24.1017 51.2584 24.2243 51.8028 24.3104 52.3536C24.4308 52.8967 24.5139 53.4475 24.5592 54.002Z" fill="#EBEBEB"/>
<path d="M25.5668 51.8C25.1699 52.009 24.7532 52.1778 24.3228 52.3039C23.9082 52.4685 23.4762 52.5854 23.0352 52.6522C23.4398 52.4747 23.8553 52.323 24.2792 52.1982C24.6987 52.0358 25.1289 51.9028 25.5668 51.8Z" fill="#EBEBEB"/>
<path d="M23.707 53.6038C23.8266 53.1636 23.9848 52.7348 24.1798 52.3224C24.3368 51.893 24.5282 51.477 24.752 51.0784C24.6336 51.5189 24.4754 51.9478 24.2793 52.3597C24.1254 52.7904 23.9339 53.2067 23.707 53.6038Z" fill="#EBEBEB"/>
<path d="M25.5549 53.2992C25.1193 53.0587 24.7033 52.7842 24.3109 52.4781C23.9045 52.2032 23.5198 51.8975 23.1602 51.5637C23.5958 51.8042 24.0118 52.0787 24.4042 52.3848C24.8106 52.6597 25.1953 52.9654 25.5549 53.2992Z" fill="#EBEBEB"/>
<path d="M14.0973 59.0714C13.9359 58.5398 13.8132 57.9973 13.7303 57.4479C13.6103 56.9047 13.5272 56.354 13.4814 55.7996C13.6389 56.3318 13.7594 56.8742 13.8422 57.4231C13.9627 57.9664 14.0479 58.517 14.0973 59.0714Z" fill="#EBEBEB"/>
<path d="M15.0981 56.8447C14.7036 57.0605 14.2864 57.2316 13.854 57.3548C13.4389 57.5166 13.007 57.6313 12.5664 57.6969C12.9724 57.5244 13.3877 57.3749 13.8105 57.249C14.2305 57.0866 14.6606 56.9515 15.0981 56.8447Z" fill="#EBEBEB"/>
<path d="M13.2373 58.6546C13.3636 58.2166 13.5216 57.7883 13.71 57.3732C13.8671 56.9438 14.0585 56.5278 14.2823 56.1292C14.1633 56.5687 14.0073 56.9974 13.8158 57.4105C13.6583 57.8408 13.4648 58.2569 13.2373 58.6546Z" fill="#EBEBEB"/>
<path d="M15.0857 58.3438C14.6511 58.1016 14.2353 57.8272 13.8417 57.5228C13.4412 57.2411 13.0647 56.927 12.7158 56.5835C13.5464 57.1044 14.3384 57.6844 15.0857 58.319V58.3438Z" fill="#EBEBEB"/>
<path d="M20.6226 61.1926C20.4657 60.6582 20.3452 60.1137 20.2619 59.5629C20.1378 59.0202 20.0525 58.4694 20.0068 57.9146C20.1629 58.4492 20.2834 58.9937 20.3676 59.5443C20.4917 60.0869 20.5769 60.6378 20.6226 61.1926Z" fill="#EBEBEB"/>
<path d="M21.6303 58.9907C21.2337 59.202 20.8169 59.3728 20.3862 59.5008C19.9709 59.6618 19.5391 59.7765 19.0986 59.8429C19.5028 59.6641 19.9184 59.5124 20.3427 59.3888C20.7618 59.2255 21.1921 59.0924 21.6303 58.9907Z" fill="#EBEBEB"/>
<path d="M19.7695 60.7945C19.8885 60.3549 20.0446 59.9263 20.236 59.5131C20.3939 59.083 20.5874 58.6669 20.8145 58.269C20.6894 58.6953 20.5313 59.1113 20.3418 59.5131C20.1899 59.9565 19.9984 60.3854 19.7695 60.7945Z" fill="#EBEBEB"/>
<path d="M21.6175 60.4896C21.1818 60.2491 20.7658 59.9746 20.3734 59.6685C19.967 59.3936 19.5823 59.0879 19.2227 58.7542C19.6573 58.9964 20.0731 59.2708 20.4667 59.5752C20.8731 59.8501 21.2578 60.1558 21.6175 60.4896Z" fill="#EBEBEB"/>
<path d="M16.4478 67.3443C16.2904 66.8121 16.1699 66.2697 16.0871 65.7209C15.9633 65.1781 15.8781 64.6273 15.832 64.0725C15.9899 64.605 16.1125 65.1473 16.199 65.696C16.319 66.2392 16.4021 66.7899 16.4478 67.3443Z" fill="#EBEBEB"/>
<path d="M17.4557 65.1426C16.6575 65.5372 15.8104 65.8237 14.9365 65.9947C14.9365 65.9947 15.4963 65.7833 16.1806 65.5469C16.5965 65.3849 17.0224 65.2499 17.4557 65.1426Z" fill="#EBEBEB"/>
<path d="M15.5957 66.9526C15.8766 66.0864 16.226 65.244 16.6407 64.4333C16.3598 65.2995 16.0104 66.1419 15.5957 66.9526Z" fill="#EBEBEB"/>
<path d="M17.4436 66.6418C17.0079 66.4014 16.592 66.1268 16.1996 65.8207C15.7942 65.5467 15.4096 65.2432 15.0488 64.9126C15.4862 65.1502 15.9024 65.4249 16.2929 65.7337C16.6983 66.0077 17.0829 66.3112 17.4436 66.6418Z" fill="#EBEBEB"/>
<path d="M23.8502 26.3904C23.364 27.266 23.1172 28.2543 23.1347 29.2557C23.1522 30.2571 23.4333 31.2362 23.9497 32.0944C24.6402 33.2078 25.7163 34.0786 26.245 35.2791C26.867 36.7471 26.5996 38.4266 26.4067 40.0189C26.2139 41.6113 26.1828 43.3779 27.2029 44.6157C27.6259 45.132 28.1982 45.5114 28.6336 46.0215C28.8725 46.2613 29.0359 46.5659 29.1033 46.8976C29.1708 47.2293 29.1394 47.5735 29.013 47.8876C28.7468 48.2767 28.353 48.5605 27.8996 48.69C26.2592 49.2734 24.4816 49.3518 22.7963 48.9149C21.1109 48.478 19.5952 47.546 18.4448 46.2392L18.1898 47.9373C16.043 46.0778 14.5972 43.5396 14.0925 40.7447C13.5879 37.9497 14.0547 35.0662 15.4156 32.5733" fill="#263238"/>
</svg>
