<svg width="81" height="96" viewBox="0 0 81 96" fill="none" xmlns="http://www.w3.org/2000/svg">
<path d="M80.9999 23.8844C80.9999 23.8844 75.8459 65.155 67.3737 74.4352C57.1757 85.5745 49.8253 83.9428 45.7226 89.6929C41.612 83.935 34.2381 85.5745 24.0557 74.4273C15.5835 65.1471 10.4453 23.8766 10.4453 23.8766C32.7633 13.0431 45.7461 0.899658 45.7461 0.899658C46.1227 1.29189 59.0271 13.2236 80.9999 23.8844Z" fill="#FFC727"/>
<path opacity="0.1" d="M45.7226 0.938881V89.6929C41.612 83.935 34.2381 85.5745 24.0557 74.4273C15.5835 65.1471 10.4453 23.8766 10.4453 23.8766C32.7633 13.0431 45.7461 0.899658 45.7461 0.899658L45.7226 0.938881Z" fill="black"/>
<path d="M15.9141 27.2106C15.9141 27.2106 20.26 62.0721 27.4143 69.9167C36.0434 79.3303 42.2563 77.9575 45.7236 82.8054C49.191 77.9575 55.4274 79.3381 64.0251 69.9167C71.1794 62.0721 75.5253 27.2106 75.5253 27.2106C56.6982 18.0559 45.7158 7.79517 45.7158 7.79517C45.7158 7.79517 34.7647 18.0559 15.9141 27.2106Z" fill="#FFC727"/>
<path opacity="0.2" d="M75.5175 27.2105C75.5175 27.2105 71.1638 62.0642 64.0095 69.9167C55.4196 79.3302 49.1831 77.9574 45.7158 82.7976V7.81079C46.0453 8.12458 56.9572 18.1971 75.5175 27.2105Z" fill="white"/>
<path d="M45.7148 59.1225C53.3486 59.1225 59.537 52.9341 59.537 45.3003C59.537 37.6665 53.3486 31.478 45.7148 31.478C38.081 31.478 31.8926 37.6665 31.8926 45.3003C31.8926 52.9341 38.081 59.1225 45.7148 59.1225Z" fill="#455A64"/>
<path d="M44.1463 54.2825L37.9883 47.8813L40.2711 45.6848L43.6678 49.2149L50.979 37.9893L53.6383 39.7229L44.1463 54.2825Z" fill="white"/>
<path d="M75.5166 83.629L73.5633 83.9977L73.124 86.053L72.6847 83.9977L70.7314 83.629L72.6769 83.1584L73.124 81.2129L73.5712 83.1584L75.5166 83.629Z" fill="#FFC727"/>
<path d="M17.6163 67.9633L15.663 68.3241L15.2237 70.3873L14.7844 68.3241L12.8311 67.9633L14.7765 67.4848L15.2237 65.5393L15.6708 67.4848L17.6163 67.9633Z" fill="#FFC727"/>
<path d="M26.5352 13.6471L24.5819 14.008L24.1426 16.0633L23.7112 14.008L21.75 13.6393L23.7033 13.1686L24.1426 11.2231L24.5897 13.1686L26.5352 13.6471Z" fill="#FFC727"/>
<path d="M72.0188 74.3647L70.9284 74.5687L70.6852 75.7218L70.442 74.5687L69.3438 74.3647L70.4342 74.098L70.6852 73.0076L70.9284 74.098L72.0188 74.3647Z" fill="#FFC727"/>
<path d="M79.5725 51.4347L78.4821 51.6387L78.2389 52.7918L77.9957 51.6387L76.8975 51.4347L77.9879 51.168L78.2389 50.0854L78.4899 51.168L79.5725 51.4347Z" fill="#FFC727"/>
<path d="M70.301 11.2233L69.2106 11.4273L68.9674 12.5726L68.7164 11.4273L67.626 11.2233L68.7164 10.9566L68.9674 9.86621L69.2106 10.9566L70.301 11.2233Z" fill="#FFC727"/>
<path d="M42.3977 94.6508L41.3073 94.8548L41.0563 96.0001L40.8131 94.8548L39.7227 94.6508L40.8131 94.3841L41.0563 93.2937L41.3073 94.3841L42.3977 94.6508Z" fill="#FFC727"/>
<path d="M11.5442 70.6462L10.4537 70.8501L10.2027 72.0033L9.95955 70.8501L8.86914 70.6462L9.95955 70.3795L10.2027 69.2891L10.4537 70.3795L11.5442 70.6462Z" fill="#FFC727"/>
<path d="M13.2473 38.7185L12.149 38.9224L11.9058 40.0756L11.6627 38.9224L10.5723 38.7185L11.6548 38.4517L11.9058 37.3613L12.1569 38.4517L13.2473 38.7185Z" fill="#FFC727"/>
<path d="M59.0753 79.5339C58.9996 79.5459 58.9306 79.5844 58.8808 79.6427C58.8311 79.7009 58.8037 79.775 58.8037 79.8516C58.8037 79.9283 58.8311 80.0024 58.8808 80.0606C58.9306 80.1189 58.9996 80.1574 59.0753 80.1693C59.1509 80.1574 59.2199 80.1189 59.2697 80.0606C59.3195 80.0024 59.3468 79.9283 59.3468 79.8516C59.3468 79.775 59.3195 79.7009 59.2697 79.6427C59.2199 79.5844 59.1509 79.5459 59.0753 79.5339Z" fill="#FFC727"/>
<path d="M8.71296 22.1194C8.63727 22.1313 8.56835 22.1699 8.51856 22.2281C8.46878 22.2864 8.44141 22.3605 8.44141 22.4371C8.44141 22.5137 8.46878 22.5878 8.51856 22.6461C8.56835 22.7043 8.63727 22.7429 8.71296 22.7548C8.78864 22.7429 8.85759 22.7043 8.90737 22.6461C8.95716 22.5878 8.98453 22.5137 8.98453 22.4371C8.98453 22.3605 8.95716 22.2864 8.90737 22.2281C8.85759 22.1699 8.78864 22.1313 8.71296 22.1194Z" fill="#FFC727"/>
<path d="M68.9669 81.3149C68.8912 81.3269 68.8223 81.3654 68.7725 81.4237C68.7227 81.4819 68.6953 81.556 68.6953 81.6326C68.6953 81.7093 68.7227 81.7834 68.7725 81.8416C68.8223 81.8999 68.8912 81.9384 68.9669 81.9504C69.0426 81.9384 69.1115 81.8999 69.1613 81.8416C69.2111 81.7834 69.2384 81.7093 69.2384 81.6326C69.2384 81.556 69.2111 81.4819 69.1613 81.4237C69.1115 81.3654 69.0426 81.3269 68.9669 81.3149Z" fill="#FFC727"/>
<path d="M36.8909 31.8547C36.8077 31.8547 36.7279 31.8878 36.6691 31.9466C36.6102 32.0055 36.5771 32.0853 36.5771 32.1685C36.5771 32.2517 36.6102 32.3316 36.6691 32.3904C36.7279 32.4492 36.8077 32.4823 36.8909 32.4823C36.9741 32.4823 37.054 32.4492 37.1128 32.3904C37.1716 32.3316 37.2047 32.2517 37.2047 32.1685C37.2047 32.0853 37.1716 32.0055 37.1128 31.9466C37.054 31.8878 36.9741 31.8547 36.8909 31.8547Z" fill="#FFC727"/>
<path d="M7.56745 44.6099C7.49176 44.6218 7.42282 44.6604 7.37303 44.7186C7.32325 44.7768 7.2959 44.8509 7.2959 44.9276C7.2959 45.0042 7.32325 45.0783 7.37303 45.1365C7.42282 45.1948 7.49176 45.2334 7.56745 45.2453C7.64314 45.2334 7.71208 45.1948 7.76186 45.1365C7.81165 45.0783 7.839 45.0042 7.839 44.9276C7.839 44.8509 7.81165 44.7768 7.76186 44.7186C7.71208 44.6604 7.64314 44.6218 7.56745 44.6099Z" fill="#FFC727"/>
<path d="M0.185414 41.1584C0.133291 41.1683 0.0862397 41.196 0.0523805 41.2368C0.0185213 41.2776 0 41.329 0 41.382C0 41.4351 0.0185213 41.4864 0.0523805 41.5273C0.0862397 41.5681 0.133291 41.5958 0.185414 41.6056C0.237538 41.5958 0.284613 41.5681 0.318472 41.5273C0.352332 41.4864 0.370853 41.4351 0.370853 41.382C0.370853 41.329 0.352332 41.2776 0.318472 41.2368C0.284613 41.196 0.237538 41.1683 0.185414 41.1584Z" fill="#FFC727"/>
<path d="M60.6131 7.08887C60.561 7.09867 60.514 7.12638 60.4801 7.16721C60.4463 7.20803 60.4277 7.2594 60.4277 7.31244C60.4277 7.36548 60.4463 7.41685 60.4801 7.45767C60.514 7.49849 60.561 7.5262 60.6131 7.53601C60.6653 7.5262 60.7123 7.49849 60.7462 7.45767C60.7801 7.41685 60.7986 7.36548 60.7986 7.31244C60.7986 7.2594 60.7801 7.20803 60.7462 7.16721C60.7123 7.12638 60.6653 7.09867 60.6131 7.08887Z" fill="#FFC727"/>
<path d="M29.3436 83.7859C29.2915 83.7957 29.2445 83.8234 29.2106 83.8642C29.1767 83.9051 29.1582 83.9564 29.1582 84.0095C29.1582 84.0625 29.1767 84.1139 29.2106 84.1547C29.2445 84.1955 29.2915 84.2232 29.3436 84.233C29.3958 84.2232 29.4428 84.1955 29.4767 84.1547C29.5105 84.1139 29.5291 84.0625 29.5291 84.0095C29.5291 83.9564 29.5105 83.9051 29.4767 83.8642C29.4428 83.8234 29.3958 83.7957 29.3436 83.7859Z" fill="#FFC727"/>
<path d="M22.3396 79.6675C22.1903 79.6845 22.0524 79.7558 21.9523 79.868C21.8522 79.9801 21.7969 80.1251 21.7969 80.2754C21.7969 80.4257 21.8522 80.5708 21.9523 80.6829C22.0524 80.795 22.1903 80.8664 22.3396 80.8834C22.4889 80.8664 22.6268 80.795 22.7269 80.6829C22.827 80.5708 22.8823 80.4257 22.8823 80.2754C22.8823 80.1251 22.827 79.9801 22.7269 79.868C22.6268 79.7558 22.4889 79.6845 22.3396 79.6675Z" fill="#FFC727"/>
</svg>
