<svg width="107" height="62" viewBox="0 0 107 62" fill="none" xmlns="http://www.w3.org/2000/svg">
<path d="M57.3545 7.65928H73.1266C73.1266 7.65928 71.5631 3.39526 69.1563 3.39526C66.7495 3.39526 65.9978 6.34217 65.9978 6.34217C65.9978 6.34217 64.3759 4.73132 63.0383 4.73132C61.7006 4.73132 60.543 6.84912 60.543 6.84912C60.543 6.84912 58.659 5.71046 57.3545 7.65928Z" fill="#EBEBEB"/>
<path opacity="0.5" d="M52.1689 14.4502H59.5394C59.5394 14.4502 57.9001 12.0576 56.5956 12.0576C55.2912 12.0576 54.9137 13.6479 54.9137 13.6479C54.9137 13.6479 53.9977 12.9057 53.1497 13.0383C52.3016 13.171 52.1689 14.4502 52.1689 14.4502Z" fill="#EBEBEB"/>
<path opacity="0.5" d="M1.93945 11.5096H9.30988C9.30988 11.5096 7.66271 9.12329 6.36613 9.12329C5.06955 9.12329 4.67948 10.7136 4.67948 10.7136C4.67948 10.7136 3.7635 9.97136 2.91544 10.104C2.06737 10.2367 1.93945 11.5096 1.93945 11.5096Z" fill="#EBEBEB"/>
<path d="M90.3447 14.9952H104.702C104.702 14.9952 102.736 10.6064 100.632 10.3316C98.5285 10.0568 97.5241 13.5928 97.5241 13.5928C97.5241 13.5928 96.1675 12.3436 95.0999 12.3436C94.0323 12.3436 93.2048 13.9892 93.2048 13.9892C93.2048 13.9892 91.0759 12.8616 90.3447 14.9952Z" fill="#EBEBEB"/>
<path d="M12.7773 20.5841H27.1344C27.1344 20.5841 25.1683 16.1938 23.0647 15.9206C20.9611 15.6473 19.9551 19.1881 19.9551 19.1881C19.9551 19.1881 18.5985 17.9389 17.5325 17.9389C16.4665 17.9389 15.6374 19.5844 15.6374 19.5844C15.6374 19.5844 13.5085 18.4505 12.7773 20.5841Z" fill="#EBEBEB"/>
<path opacity="0.5" d="M9.75977 6.2381H19.458C19.458 6.2381 17.7919 3.05904 15.9836 3.01166C14.1754 2.96429 13.2263 5.41846 13.2263 5.41846C13.2263 5.41846 10.4167 3.16011 9.75977 6.2381Z" fill="#EBEBEB"/>
<path opacity="0.5" d="M78.8496 22.1744H88.5479C88.5479 22.1744 86.8817 18.9953 85.0735 18.9479C83.2652 18.9006 82.3161 21.3547 82.3161 21.3547C82.3161 21.3547 79.505 19.0996 78.8496 22.1744Z" fill="#EBEBEB"/>
<path d="M37.0293 29.6001C37.0293 29.6001 38.4506 27.3039 38.5075 25.6898C38.5738 23.9321 37.4983 22.0575 37.4983 22.0575L37.582 21.9912C37.582 21.9912 39.0981 23.9242 38.9544 25.9583C38.8139 27.9277 37.6673 29.6048 37.6673 29.6048L37.0293 29.6001Z" fill="#A6A6A6"/>
<path d="M37.5137 21.9865C37.5137 21.9865 38.4154 21.1764 38.8355 21.1969C39.2556 21.2174 40.0989 22.1745 40.0989 22.2076C40.0989 22.2408 39.3709 21.7023 39.3709 21.7023L39.7973 22.2534L39.1861 21.6881L39.3835 22.1618L39.0282 21.636L39.1277 22.135L38.7929 21.6612L38.965 22.0308L38.6981 21.7323L38.796 21.9992L38.567 21.7623L38.7502 22.1034L38.4423 21.7876L38.567 22.0624C38.567 22.0624 38.4091 21.9044 38.3823 21.8728C38.3554 21.8413 38.4344 22.056 38.4344 22.056L38.1785 21.7939L38.2386 22.0292L38.1075 21.8918L38.1327 22.0292L38.0017 21.8918L38.0301 22.0166L37.8311 21.8855L37.858 21.9518L37.5137 21.9865Z" fill="#A6A6A6"/>
<path d="M37.5283 21.9802C37.5283 21.9802 38.9733 22.1382 39.3208 22.3972C39.6682 22.6562 40.1736 23.5516 40.1736 23.5516L39.4455 22.8078L39.8072 23.5516L39.2876 22.762L39.3934 23.4189L39.0128 22.6767L39.1565 23.3273L38.8818 22.5851L38.9718 23.2942L38.6385 22.5203L38.7301 23.0778L38.449 22.454L38.5533 23.0052L38.16 22.2787L38.3053 22.8962L38.0242 22.2329L38.0621 22.5488L37.8489 22.1539L37.9247 22.4177L37.6862 22.0797L37.7194 22.2929L37.5283 21.9802Z" fill="#A6A6A6"/>
<path d="M37.5283 21.9866C37.5283 21.9866 37.6073 20.99 37.8694 20.761C38.1316 20.532 38.9907 20.2683 38.9907 20.2683L38.4759 20.5178L38.9876 20.472L38.2927 20.6157L38.8502 20.6489L38.25 20.7216L38.8186 20.8716L38.1869 20.8258L38.5217 20.9442L38.1016 20.9837L38.5864 21.0485L38.0163 21.1274H38.4159L37.8584 21.2711C37.9882 21.2609 38.1186 21.2609 38.2485 21.2711C38.1073 21.328 37.9615 21.3724 37.8126 21.4038L38.0511 21.4354L37.7794 21.4812L37.9831 21.5601H37.721L37.9247 21.6138L37.7005 21.6723L37.7921 21.7118L37.6215 21.7939L37.5283 21.9866Z" fill="#A6A6A6"/>
<path d="M37.539 21.9739C37.539 21.9739 37.0841 22.7319 37.1884 23.2578C37.2926 23.7837 37.8848 24.7202 37.8848 24.7202L37.5895 24.1233L38.0017 24.5039L37.539 23.9069L38.0017 24.1754L37.5879 23.7553L37.9622 23.8943L37.6211 23.5784L38.0017 23.7221L37.6211 23.4268L37.9622 23.5121L37.5169 23.2247L37.9369 23.3542L37.6211 23.1583L37.9227 23.2041L37.539 22.9783L37.8548 22.9909L37.4742 22.7493L37.828 22.8409L37.4805 22.6372L37.7695 22.6561C37.7695 22.6561 37.5327 22.4792 37.52 22.4792C37.5074 22.4792 37.7427 22.5187 37.7427 22.5187L37.5421 22.3024L37.6511 22.2834L37.539 21.9739Z" fill="#A6A6A6"/>
<path d="M37.5281 21.9865C37.5281 21.9865 37.1001 21.0073 36.6895 20.7973C36.2789 20.5872 35.543 20.6046 35.543 20.6046L36.0641 20.7183L35.5903 20.7578L36.3642 20.832L35.6251 20.8983L36.5395 20.9978L35.7214 21.0594L36.4084 21.1779L36.0452 21.2695L36.5805 21.241L36.1289 21.3326L36.7148 21.399L36.3042 21.5H37.0133L36.6011 21.6169H37.0385L36.7685 21.6864C36.7685 21.6864 37.1522 21.7701 37.1838 21.7701C37.2154 21.7701 36.9564 21.7875 36.9564 21.7875L37.3797 21.8743L37.2359 21.8885L37.5281 21.9865Z" fill="#A6A6A6"/>
<path d="M37.5278 21.9738C37.5278 21.9738 37.542 20.761 37.3699 20.4514C37.231 20.2483 37.0272 20.0985 36.7919 20.0266L37.1077 20.2682L36.7919 20.2272L37.1156 20.4246L36.7666 20.3977L37.1851 20.5825L36.844 20.543L37.1598 20.6867L36.9498 20.6962L37.242 20.8668L36.994 20.8099L37.2735 21.0058L37.0145 20.9363L37.3304 21.1542L37.0856 21.0831L37.3873 21.2995L37.1646 21.2332L37.392 21.3816L37.2562 21.3548L37.4362 21.5032L37.2783 21.4337L37.4567 21.6169L37.3478 21.5775L37.5278 21.9738Z" fill="#A6A6A6"/>
<path d="M37.5392 22.0087C37.5392 22.0087 36.1668 21.5775 35.5493 21.7892C34.9318 22.0008 34.6396 22.7367 34.6396 22.7367L35.0771 22.2866L34.9381 22.773L35.3314 22.1903L35.2224 22.7336L35.4846 22.1856L35.393 22.7509L35.6946 22.1555L35.6283 22.773L35.9252 22.1208L35.8478 22.5946L36.1447 22.0529L35.9868 22.6846L36.3279 22.0529L36.2331 22.6072C36.2331 22.5819 36.4779 22.0829 36.4779 22.0829L36.4337 22.4461L36.6216 22.105L36.5853 22.3672L36.8048 22.0513L36.7306 22.3482L36.9501 22.0513L36.9154 22.2298C36.9897 22.1618 37.0677 22.098 37.1491 22.0387C37.1681 22.0308 37.5392 22.0087 37.5392 22.0087Z" fill="#A6A6A6"/>
<path d="M37.5389 21.9866C37.5389 21.9866 36.7493 22.1919 36.5045 22.5377C36.2597 22.8836 36.4824 24.1865 36.4824 24.1865V23.4332L36.6403 23.7917L36.5045 23.2405L36.7761 23.6258L36.5313 23.0131L36.8203 23.4648L36.6103 22.8567L36.8804 23.2942L36.7224 22.7083L36.9451 23.1631L36.8614 22.6072L37.0193 22.9436L36.9451 22.5109L37.0841 22.7667L37.0414 22.3924L37.1267 22.5977L37.1662 22.3309L37.1757 22.4761L37.2641 22.1903V22.3356L37.3636 22.1429L37.5389 21.9866Z" fill="#A6A6A6"/>
<path d="M36.8967 29.6001H38.4981C38.4981 29.6001 38.3954 29.0315 39.1298 28.7615C38.9761 28.7758 38.8279 28.8262 38.6973 28.9085C38.5667 28.9908 38.4573 29.1028 38.3781 29.2352C38.3781 29.2352 38.7365 28.2735 39.5151 28.0982C39.2251 28.1626 38.9532 28.291 38.7193 28.4741C38.4854 28.6572 38.2954 28.8903 38.1633 29.1563C38.1633 29.1563 38.0053 28.3145 39.1598 27.8487C39.1598 27.8487 38.1175 27.9276 37.7211 29.2274C37.7211 29.2274 37.9311 28.0982 37.0657 27.626C37.0657 27.626 37.6074 28.1598 37.5284 28.8325C37.5284 28.8325 37.2931 28.0113 36.2871 28.0429C36.2871 28.0429 37.2663 28.3588 37.3452 29.022C37.3452 29.022 37.0041 28.4977 36.4435 28.4804C36.4435 28.4804 36.9425 28.7157 37.0215 28.9541C37.0215 28.9541 36.7056 28.6651 36.4356 28.8136C36.4229 28.8215 37.0025 28.9004 36.8967 29.6001Z" fill="#A6A6A6"/>
<path d="M14.9336 29.6002C14.9336 29.6002 15.9585 27.942 16.0012 26.7749C16.0486 25.5115 15.2716 24.147 15.2716 24.147L15.3316 24.0996C15.3316 24.0996 16.4276 25.4957 16.3233 26.9644C16.2223 28.3857 15.3947 29.6002 15.3947 29.6002H14.9336Z" fill="#A6A6A6"/>
<path d="M15.2822 24.0996C15.2822 24.0996 15.9345 23.5137 16.2377 23.5327C16.5409 23.5516 17.1537 24.2386 17.1537 24.2623C17.1537 24.286 16.6262 23.8975 16.6262 23.8975L16.9341 24.2955L16.4935 23.888L16.6357 24.2291L16.3798 23.8501L16.4509 24.2102L16.2077 23.8643L16.3309 24.1296L16.1366 23.9149L16.2077 24.106L16.0497 23.9354L16.1824 24.1818L15.9597 23.9543L16.0497 24.1533L15.9171 24.0159C15.8981 23.997 15.955 24.1486 15.955 24.1486L15.7702 23.9591L15.8129 24.1296L15.7181 24.0301L15.7371 24.1296L15.6423 24.0301L15.6628 24.1202L15.5191 24.0254L15.5381 24.0728L15.2822 24.0996Z" fill="#A6A6A6"/>
<path d="M15.2891 24.0947C15.2891 24.0947 16.333 24.2053 16.5841 24.3948C16.8352 24.5843 17.2016 25.2302 17.2016 25.2302L16.682 24.6917L16.9426 25.2302L16.5683 24.6569L16.6441 25.1307L16.3661 24.5954L16.4704 25.0691L16.2714 24.5338L16.3377 25.0454L16.0961 24.4864L16.1624 24.8891L15.9587 24.439L16.0345 24.837L15.7597 24.3142L15.8639 24.7612L15.6618 24.2874L15.6886 24.5211L15.5307 24.2353L15.586 24.4264L15.4107 24.1768L15.4344 24.3348L15.2891 24.0947Z" fill="#A6A6A6"/>
<path d="M15.292 24.0996C15.292 24.0996 15.3488 23.3794 15.5399 23.2136C15.731 23.0478 16.3485 22.8567 16.3485 22.8567L15.9806 23.0383L16.3485 23.0051L15.8479 23.1094L16.2506 23.1331L15.8163 23.1852L16.2269 23.2941L15.7721 23.261L16.0137 23.3463L15.7105 23.3747L16.0611 23.4221L15.6489 23.4789H15.9379L15.5336 23.5816C15.6277 23.5745 15.7222 23.5745 15.8163 23.5816C15.7142 23.6233 15.6085 23.6555 15.5005 23.6779L15.6742 23.7016L15.4768 23.7348L15.6252 23.7916H15.4341L15.5826 23.8295L15.4246 23.8722L15.491 23.9006L15.3678 23.959L15.292 24.0996Z" fill="#A6A6A6"/>
<path d="M15.3011 24.0837C15.3011 24.0837 14.9727 24.6317 15.0485 25.0108C15.1243 25.3898 15.5507 26.0673 15.5507 26.0673L15.3375 25.6362L15.636 25.911L15.3011 25.4798L15.636 25.6741L15.3359 25.3708L15.6075 25.4703L15.3612 25.2382L15.636 25.3424L15.3612 25.1292L15.6075 25.1908L15.2917 24.9823L15.5949 25.0755L15.3627 24.935L15.5807 24.9681L15.3075 24.8102L15.5333 24.8197L15.2601 24.6475L15.5159 24.7139L15.2648 24.567L15.4733 24.5812C15.4733 24.5812 15.3027 24.4533 15.2933 24.4533C15.2838 24.4533 15.4512 24.4817 15.4512 24.4817L15.3059 24.3238L15.3848 24.3096L15.3011 24.0837Z" fill="#A6A6A6"/>
<path d="M15.2924 24.0995C15.2924 24.0995 14.9844 23.392 14.6875 23.2404C14.4228 23.1407 14.1412 23.0935 13.8584 23.1014L14.2358 23.1836L13.89 23.212L14.4506 23.2657L13.9153 23.3131L14.5754 23.3857L13.9847 23.4299L14.4822 23.5152L14.2201 23.5815L14.6117 23.5642L14.2864 23.6321L14.7096 23.6795L14.4127 23.7521H14.9244L14.6275 23.8374H14.9434L14.7475 23.8879C14.7475 23.8879 15.0255 23.9479 15.0476 23.9479C15.0697 23.9479 14.8897 23.9606 14.8897 23.9606L15.196 24.0237L15.0918 24.0332L15.2924 24.0995Z" fill="#A6A6A6"/>
<path d="M15.2887 24.0837C15.2887 24.0837 15.2998 23.2072 15.1703 22.9783C15.0696 22.8322 14.9228 22.7243 14.7533 22.6719L14.9776 22.8456L14.7533 22.8172L14.9871 22.9593L14.7344 22.9403L15.0376 23.073L14.7912 23.0446L15.0186 23.1488H14.8607L15.0723 23.272L14.8923 23.2309L15.0944 23.3731L14.9081 23.3225L15.1355 23.4805L14.9681 23.4268L15.186 23.5847L15.0281 23.5357L15.186 23.6431L15.0881 23.6242L15.2176 23.7316L15.1071 23.681L15.2366 23.8137L15.1576 23.7853L15.2887 24.0837Z" fill="#A6A6A6"/>
<path d="M15.3021 24.1155C15.3021 24.1155 14.3103 23.7996 13.865 23.9575C13.4196 24.1155 13.208 24.6366 13.208 24.6366L13.5239 24.3113L13.4228 24.6619L13.7071 24.2418L13.6281 24.6335L13.8176 24.2387L13.7513 24.6461L13.9692 24.2165L13.9218 24.6619L14.1366 24.1881L14.0798 24.5292L14.2945 24.1392L14.1777 24.5987L14.424 24.1392L14.3546 24.5387C14.3546 24.5198 14.5314 24.1597 14.5314 24.1597L14.4998 24.4219L14.6357 24.1755L14.6104 24.365L14.7683 24.1392L14.7146 24.3524L14.8726 24.1392L14.8473 24.2671C14.9013 24.2185 14.9577 24.1726 15.0163 24.1297C15.0336 24.1281 15.3021 24.1155 15.3021 24.1155Z" fill="#A6A6A6"/>
<path d="M15.3016 24.0996C15.3016 24.0996 14.7315 24.2465 14.5546 24.4976C14.3777 24.7487 14.5388 25.6883 14.5388 25.6883V25.1451L14.6588 25.4041L14.5609 25.0061L14.7568 25.2841L14.5799 24.8419L14.7883 25.1672L14.6304 24.7282L14.8231 25.044L14.7031 24.6208L14.861 24.9493L14.801 24.5481L14.9178 24.7913L14.8641 24.4755L14.9652 24.6587L14.9447 24.3997L15.0063 24.5576L15.0347 24.3633L15.0426 24.4692L15.1026 24.2417V24.346L15.1753 24.207L15.3016 24.0996Z" fill="#A6A6A6"/>
<path d="M14.8318 29.6003H15.9879C15.9879 29.6003 15.9136 29.1897 16.4443 28.9938C16.3325 29.0047 16.2249 29.0418 16.1302 29.1022C16.0355 29.1626 15.9564 29.2445 15.8994 29.3413C15.8994 29.3413 16.1584 28.6464 16.7206 28.5201C16.5113 28.5667 16.315 28.6595 16.1461 28.7917C15.9772 28.924 15.8401 29.0923 15.7447 29.2844C15.7447 29.2844 15.6309 28.6764 16.4648 28.3369C16.4648 28.3369 15.7115 28.3937 15.4256 29.3318C15.4256 29.3318 15.5836 28.5169 14.9519 28.1758C14.9519 28.1758 15.3435 28.5611 15.2867 29.0475C15.2225 28.8659 15.0992 28.7112 14.9365 28.6081C14.7739 28.505 14.5813 28.4595 14.3896 28.479C14.3896 28.479 15.0972 28.7064 15.154 29.1865C15.0806 29.0778 14.9843 28.9865 14.8719 28.9188C14.7595 28.8512 14.6338 28.8089 14.5034 28.7949C14.5034 28.7949 14.8634 28.9654 14.9203 29.136C14.9203 29.136 14.6929 28.9275 14.497 29.0349C14.497 29.0381 14.914 29.0949 14.8318 29.6003Z" fill="#A6A6A6"/>
<path d="M21.7352 29.6112H22.8265C22.8265 29.6112 20.9693 28.0319 20.6771 26.4827C20.3849 24.9334 20.9124 24.2559 20.9124 24.2559L20.8003 24.188C20.4326 24.9058 20.3211 25.7276 20.4844 26.5174C20.7671 27.8171 21.7352 29.6112 21.7352 29.6112Z" fill="#A6A6A6"/>
<path d="M20.8039 24.3142C20.8039 24.3142 19.8137 24.6822 19.4995 24.9743C19.1852 25.2665 19.1094 26.4525 19.1094 26.4525L19.3194 25.6266L19.2294 26.3325L19.4837 25.4244L19.4616 26.3167L19.6337 25.1923L19.6495 26.1067L19.7616 25.1386L19.8437 25.8777L19.8816 25.088L19.9574 25.6882L20.0475 24.9601L20.0238 25.6124L20.2275 24.8622L20.1896 25.336L20.4107 24.818L20.3317 25.2081L20.4897 24.7201L20.4517 24.9901L20.8039 24.3142Z" fill="#A6A6A6"/>
<path d="M20.8035 24.3142C20.8035 24.3142 21.3815 24.6522 21.4652 25.1244C21.5489 25.5966 21.3452 26.5647 21.3452 26.5647L21.3373 25.7987L21.1446 26.3088L21.2551 25.5666L21.0672 26.1146L21.1446 25.3834L20.9693 25.7687L21.0893 25.1465L20.9014 25.4386L21.0372 24.9285L20.8414 25.2286L20.9551 24.6885L20.7971 24.9443L20.873 24.5321L20.7529 24.6901L20.8351 24.4279L20.8035 24.3142Z" fill="#A6A6A6"/>
<path d="M20.7597 24.3998C20.7597 24.3998 20.3696 23.6954 19.7474 23.479C19.1251 23.2627 18.4492 23.5833 18.4492 23.5833L19.1773 23.5391L18.6893 23.7254L19.3936 23.6591L18.8535 23.9434L19.6037 23.7554C19.6037 23.7554 19.1299 24.2213 19.1536 24.1913C19.1773 24.1613 19.7316 23.8091 19.7316 23.8091L19.4157 24.3113L19.9179 23.9023L19.6037 24.3998L20.0695 24.0255L19.6937 24.4614L20.2496 24.1913L19.9574 24.4835L20.3696 24.3113L20.1896 24.4835L20.5417 24.3113L20.7597 24.3998Z" fill="#A6A6A6"/>
<path d="M20.8039 24.3144C20.8039 24.3144 20.8639 23.1584 20.6017 22.6183C20.3396 22.0782 19.4473 21.8081 19.4473 21.8081L20.0474 22.2819L19.4473 22.0482L20.1279 22.4161C20.1279 22.4161 19.5736 22.3182 19.5515 22.3119L20.2116 22.5662L19.5373 22.5519L20.2274 22.702L19.6036 22.7241L20.2574 22.882L19.6036 22.9041L20.4106 23.0699L19.7394 23.0162L20.4106 23.22L19.8437 23.1963L20.4754 23.4142L19.9511 23.37L20.5054 23.5421L20.1674 23.52L20.5812 23.6922L20.2732 23.7064L20.6175 23.8043L20.4043 23.8422L20.6775 23.9543H20.3775L20.6838 24.1123L20.8039 24.3144Z" fill="#A6A6A6"/>
<path d="M20.8037 24.3997C20.8037 24.3997 21.3896 24.0838 21.8618 24.1438C22.334 24.2038 22.942 24.7297 22.942 24.7297L22.552 24.5339L22.7399 24.8576L22.424 24.496L22.5283 24.9698L22.3182 24.5197L22.304 24.924L22.0861 24.4818V24.9019L21.8934 24.4865L21.9092 24.9745L21.6755 24.4865L21.6455 24.8324L21.5333 24.4265L21.4781 24.7123L21.3754 24.4565L21.2933 24.6823L21.2333 24.3965L21.1796 24.6239L21.0753 24.4186L20.8037 24.3997Z" fill="#A6A6A6"/>
<path d="M20.8097 24.2764C20.8097 24.2764 20.737 23.2262 20.9676 22.7761C21.1982 22.326 21.9152 21.8459 21.9152 21.8459L21.484 22.3197L21.9578 22.1918L21.3766 22.4919H21.9199L21.3135 22.6198C21.4466 22.683 21.5844 22.7358 21.7257 22.7777C21.7699 22.7777 21.2377 22.7098 21.2377 22.7098L21.6167 22.9799L21.1555 22.8598L21.5677 23.0809L21.1319 23.013L21.4667 23.1709L21.0718 23.1552C21.0718 23.1552 21.3466 23.2862 21.3577 23.2862L21.0134 23.2673L21.3135 23.4552L20.9976 23.4363L21.2677 23.5642L20.9929 23.5563L21.1777 23.6242L20.9566 23.6763L21.1698 23.7L20.9487 23.7553L21.1476 23.7963L20.9408 23.8263L21.0876 23.8753L20.8965 23.91L21.0087 23.9764L20.8618 24.0253L20.9408 24.0601L20.8097 24.2764Z" fill="#A6A6A6"/>
<path d="M20.8037 24.3996C20.8037 24.3996 21.2333 23.4347 21.7118 23.1362C22.1903 22.8377 23.2658 22.9514 23.2658 22.9514L22.3925 23.1094L23.0399 23.362L22.2235 23.2547L22.7809 23.52L22.0355 23.3399L22.5393 23.6432L21.8018 23.4236L22.3877 23.79L21.6676 23.52L22.1287 23.9416L21.5665 23.61L21.9992 24.0159L21.4844 23.7L21.7686 24.0948L21.3786 23.8137L21.6186 24.1469L21.2901 23.9085L21.4844 24.1959L21.2064 24.038L21.3786 24.2828L21.088 24.1154L21.2791 24.3207C21.2791 24.3207 21.0264 24.2006 21.009 24.2006C20.9916 24.2006 21.1211 24.3207 21.1211 24.3207L20.9474 24.2828L20.8037 24.3996Z" fill="#A6A6A6"/>
<path d="M21.0732 29.6113C21.0732 29.6113 21.1412 29.1849 20.5442 28.7221C20.5442 28.7221 21.0053 28.9022 21.1348 29.2686C21.1178 29.0619 21.0374 28.8656 20.9045 28.7065C20.7716 28.5473 20.5928 28.4331 20.3926 28.3794C20.5982 28.3973 20.7941 28.4751 20.956 28.6031C21.118 28.731 21.2389 28.9036 21.3038 29.0996C21.3038 29.0996 21.258 28.3099 20.6342 27.9578C20.6342 27.9578 21.2375 28.1868 21.5344 29.0632C21.5344 29.0632 21.9766 28.4315 22.6857 28.3431C22.6857 28.3431 21.9908 28.6226 21.9813 29.1612C21.9813 29.1612 22.4914 28.4773 23.1215 28.5295C23.1215 28.5295 22.4014 28.7221 22.4014 29.2322C22.4772 29.0987 22.5892 28.9894 22.7244 28.9167C22.8596 28.8441 23.0126 28.8111 23.1658 28.8216C23.1658 28.8216 22.3761 29.1375 22.7109 29.6113H21.0732Z" fill="#A6A6A6"/>
<path d="M42.9101 29.6113H43.845C43.845 29.6113 42.2658 28.2689 42.0131 26.9455C41.7604 25.6221 42.2152 25.0504 42.2152 25.0504L42.1189 24.9919C41.8063 25.6039 41.7116 26.3041 41.8504 26.9771C42.0857 28.0841 42.9101 29.6113 42.9101 29.6113Z" fill="#A6A6A6"/>
<path d="M42.1174 25.0977C42.1174 25.0977 41.2741 25.4135 41.0119 25.6599C40.7498 25.9062 40.6787 26.9233 40.6787 26.9233L40.8587 26.2189L40.7814 26.8206L40.9993 26.0468L40.9788 26.808L41.1272 25.8494L41.1399 26.6295L41.2346 25.8036L41.3057 26.4353L41.3373 25.7673L41.402 26.2789L41.4778 25.6583L41.4589 26.2142L41.631 25.5825L41.5994 25.9852L41.7874 25.543L41.721 25.8762L41.8616 25.4609L41.83 25.6899L42.1174 25.0977Z" fill="#A6A6A6"/>
<path d="M42.1178 25.0977C42.1178 25.0977 42.6105 25.3851 42.68 25.7878C42.7495 26.1905 42.579 27.0165 42.579 27.0165V26.3642L42.421 26.7985L42.5142 26.1668L42.3563 26.6406L42.4226 26.0168L42.2726 26.3453L42.3752 25.8146L42.2173 26.0642L42.3326 25.6299L42.1652 25.8857L42.2615 25.4246L42.1336 25.6425L42.1984 25.2903L42.0957 25.4309L42.1652 25.2082L42.1178 25.0977Z" fill="#A6A6A6"/>
<path d="M42.0797 25.1734C42.0797 25.1734 41.7465 24.5733 41.2158 24.3838C40.6852 24.1943 40.1104 24.4722 40.1104 24.4722L40.731 24.4343L40.3141 24.5922L40.9158 24.5354L40.4546 24.7786L41.0942 24.6207C41.0942 24.6207 40.6915 25.0171 40.7105 24.9918C40.7294 24.9665 41.2032 24.6665 41.2032 24.6665L40.9284 25.0944L41.3564 24.7454L41.0942 25.1702L41.4906 24.8544L41.1748 25.2255L41.6486 24.995L41.399 25.2445L41.7496 25.0976L41.5917 25.2445L41.8918 25.0976L42.0797 25.1734Z" fill="#A6A6A6"/>
<path d="M42.1176 25.0978C42.1176 25.0978 42.1697 24.1124 41.9454 23.6528C41.7212 23.1932 40.96 22.9626 40.96 22.9626L41.4716 23.3654L40.96 23.1664L41.5411 23.4822C41.5411 23.4822 41.0673 23.3985 41.05 23.3922L41.6122 23.6101L41.0373 23.5959L41.6248 23.7239L41.0942 23.7444L41.6517 23.8723L41.0942 23.8913L41.7812 24.0318L41.2095 23.986L41.7812 24.1597L41.2995 24.1408L41.8428 24.3256L41.3958 24.2876L41.8696 24.4345L41.5822 24.4156L41.9344 24.5624L41.6722 24.5751L41.966 24.6588L41.7828 24.6904L42.0165 24.7851H41.7543L42.0165 24.9209L42.1176 25.0978Z" fill="#A6A6A6"/>
<path d="M42.1172 25.175C42.1172 25.175 42.6162 24.8987 43.0189 24.9571C43.4217 25.0155 43.9397 25.4561 43.9397 25.4561L43.6064 25.2887L43.7644 25.5635L43.4896 25.2571L43.578 25.6599L43.3995 25.2761L43.3869 25.622L43.2006 25.2445V25.603L43.0426 25.2445L43.0553 25.6599L42.8579 25.2445L42.8326 25.5383L42.7394 25.1892L42.692 25.4324L42.6052 25.2145L42.5341 25.4056L42.4836 25.1624L42.4378 25.3566L42.3493 25.1829L42.1172 25.175Z" fill="#A6A6A6"/>
<path d="M42.1227 25.0662C42.1227 25.0662 42.0612 24.1707 42.2522 23.7869C42.4433 23.4032 43.064 22.9973 43.064 22.9973L42.6976 23.4063L43.1035 23.2974L42.6076 23.5532H43.0703L42.5523 23.6622C42.6658 23.7183 42.7836 23.7652 42.9045 23.8027C42.9424 23.8027 42.4891 23.7459 42.4891 23.7459L42.805 23.9749L42.4118 23.8738L42.7639 24.0617L42.3928 24.0049L42.6771 24.136L42.3423 24.1218C42.3423 24.1218 42.576 24.2339 42.5855 24.2339L42.2901 24.2181L42.546 24.376L42.2838 24.3602L42.5144 24.4692H42.2807L42.4386 24.5276L42.2491 24.5718L42.4323 24.5908L42.2428 24.6382L42.4118 24.6745L42.2365 24.6998L42.3612 24.7408L42.2033 24.7692L42.2996 24.8277L42.1749 24.8687L42.2412 24.8972L42.1227 25.0662Z" fill="#A6A6A6"/>
<path d="M42.1172 25.1751C42.1172 25.1751 42.4836 24.3523 42.891 24.1028C43.2985 23.8533 44.2145 23.9449 44.2145 23.9449L43.4706 24.0744L44.0234 24.2907L43.3269 24.1991L43.8007 24.425L43.169 24.2671L43.5985 24.5261L42.9668 24.3381L43.4643 24.654L42.8515 24.4234L43.2448 24.7819L42.771 24.4945L43.1406 24.8403L42.7015 24.5719L42.9431 24.9067L42.6115 24.6682L42.8152 24.9525L42.5357 24.7487L42.7015 24.9935L42.4646 24.8545L42.6115 25.0646L42.3636 24.9224L42.5215 25.0962C42.5215 25.0962 42.3067 24.9935 42.2909 24.9935C42.2751 24.9935 42.3872 25.0962 42.3872 25.0962L42.2388 25.0646L42.1172 25.1751Z" fill="#A6A6A6"/>
<path d="M42.3466 29.6111C42.3466 29.6111 42.405 29.2479 41.8965 28.8546C41.8965 28.8546 42.2897 29.0126 42.4003 29.3189C42.3858 29.1429 42.3174 28.9756 42.2044 28.8399C42.0913 28.7043 41.9391 28.6068 41.7686 28.5609C41.9438 28.5765 42.1107 28.6429 42.2488 28.7521C42.3868 28.8612 42.4899 29.0083 42.5455 29.1752C42.5455 29.1752 42.5076 28.4993 41.9754 28.2024C41.9754 28.2024 42.4887 28.3982 42.743 29.1389C42.743 29.1389 43.1188 28.5972 43.7237 28.5246C43.7237 28.5246 43.1299 28.763 43.122 29.221C43.122 29.221 43.5579 28.6398 44.0948 28.6856C44.0948 28.6856 43.4805 28.8436 43.4805 29.2858C43.5452 29.1719 43.6408 29.0786 43.7561 29.0166C43.8715 28.9546 44.002 28.9264 44.1327 28.9352C44.1327 28.9352 43.4568 29.2036 43.7442 29.6111H42.3466Z" fill="#A6A6A6"/>
<path d="M5.46883 29.6112H6.47956C6.47956 29.6112 4.7708 28.1614 4.50232 26.7338C4.23385 25.3061 4.72026 24.6807 4.72026 24.6807L4.61603 24.6191C4.27739 25.2817 4.17489 26.0399 4.32545 26.7685C4.58445 27.9609 5.46883 29.6112 5.46883 29.6112Z" fill="#A6A6A6"/>
<path d="M4.61914 24.7375C4.61914 24.7375 3.7079 25.0755 3.41574 25.3471C3.12357 25.6188 3.05566 26.7069 3.05566 26.7069L3.25781 25.9457L3.17411 26.5948L3.40942 25.7593L3.38889 26.5805L3.54682 25.5446L3.56103 26.3879L3.66526 25.4972L3.74106 26.1763L3.77581 25.4545L3.84372 26.0073L3.92742 25.3377L3.90689 25.9378L4.09324 25.2477L4.04744 25.6835L4.25117 25.2097L4.17852 25.5682L4.33645 25.1197L4.3017 25.3693L4.61914 24.7375Z" fill="#A6A6A6"/>
<path d="M4.61948 24.7375C4.61948 24.7375 5.15169 25.0534 5.22749 25.483C5.3033 25.9125 5.11694 26.808 5.11694 26.808V26.1036L4.93849 26.5774L5.04114 25.8936L4.86742 26.3974L4.93849 25.7246L4.78056 26.0799L4.89111 25.5066L4.71897 25.7767L4.84373 25.3029L4.6637 25.5793L4.76793 25.0818L4.62895 25.3171L4.69844 24.9381L4.58789 25.096L4.6637 24.8544L4.61948 24.7375Z" fill="#A6A6A6"/>
<path d="M4.57881 24.8198C4.57881 24.8198 4.22032 24.1707 3.64705 23.9717C3.07378 23.7727 2.45312 24.0681 2.45312 24.0681L3.12273 24.027L2.67422 24.1991L3.32172 24.1376L2.82583 24.3997L3.51597 24.226C3.51597 24.226 3.08009 24.654 3.1022 24.6271C3.12431 24.6003 3.63284 24.275 3.63284 24.275L3.33593 24.7377L3.79866 24.3602L3.51597 24.8198L3.94395 24.4755L3.59809 24.8735L4.10977 24.6255L3.83972 24.894L4.22032 24.7361L4.0545 24.894L4.37825 24.7361L4.57881 24.8198Z" fill="#A6A6A6"/>
<path d="M4.61932 24.7376C4.61932 24.7376 4.67459 23.6748 4.43296 23.1773C4.19134 22.6798 3.37012 22.4319 3.37012 22.4319L3.92286 22.8662L3.37012 22.653L4.00182 22.9909C4.00182 22.9909 3.49172 22.9009 3.47119 22.8946L4.07447 23.1362L3.45224 23.1236L4.08394 23.261L3.51067 23.2815L4.11079 23.4205L3.51067 23.441L4.25293 23.599L3.63543 23.55L4.25293 23.7364L3.73177 23.7158L4.31768 23.9164L3.83442 23.8753L4.3461 24.0333L4.03025 24.0127L4.40927 24.1707L4.12658 24.1833L4.44244 24.2733L4.24661 24.3081L4.49771 24.4123H4.22608L4.50877 24.556L4.61932 24.7376Z" fill="#A6A6A6"/>
<path d="M4.61914 24.8197C4.61914 24.8197 5.15767 24.5228 5.59355 24.586C6.02942 24.6491 6.5869 25.1245 6.5869 25.1245L6.22841 24.9445L6.40055 25.2414L6.10049 24.9097L6.19683 25.3456L6.00415 24.9302L5.98994 25.303L5.78937 24.8955V25.2824L5.63145 24.8955L5.64566 25.3456L5.43246 24.8955L5.40403 25.2114L5.30138 24.8387L5.24927 25.1024L5.15293 24.8734L5.07713 25.0803L5.02185 24.8181L4.9729 25.0266L4.87656 24.8387L4.61914 24.8197Z" fill="#A6A6A6"/>
<path d="M4.6259 24.7028C4.6259 24.7028 4.55799 23.7363 4.76488 23.3225C4.97176 22.9087 5.64137 22.4666 5.64137 22.4666L5.24497 22.9072L5.68243 22.7903L5.15337 23.0667H5.654L5.09336 23.1835C5.21563 23.2467 5.34293 23.2995 5.47396 23.3415C5.51503 23.3415 5.02545 23.2799 5.02545 23.2799L5.37289 23.5278L4.94965 23.4188L5.32867 23.6226L4.92912 23.5594L5.2355 23.7015L4.87384 23.6873C4.87384 23.6873 5.12495 23.8089 5.136 23.8089L4.82015 23.7916L5.09494 23.9637L4.81225 23.9463L5.06178 24.0632H4.80909L4.97808 24.1248L4.77435 24.1737L4.97176 24.1943L4.76803 24.2464L4.95123 24.2843L4.76014 24.3111L4.89595 24.3569L4.71908 24.3869L4.82331 24.4501L4.68907 24.4943L4.76014 24.5259L4.6259 24.7028Z" fill="#A6A6A6"/>
<path d="M4.61914 24.8198C4.61914 24.8198 5.01396 23.9339 5.45457 23.6638C5.89519 23.3938 6.87591 23.4932 6.87591 23.4932L6.07364 23.6322L6.66902 23.866L5.92677 23.768L6.43845 24.0112L5.75147 23.8533L6.21578 24.1329L5.53827 23.926L6.0768 24.2624L5.41351 24.0144L5.83833 24.3997L5.32033 24.0839L5.71831 24.4566L5.24453 24.166L5.50669 24.5292L5.15293 24.275L5.37245 24.5814L5.07081 24.3634L5.24927 24.6272L4.99501 24.4771L5.15293 24.703L4.88446 24.545L5.06133 24.733C5.06133 24.733 4.8276 24.6224 4.81181 24.6224C4.79602 24.6224 4.91604 24.733 4.91604 24.733L4.75812 24.6982L4.61914 24.8198Z" fill="#A6A6A6"/>
<path d="M4.8672 29.6113C4.8672 29.6113 4.92879 29.218 4.38079 28.7932C4.38079 28.7932 4.80561 28.9511 4.92406 29.2954C4.90835 29.1052 4.83421 28.9245 4.71179 28.778C4.58937 28.6316 4.42467 28.5266 4.24023 28.4774C4.42952 28.494 4.6098 28.5656 4.75882 28.6835C4.90785 28.8013 5.01909 28.9603 5.07882 29.1407C5.07882 29.1407 5.03776 28.411 4.46291 28.0889C4.46291 28.0889 5.01881 28.3005 5.29202 29.1012C5.29202 29.1012 5.69947 28.5153 6.35171 28.4379C6.35171 28.4379 5.71053 28.6953 5.70263 29.1912C5.70263 29.1912 6.17641 28.5595 6.75126 28.6132C6.75126 28.6132 6.08955 28.7901 6.08955 29.2591C6.1596 29.1363 6.26284 29.0358 6.38742 28.969C6.51201 28.9023 6.65289 28.872 6.7939 28.8817C6.7939 28.8817 6.06271 29.1722 6.37382 29.6113H4.8672Z" fill="#A6A6A6"/>
<path d="M0.614258 29.6286C0.614258 29.6286 7.19189 28.6811 10.3678 28.5026C13.5437 28.3241 26.3863 29.0854 26.8064 29.1612C27.2264 29.237 39.4926 28.8374 42.5358 28.7142C45.5791 28.591 95.5991 29.6413 95.5991 29.6413L0.614258 29.6286Z" fill="#A6A6A6"/>
<path d="M0 29.6175L13.3306 29.5796L26.6611 29.5654L53.3207 29.5386L79.9803 29.5654L93.3108 29.5796L106.641 29.6175L93.3108 29.657L79.9803 29.6712L53.3207 29.6965L26.6611 29.6712L13.3306 29.657L0 29.6175Z" fill="#A6A6A6"/>
<path opacity="0.5" d="M43.0737 14.2183C45.1688 12.1232 45.1688 8.72642 43.0737 6.63135C40.9787 4.53628 37.5819 4.53628 35.4868 6.63135C33.3917 8.72642 33.3917 12.1232 35.4868 14.2183C37.5819 16.3133 40.9787 16.3133 43.0737 14.2183Z" fill="#FFC727"/>
<path d="M39.2795 14.2892C41.4138 14.2892 43.144 12.559 43.144 10.4248C43.144 8.29048 41.4138 6.5603 39.2795 6.5603C37.1452 6.5603 35.415 8.29048 35.415 10.4248C35.415 12.559 37.1452 14.2892 39.2795 14.2892Z" fill="#FFC727"/>
<path d="M75.4827 29.2859C75.4297 29.1116 75.4375 28.9245 75.5048 28.7552C75.5798 28.6028 75.6957 28.4743 75.8396 28.3841C75.7578 28.4494 75.6873 28.5279 75.6311 28.6162C75.4211 28.97 75.6785 29.3538 75.6138 29.7217C75.5922 29.8325 75.5371 29.934 75.4558 30.0123C75.3689 30.0869 75.2891 30.1694 75.2174 30.2587C75.1654 30.338 75.1308 30.4274 75.1159 30.521C75.1009 30.6147 75.1059 30.7104 75.1305 30.8019C75.1627 30.9023 75.2154 30.9948 75.2853 31.0736C75.3552 31.1525 75.4407 31.2159 75.5364 31.2599C75.744 31.3783 75.9781 31.4424 76.217 31.4463C76.423 31.4476 76.6236 31.3804 76.7872 31.2552C76.8678 31.1901 76.9354 31.1103 76.9861 31.0199C77.0414 30.9235 77.0841 30.8193 77.1441 30.7261C77.2088 30.625 77.3073 30.55 77.422 30.5145C77.5278 30.4845 77.6368 30.4782 77.7379 30.4561H77.8263C77.9442 30.4626 78.0615 30.4352 78.1643 30.3771C78.2692 30.3098 78.3564 30.2183 78.4185 30.1102C78.4924 29.9937 78.5308 29.8581 78.5291 29.7202C78.522 29.6208 78.5077 29.5221 78.4864 29.4248C78.46 29.3132 78.4499 29.1983 78.4564 29.0837C78.4801 28.9558 78.7091 28.8026 78.7233 28.5341C78.7245 28.3355 78.6644 28.1414 78.5512 27.9782C78.5474 27.8956 78.5309 27.8141 78.5022 27.7366C78.3443 27.296 77.8705 27.0701 77.422 27.0417C77.2225 27.022 77.0217 27.0627 76.8456 27.1586C76.6403 27.2833 76.5645 27.5013 76.4745 27.7113C76.4309 27.8224 76.3684 27.925 76.2897 28.0145C76.2194 28.0894 76.1434 28.1585 76.0623 28.2214L76.0212 28.2499C75.9284 28.3013 75.8387 28.3582 75.7527 28.4204C75.6223 28.5177 75.5225 28.6503 75.4653 28.8026C75.3437 29.1516 75.6122 29.488 75.5143 29.837C75.5143 29.837 75.5143 29.8481 75.5253 29.837C75.5609 29.6528 75.5462 29.4624 75.4827 29.2859ZM77.8105 30.4403C77.9669 30.3955 78.1082 30.3093 78.2195 30.1908C78.3466 30.0593 78.4351 29.8954 78.4754 29.717C78.4883 29.6615 78.4957 29.6049 78.4975 29.548C78.5134 29.6328 78.5177 29.7194 78.5101 29.8054C78.4807 29.987 78.3918 30.1536 78.2575 30.2792C78.1375 30.3874 77.9798 30.4441 77.8184 30.4371L77.8105 30.4403Z" fill="#263238"/>
<path d="M92.6781 38.9951C92.5202 39.0378 87.9672 38.5972 87.8014 38.474C87.7824 38.4613 87.8108 38.2608 87.8014 37.7349C87.7365 37.6278 87.6562 37.5309 87.5629 37.4475C85.941 35.7592 85.7783 35.6124 85.7783 35.6124L88.2072 33.9336L90.1529 36.3436L90.6598 36.9753C90.6598 36.9753 92.397 38.1913 92.566 38.3445C92.735 38.4977 92.8424 38.9541 92.6781 38.9951Z" fill="#D3766A"/>
<path d="M89.6109 35.6662L87.4647 37.3496C87.4647 37.3496 84.8842 34.548 84.3693 34.4675C84.1167 34.4217 79.6947 36.2631 77.697 36.2442C76.2867 36.2268 75.7939 33.8611 75.7939 33.8611L78.8577 33.5199C81.1319 32.7066 83.7755 31.0831 85.2206 31.429C86.7904 31.8017 89.6109 35.6662 89.6109 35.6662Z" fill="#D3766A"/>
<path d="M75.7939 33.8564C75.7939 33.8564 76.2867 36.2253 77.697 36.2395C79.0567 36.2553 81.5551 35.4009 83.0823 34.8703L78.1865 33.5879L75.7939 33.8564Z" fill="#263238"/>
<path d="M75.7935 33.8564C75.7935 33.8564 75.236 35.7515 76.1093 36.6248C76.9827 37.4982 84.0909 38.223 85.2075 38.0004C86.324 37.7777 86.5577 36.0436 85.4286 35.5067C84.3531 34.995 79.6153 34.2591 79.5032 34.1991C79.4332 33.9604 79.4096 33.7106 79.4337 33.4631L78.9125 33.4931L75.7935 33.8564Z" fill="#D3766A"/>
<path d="M79.5084 33.2673L75.794 33.8564C75.794 33.8564 75.1275 36.0058 76.2204 36.718C76.2204 36.718 76.3783 34.8892 79.5037 34.2038C79.51 34.1991 79.3347 33.5121 79.5084 33.2673Z" fill="#FFC727"/>
<path d="M79.1812 33.351C79.1901 33.352 79.1988 33.3548 79.2067 33.3591C79.2145 33.3635 79.2215 33.3693 79.227 33.3764C79.2326 33.3835 79.2368 33.3915 79.2392 33.4002C79.2416 33.4089 79.2423 33.4179 79.2412 33.4268C79.2388 33.4447 79.2296 33.461 79.2154 33.4722C79.2013 33.4834 79.1834 33.4887 79.1654 33.4869C79.1474 33.4848 79.1309 33.4756 79.1197 33.4614C79.1084 33.4472 79.1033 33.4291 79.1054 33.4111C79.1075 33.393 79.1166 33.3766 79.1309 33.3654C79.1451 33.3541 79.1632 33.3489 79.1812 33.351ZM78.2084 34.4218C78.2073 34.4307 78.2079 34.4398 78.2104 34.4484C78.2128 34.4571 78.2169 34.4652 78.2225 34.4722C78.2281 34.4793 78.235 34.4852 78.2429 34.4895C78.2508 34.4939 78.2594 34.4966 78.2684 34.4976C78.2852 34.4979 78.3016 34.4919 78.3143 34.4809C78.327 34.4698 78.3351 34.4544 78.3371 34.4376C78.3391 34.4209 78.3347 34.404 78.325 34.3903C78.3152 34.3766 78.3006 34.367 78.2842 34.3634C78.2664 34.3611 78.2484 34.366 78.2342 34.3769C78.22 34.3879 78.2107 34.404 78.2084 34.4218ZM77.4377 34.3333C77.4362 34.3467 77.4387 34.3603 77.4449 34.3722C77.4511 34.3842 77.4607 34.394 77.4725 34.4005C77.4843 34.4069 77.4978 34.4097 77.5112 34.4085C77.5246 34.4073 77.5374 34.4022 77.5479 34.3937C77.5583 34.3852 77.5661 34.3739 77.57 34.361C77.574 34.3481 77.5741 34.3344 77.5702 34.3215C77.5664 34.3086 77.5588 34.2971 77.5484 34.2885C77.538 34.28 77.5253 34.2747 77.5119 34.2733C77.4941 34.2716 77.4764 34.2769 77.4625 34.2881C77.4486 34.2993 77.4397 34.3156 77.4377 34.3333ZM76.6654 34.2449C76.664 34.2582 76.6665 34.2717 76.6726 34.2836C76.6788 34.2954 76.6883 34.3052 76.7001 34.3117C76.7118 34.3182 76.7252 34.3211 76.7385 34.32C76.7518 34.3189 76.7646 34.3138 76.7751 34.3055C76.7856 34.2972 76.7934 34.286 76.7975 34.2733C76.8016 34.2605 76.8019 34.2468 76.7983 34.2339C76.7947 34.2211 76.7873 34.2095 76.7772 34.2008C76.767 34.1921 76.7545 34.1865 76.7412 34.1849C76.7323 34.1838 76.7232 34.1845 76.7146 34.1869C76.7059 34.1893 76.6978 34.1935 76.6908 34.1991C76.6837 34.2046 76.6778 34.2116 76.6735 34.2194C76.6691 34.2273 76.6664 34.236 76.6654 34.2449ZM75.8947 34.1549C75.8936 34.1638 75.8943 34.1729 75.8968 34.1815C75.8992 34.1902 75.9033 34.1983 75.9089 34.2053C75.9145 34.2124 75.9214 34.2183 75.9293 34.2226C75.9371 34.227 75.9458 34.2297 75.9548 34.2307C75.9716 34.231 75.988 34.2251 76.0007 34.214C76.0134 34.2029 76.0215 34.1875 76.0235 34.1707C76.0254 34.154 76.0211 34.1371 76.0113 34.1234C76.0016 34.1097 75.987 34.1001 75.9705 34.0965C75.9527 34.0942 75.9348 34.0991 75.9206 34.11C75.9064 34.121 75.8971 34.1371 75.8947 34.1549ZM79.4276 34.0143C79.4253 34.0317 79.43 34.0493 79.4407 34.0632C79.4513 34.0771 79.467 34.0862 79.4844 34.0886L79.4623 33.9638C79.4526 33.9685 79.4443 33.9756 79.4382 33.9844C79.4321 33.9933 79.4284 34.0036 79.4276 34.0143ZM78.6569 33.9243C78.6548 33.9336 78.6548 33.9432 78.6567 33.9524C78.6586 33.9617 78.6624 33.9705 78.6679 33.9782C78.6734 33.986 78.6805 33.9924 78.6886 33.9973C78.6968 34.0021 78.7059 34.0052 78.7153 34.0063C78.7247 34.0074 78.7342 34.0065 78.7433 34.0037C78.7523 34.0009 78.7607 33.9962 78.7679 33.99C78.775 33.9838 78.7808 33.9761 78.7848 33.9675C78.7888 33.9589 78.7909 33.9496 78.7911 33.9401C78.7931 33.9309 78.7932 33.9213 78.7913 33.912C78.7894 33.9027 78.7856 33.8939 78.7801 33.8862C78.7746 33.8785 78.7675 33.872 78.7594 33.8672C78.7512 33.8623 78.7421 33.8593 78.7327 33.8582C78.7233 33.8571 78.7137 33.8579 78.7047 33.8607C78.6956 33.8635 78.6873 33.8682 78.6801 33.8744C78.673 33.8807 78.6672 33.8883 78.6632 33.8969C78.6592 33.9055 78.657 33.9148 78.6569 33.9243ZM77.8846 33.8359C77.8825 33.8539 77.8877 33.872 77.8989 33.8862C77.9102 33.9004 77.9266 33.9096 77.9446 33.9117C77.9626 33.9138 77.9807 33.9086 77.995 33.8974C78.0092 33.8861 78.0183 33.8697 78.0204 33.8517C78.0215 33.8428 78.0207 33.8337 78.0183 33.8251C78.0158 33.8164 78.0117 33.8084 78.0061 33.8013C78.0005 33.7943 77.9936 33.7884 77.9858 33.7841C77.978 33.7797 77.9693 33.7769 77.9604 33.7759C77.9515 33.7748 77.9425 33.7756 77.9338 33.778C77.9252 33.7805 77.9171 33.7846 77.9101 33.7902C77.903 33.7957 77.8972 33.8027 77.8928 33.8105C77.8884 33.8183 77.8856 33.827 77.8846 33.8359ZM77.1139 33.7474C77.1125 33.7608 77.115 33.7742 77.1211 33.7861C77.1273 33.798 77.1369 33.8078 77.1486 33.8143C77.1603 33.8207 77.1737 33.8236 77.187 33.8225C77.2004 33.8214 77.2131 33.8164 77.2236 33.8081C77.2341 33.7998 77.2419 33.7885 77.246 33.7758C77.2502 33.7631 77.2504 33.7494 77.2468 33.7365C77.2432 33.7236 77.2358 33.7121 77.2257 33.7033C77.2155 33.6946 77.203 33.6891 77.1897 33.6874C77.1808 33.6863 77.1717 33.687 77.1631 33.6894C77.1544 33.6919 77.1463 33.696 77.1393 33.7016C77.1322 33.7072 77.1264 33.7141 77.122 33.722C77.1177 33.7298 77.1149 33.7385 77.1139 33.7474ZM76.5359 35.3457C76.5339 35.355 76.5338 35.3646 76.5358 35.374C76.5377 35.3833 76.5416 35.3922 76.5472 35.3999C76.5528 35.4077 76.5599 35.4142 76.5682 35.4189C76.5764 35.4237 76.5856 35.4267 76.5951 35.4277C76.6046 35.4287 76.6142 35.4277 76.6233 35.4248C76.6324 35.4218 76.6407 35.417 76.6478 35.4106C76.6549 35.4042 76.6605 35.3963 76.6644 35.3876C76.6682 35.3789 76.6702 35.3694 76.6702 35.3599C76.672 35.3423 76.6669 35.3248 76.656 35.3109C76.6451 35.2971 76.6292 35.288 76.6117 35.2856C76.6028 35.2845 76.5937 35.2852 76.5851 35.2877C76.5764 35.2901 76.5683 35.2942 76.5613 35.2998C76.5542 35.3054 76.5483 35.3123 76.544 35.3202C76.5396 35.3281 76.5369 35.3367 76.5359 35.3457ZM75.7652 35.2556C75.7632 35.2649 75.7632 35.2745 75.7651 35.2838C75.767 35.2931 75.7708 35.3018 75.7763 35.3096C75.7818 35.3173 75.7888 35.3238 75.797 35.3286C75.8052 35.3334 75.8142 35.3365 75.8236 35.3376C75.8331 35.3387 75.8426 35.3378 75.8517 35.335C75.8607 35.3322 75.8691 35.3275 75.8762 35.3213C75.8834 35.3151 75.8891 35.3074 75.8931 35.2988C75.8971 35.2902 75.8993 35.2809 75.8995 35.2714C75.9015 35.2622 75.9016 35.2526 75.8997 35.2433C75.8978 35.234 75.8939 35.2252 75.8884 35.2175C75.8829 35.2098 75.8759 35.2033 75.8677 35.1985C75.8596 35.1937 75.8505 35.1906 75.8411 35.1895C75.8317 35.1884 75.8221 35.1892 75.8131 35.1921C75.804 35.1949 75.7956 35.1995 75.7885 35.2058C75.7814 35.212 75.7756 35.2196 75.7716 35.2282C75.7676 35.2368 75.7654 35.2462 75.7652 35.2556ZM76.9844 34.8466C76.9824 34.8559 76.9823 34.8654 76.9842 34.8747C76.9861 34.884 76.99 34.8928 76.9955 34.9005C77.001 34.9082 77.008 34.9147 77.0162 34.9196C77.0243 34.9244 77.0334 34.9274 77.0428 34.9286C77.0523 34.9297 77.0618 34.9288 77.0708 34.926C77.0799 34.9232 77.0883 34.9185 77.0954 34.9123C77.1026 34.9061 77.1083 34.8984 77.1123 34.8898C77.1163 34.8812 77.1185 34.8719 77.1187 34.8624C77.119 34.8455 77.113 34.8292 77.1019 34.8165C77.0909 34.8038 77.0754 34.7956 77.0587 34.7937C77.042 34.7917 77.0251 34.796 77.0114 34.8058C76.9976 34.8156 76.988 34.8301 76.9844 34.8466ZM76.2122 34.7582C76.2104 34.7761 76.2156 34.7941 76.2268 34.8082C76.238 34.8224 76.2543 34.8316 76.2722 34.834C76.2901 34.8358 76.3081 34.8305 76.3222 34.8193C76.3364 34.8081 76.3456 34.7918 76.348 34.774C76.3498 34.756 76.3445 34.7381 76.3333 34.7239C76.3221 34.7098 76.3059 34.7005 76.288 34.6982C76.2713 34.698 76.2551 34.7041 76.2425 34.7152C76.23 34.7263 76.222 34.7416 76.2201 34.7582H76.2122ZM76.0858 35.8637C76.0855 35.8805 76.0915 35.8969 76.1026 35.9096C76.1136 35.9223 76.129 35.9304 76.1458 35.9324C76.1625 35.9344 76.1794 35.93 76.1931 35.9202C76.2069 35.9105 76.2165 35.8959 76.2201 35.8794C76.2221 35.8702 76.2222 35.8606 76.2202 35.8513C76.2183 35.842 76.2145 35.8332 76.209 35.8255C76.2035 35.8178 76.1965 35.8113 76.1883 35.8065C76.1801 35.8017 76.1711 35.7986 76.1617 35.7975C76.1522 35.7964 76.1427 35.7973 76.1337 35.8001C76.1246 35.8029 76.1162 35.8075 76.1091 35.8138C76.1019 35.82 76.0962 35.8277 76.0922 35.8362C76.0882 35.8448 76.086 35.8542 76.0858 35.8637Z" fill="white"/>
<path d="M79.2778 33.3035C79.1162 33.4095 78.9485 33.506 78.7756 33.5925C77.9607 33.9083 75.7939 33.8562 75.7939 33.8562C75.8286 32.8925 76.0124 31.9399 76.3388 31.0325C76.9184 29.4343 77.7743 29.8307 78.076 30.0739C78.4392 30.3613 79.1815 31.4636 79.2336 31.68C79.3299 32.0369 79.0409 32.457 79.0409 32.457L79.2778 33.3035Z" fill="#D3766A"/>
<path d="M78.8745 31.0547C78.7805 31.058 78.6886 31.0834 78.6062 31.129C78.5239 31.1745 78.4535 31.2389 78.4008 31.3168C78.1934 31.1939 77.9546 31.1341 77.7138 31.1447C77.3553 31.181 77.0821 31.5537 77.0821 31.5537L76.0903 31.7117C76.0903 31.7117 75.8976 32.3734 75.9197 32.465C75.9197 32.465 77.5369 33.0556 79.0404 32.465C79.2032 32.258 79.2877 32.0001 79.2788 31.7369C79.2646 31.4416 78.8745 31.0547 78.8745 31.0547Z" fill="#FFC727"/>
<path d="M78.6958 33.2102C78.6654 33.2416 78.646 33.2821 78.6405 33.3255C78.6318 33.3666 78.6318 33.4091 78.6405 33.4503C78.65 33.4913 78.6863 33.4945 78.6942 33.4503C78.7019 33.4077 78.6935 33.3637 78.6705 33.3271C78.6883 33.343 78.7023 33.3629 78.7113 33.385C78.7203 33.4072 78.7242 33.4311 78.7226 33.455C78.7231 33.4704 78.7176 33.4854 78.7073 33.4968C78.697 33.5083 78.6827 33.5154 78.6673 33.5166C78.6522 33.5149 78.6379 33.5086 78.6266 33.4984C78.6152 33.4882 78.6074 33.4746 78.6042 33.4597C78.5916 33.4127 78.5916 33.3631 78.6042 33.316C78.6103 33.2925 78.6217 33.2708 78.6376 33.2524C78.6535 33.2341 78.6734 33.2196 78.6958 33.2102Z" fill="#263238"/>
<path d="M78.709 31.0862C78.7207 31.1003 78.7264 31.1184 78.7247 31.1367C78.7238 31.1457 78.721 31.1543 78.7167 31.1622C78.7123 31.1701 78.7065 31.177 78.6994 31.1826C78.6923 31.1882 78.6843 31.1923 78.6756 31.1947C78.6669 31.1971 78.6579 31.1978 78.6489 31.1967C78.6356 31.1953 78.6231 31.1898 78.6129 31.1811C78.6028 31.1723 78.5955 31.1607 78.5921 31.1478C78.6281 31.1221 78.6674 31.1014 78.709 31.0862ZM78.4626 32.2217C78.4604 32.2395 78.4652 32.2574 78.4762 32.2716C78.4871 32.2858 78.5033 32.2951 78.521 32.2975C78.539 32.2993 78.5569 32.294 78.5711 32.2828C78.5852 32.2716 78.5945 32.2554 78.5968 32.2375C78.5979 32.2285 78.5972 32.2195 78.5948 32.2108C78.5924 32.2022 78.5883 32.1941 78.5827 32.187C78.5771 32.18 78.5702 32.1741 78.5623 32.1697C78.5544 32.1654 78.5458 32.1626 78.5368 32.1617C78.528 32.1606 78.519 32.1613 78.5104 32.1637C78.5019 32.1662 78.4939 32.1703 78.487 32.1759C78.48 32.1815 78.4743 32.1884 78.4701 32.1963C78.4659 32.2042 78.4634 32.2128 78.4626 32.2217ZM77.6903 32.1332C77.6886 32.151 77.6939 32.1688 77.7051 32.1827C77.7163 32.1966 77.7326 32.2055 77.7503 32.2075C77.7681 32.2097 77.7861 32.2048 77.8003 32.1939C77.8145 32.1829 77.8238 32.1668 77.8261 32.149C77.8279 32.1311 77.8227 32.1131 77.8115 32.099C77.8003 32.0848 77.784 32.0756 77.7661 32.0732C77.7568 32.0721 77.7474 32.073 77.7385 32.0757C77.7295 32.0784 77.7212 32.0829 77.7141 32.089C77.707 32.0951 77.7012 32.1026 77.6971 32.111C77.693 32.1194 77.6907 32.1286 77.6903 32.138V32.1332ZM76.9197 32.0432C76.9186 32.0521 76.9192 32.0612 76.9217 32.0699C76.9241 32.0785 76.9282 32.0866 76.9338 32.0937C76.9394 32.1007 76.9463 32.1066 76.9542 32.1109C76.9621 32.1153 76.9707 32.118 76.9797 32.119C76.9965 32.1193 77.0129 32.1134 77.0256 32.1023C77.0383 32.0912 77.0464 32.0758 77.0484 32.0591C77.0504 32.0423 77.046 32.0254 77.0363 32.0117C77.0265 31.998 77.0119 31.9884 76.9955 31.9848C76.9777 31.9825 76.9597 31.9874 76.9455 31.9984C76.9313 32.0093 76.922 32.0254 76.9197 32.0432ZM76.149 31.9548C76.1467 31.9726 76.1516 31.9905 76.1626 32.0047C76.1735 32.0189 76.1896 32.0282 76.2074 32.0306C76.2254 32.0324 76.2433 32.0271 76.2575 32.0159C76.2716 32.0047 76.2808 31.9885 76.2832 31.9706C76.2843 31.9616 76.2836 31.9526 76.2812 31.9439C76.2788 31.9353 76.2746 31.9272 76.2691 31.9201C76.2635 31.9131 76.2565 31.9072 76.2487 31.9028C76.2408 31.8985 76.2321 31.8957 76.2232 31.8948C76.2144 31.8937 76.2054 31.8944 76.1968 31.8968C76.1883 31.8993 76.1803 31.9034 76.1733 31.909C76.1664 31.9146 76.1607 31.9216 76.1565 31.9294C76.1523 31.9373 76.1498 31.9459 76.149 31.9548ZM78.9048 31.7242C78.903 31.742 78.9083 31.7597 78.9196 31.7736C78.9308 31.7875 78.947 31.7964 78.9648 31.7984C78.9782 31.7999 78.9917 31.7974 79.0037 31.7912C79.0156 31.785 79.0254 31.7754 79.0319 31.7636C79.0384 31.7518 79.0412 31.7383 79.04 31.7249C79.0388 31.7115 79.0336 31.6987 79.0252 31.6882C79.0167 31.6778 79.0053 31.6701 78.9924 31.6661C78.9796 31.6621 78.9658 31.662 78.9529 31.6659C78.94 31.6697 78.9286 31.6773 78.92 31.6877C78.9114 31.6981 78.9061 31.7108 78.9048 31.7242ZM78.1341 31.6342C78.133 31.6431 78.1337 31.6522 78.1361 31.6608C78.1386 31.6695 78.1427 31.6776 78.1483 31.6846C78.1538 31.6917 78.1608 31.6976 78.1686 31.7019C78.1765 31.7063 78.1852 31.709 78.1941 31.71C78.2034 31.712 78.213 31.7121 78.2222 31.7102C78.2315 31.7083 78.2403 31.7045 78.248 31.6989C78.2558 31.6934 78.2622 31.6864 78.2671 31.6782C78.2719 31.6701 78.275 31.661 78.2761 31.6516C78.2772 31.6422 78.2763 31.6326 78.2735 31.6236C78.2707 31.6145 78.266 31.6062 78.2598 31.599C78.2536 31.5919 78.2459 31.5861 78.2373 31.5821C78.2287 31.5781 78.2194 31.5759 78.2099 31.5758C78.1929 31.5748 78.1761 31.5803 78.163 31.5911C78.1498 31.6019 78.1412 31.6173 78.1388 31.6342H78.1341ZM77.3634 31.5457C77.3619 31.5591 77.3644 31.5727 77.3706 31.5846C77.3769 31.5966 77.3865 31.6064 77.3983 31.6129C77.4101 31.6193 77.4236 31.6221 77.437 31.6209C77.4504 31.6197 77.4631 31.6146 77.4736 31.6061C77.4841 31.5977 77.4918 31.5863 77.4958 31.5734C77.4998 31.5605 77.4998 31.5468 77.496 31.5339C77.4921 31.521 77.4845 31.5095 77.4741 31.5009C77.4638 31.4924 77.4511 31.4871 77.4377 31.4857C77.4207 31.4852 77.4041 31.4911 77.3912 31.5022C77.3784 31.5133 77.3701 31.5289 77.3682 31.5457H77.3634ZM78.022 32.7018L78.1183 32.6907C78.108 32.682 78.0954 32.6766 78.082 32.6749C78.0713 32.6745 78.0606 32.6767 78.051 32.6814C78.0413 32.6861 78.033 32.6931 78.0267 32.7018H78.022ZM77.2323 32.6465C77.2306 32.6643 77.2359 32.682 77.2471 32.6959C77.2583 32.7098 77.2746 32.7187 77.2924 32.7207C77.3057 32.7222 77.3193 32.7197 77.3312 32.7135C77.3432 32.7073 77.353 32.6977 77.3595 32.6859C77.3659 32.6741 77.3688 32.6606 77.3676 32.6472C77.3664 32.6338 77.3612 32.621 77.3527 32.6105C77.3443 32.6001 77.3329 32.5923 77.32 32.5884C77.3071 32.5844 77.2934 32.5843 77.2805 32.5882C77.2676 32.592 77.2561 32.5996 77.2475 32.61C77.239 32.6204 77.2337 32.6331 77.2323 32.6465ZM76.4617 32.5581C76.4599 32.5758 76.4652 32.5936 76.4764 32.6075C76.4877 32.6214 76.5039 32.6303 76.5217 32.6323C76.5309 32.6343 76.5405 32.6344 76.5498 32.6325C76.5591 32.6306 76.5679 32.6267 76.5756 32.6212C76.5833 32.6157 76.5898 32.6087 76.5946 32.6005C76.5995 32.5924 76.6025 32.5833 76.6036 32.5739C76.6047 32.5645 76.6039 32.5549 76.6011 32.5459C76.5982 32.5368 76.5936 32.5284 76.5874 32.5213C76.5811 32.5142 76.5735 32.5084 76.5649 32.5044C76.5563 32.5004 76.5469 32.4982 76.5375 32.498C76.5208 32.4979 76.5046 32.504 76.492 32.5151C76.4795 32.5261 76.4715 32.5414 76.4696 32.5581H76.4617Z" fill="white"/>
<path d="M77.2275 30.0203C77.2433 30.0914 77.5687 30.5557 77.8908 30.5478C77.9951 30.5478 78.0061 29.9713 78.0061 29.9713L78.0156 29.9303L78.1609 29.3396L77.4834 28.8785L77.3839 28.8169L77.3207 29.1849V29.2149C77.32 29.2259 77.32 29.237 77.3207 29.248C77.3207 29.278 77.3097 29.3096 77.3049 29.3396C77.3002 29.3696 77.3049 29.387 77.2939 29.4123C77.2828 29.4375 77.2939 29.4612 77.2828 29.4865C77.2526 29.663 77.2341 29.8413 77.2275 30.0203Z" fill="#D3766A"/>
<path d="M77.3125 29.1849C77.3689 29.3525 77.4609 29.5059 77.5823 29.6345C77.7036 29.7632 77.8513 29.8641 78.0153 29.9303L78.1606 29.3396L77.4831 28.8785L77.3836 28.8169L77.3125 29.1849Z" fill="#263238"/>
<path d="M78.8859 28.2089C79.1622 29.2386 78.57 29.5213 78.3552 29.5797C78.1405 29.6382 77.4614 29.7929 77.0792 28.7901C76.697 27.7873 77.0792 27.3403 77.5419 27.1919C78.0046 27.0434 78.6079 27.1792 78.8859 28.2089Z" fill="#D3766A"/>
<path d="M78.654 28.1034C78.6292 28.1049 78.6044 28.1049 78.5796 28.1034C78.5537 28.1063 78.5276 28.1007 78.5051 28.0875C78.4983 28.0822 78.4937 28.0747 78.492 28.0663C78.4902 28.0579 78.4915 28.0491 78.4956 28.0416C78.5053 28.0278 78.5185 28.0169 78.5338 28.01C78.5491 28.003 78.566 28.0003 78.5827 28.0019C78.6171 28.0012 78.6507 28.0124 78.6778 28.0336C78.6839 28.0388 78.6882 28.0456 78.6903 28.0533C78.6924 28.0609 78.6922 28.0691 78.6896 28.0766C78.6871 28.0841 78.6823 28.0907 78.6759 28.0954C78.6696 28.1002 78.662 28.103 78.654 28.1034Z" fill="#263238"/>
<path d="M77.9679 28.2599C77.9917 28.2519 78.0138 28.2408 78.036 28.2313C78.0616 28.225 78.084 28.2099 78.0994 28.1885C78.1044 28.1819 78.1071 28.1739 78.1071 28.1656C78.1071 28.1573 78.1044 28.1492 78.0994 28.1426C78.0848 28.134 78.0681 28.1294 78.0511 28.1294C78.0341 28.1294 78.0174 28.134 78.0028 28.1426C77.9702 28.154 77.943 28.1771 77.9267 28.2076C77.9013 28.2345 77.9362 28.2694 77.9679 28.2599Z" fill="#263238"/>
<path d="M78.2507 29.0632C78.2713 29.0774 78.2919 29.0996 78.3173 29.098C78.3442 29.0933 78.37 29.0836 78.3933 29.0695C78.3847 29.085 78.3721 29.098 78.3568 29.1069C78.3414 29.1158 78.3239 29.1204 78.3062 29.1202C78.2729 29.1202 78.2539 29.0933 78.2412 29.0647C78.2428 29.0632 78.2491 29.0616 78.2507 29.0632Z" fill="#263238"/>
<path d="M78.5069 28.7314C78.5069 28.7314 78.5417 28.8341 78.5512 28.8894C78.5512 28.8894 78.5401 28.8988 78.5243 28.9036C78.4829 28.9197 78.4379 28.9241 78.3941 28.9163C78.3504 28.9085 78.3096 28.8888 78.2764 28.8594C78.2764 28.8594 78.2764 28.8483 78.2764 28.8499C78.3483 28.8818 78.4288 28.889 78.5054 28.8704C78.5054 28.8562 78.439 28.6951 78.4469 28.6935C78.4867 28.6873 78.5272 28.6873 78.5669 28.6935C78.499 28.474 78.398 28.2687 78.3348 28.0508C78.3348 28.0429 78.3443 28.0381 78.3474 28.0508C78.4627 28.2674 78.5564 28.4948 78.627 28.7299C78.6396 28.7535 78.529 28.7362 78.5069 28.7314Z" fill="#263238"/>
<path d="M78.0297 28.5185C78.0253 28.5255 78.02 28.5319 78.0139 28.5375C78.0031 28.5459 77.9895 28.5498 77.9759 28.5486C77.9347 28.5486 77.9172 28.501 77.9141 28.4583C77.9141 28.4583 77.9505 28.5026 77.9743 28.4995C77.9909 28.494 78.0056 28.4841 78.0171 28.4709C78.0192 28.4873 78.0235 28.5032 78.0297 28.5185Z" fill="#263238"/>
<path d="M78.0127 28.506C78.0125 28.4864 78.018 28.4671 78.0286 28.4505C78.042 28.4334 78.0611 28.4216 78.0824 28.4173C78.0935 28.4163 78.1046 28.4178 78.115 28.4217C78.1254 28.4255 78.1348 28.4316 78.1426 28.4394C78.155 28.4543 78.1641 28.4716 78.1696 28.4901C78.1703 28.5012 78.1703 28.5123 78.1696 28.5234C78.1752 28.5463 78.1752 28.5702 78.1696 28.5931C78.1681 28.576 78.1649 28.559 78.1601 28.5424C78.156 28.5277 78.1507 28.5134 78.1442 28.4996C78.1315 28.4695 78.1109 28.4474 78.0872 28.4521C78.0634 28.4569 78.046 28.4775 78.0396 28.5092C78.0356 28.5418 78.0356 28.5748 78.0396 28.6074C78.0226 28.5763 78.0134 28.5415 78.0127 28.506Z" fill="#263238"/>
<path d="M78.6944 28.3749C78.701 28.3801 78.7085 28.3839 78.7166 28.386C78.7225 28.389 78.729 28.3906 78.7356 28.3906C78.7423 28.3906 78.7488 28.389 78.7547 28.386C78.7927 28.3669 78.7927 28.3194 78.7784 28.2798C78.7784 28.3067 78.7594 28.3352 78.7356 28.34C78.7185 28.3416 78.7013 28.3377 78.6865 28.3289C78.6905 28.344 78.6932 28.3593 78.6944 28.3749Z" fill="#263238"/>
<path d="M78.7082 28.3575C78.6999 28.3399 78.6873 28.3247 78.6718 28.3131C78.6628 28.307 78.6527 28.3029 78.642 28.301C78.6314 28.2991 78.6205 28.2994 78.61 28.302C78.5994 28.3052 78.5896 28.3106 78.5814 28.318C78.5731 28.3254 78.5667 28.3346 78.5624 28.3448C78.5586 28.3631 78.5586 28.382 78.5624 28.4002C78.5617 28.4113 78.5617 28.4224 78.5624 28.4335C78.5677 28.4569 78.5786 28.4786 78.5941 28.4969C78.5894 28.4803 78.5862 28.4634 78.5846 28.4462C78.583 28.4309 78.583 28.4155 78.5846 28.4002C78.5846 28.3686 78.5973 28.34 78.6211 28.3353C78.6342 28.3333 78.6476 28.3357 78.6593 28.342C78.671 28.3482 78.6804 28.3581 78.686 28.3701C78.7034 28.3987 78.7178 28.4289 78.7288 28.4605C78.7299 28.425 78.7228 28.3898 78.7082 28.3575Z" fill="#263238"/>
<path d="M78.5076 28.8896C78.4906 28.9294 78.4639 28.9643 78.4299 28.991C78.4103 29.0044 78.3871 29.0116 78.3634 29.0116C78.3127 29.0116 78.3 28.9673 78.3 28.9276C78.2971 28.9066 78.2971 28.8853 78.3 28.8643C78.3643 28.896 78.4375 28.9049 78.5076 28.8896Z" fill="#263238"/>
<path d="M78.4317 28.9908C78.4121 29.0041 78.3889 29.0113 78.3651 29.0114C78.3144 29.0114 78.3018 28.967 78.3018 28.9274C78.3274 28.9219 78.3541 28.9252 78.3777 28.9367C78.4012 28.9482 78.4202 28.9672 78.4317 28.9908Z" fill="#FF9BBC"/>
<path d="M77.1675 28.8216C77.4123 28.7647 77.3159 28.3794 77.3159 28.3794C77.3159 28.3794 77.5876 28.2862 77.4976 27.8345C77.5737 27.9109 77.6665 27.9688 77.7687 28.0036C77.8708 28.0383 77.9796 28.0491 78.0866 28.0351C78.1687 28.0272 77.8513 27.8851 77.8513 27.8851C78.004 27.9486 78.1688 27.9776 78.334 27.9699C78.4992 27.9623 78.6606 27.9182 78.8068 27.8408C78.8478 27.8235 78.6046 27.2202 78.0882 27.1207C77.8734 27.0691 77.6477 27.0888 77.4451 27.1768C77.2425 27.2649 77.0741 27.4165 76.9653 27.6087C76.8777 27.6775 76.8074 27.7659 76.7602 27.8669C76.713 27.9678 76.6902 28.0785 76.6937 28.1899C76.7395 28.5199 77.0664 28.85 77.1675 28.8216Z" fill="#263238"/>
<path d="M77.8644 27.5219C77.8644 27.6246 77.6812 27.6941 77.4743 27.6798C77.2675 27.6656 77.1032 27.5661 77.1127 27.4635C77.1222 27.3608 77.2959 27.2913 77.5028 27.3056C77.7097 27.3198 77.8739 27.4193 77.8644 27.5219Z" fill="#FFC727"/>
<path d="M77.7829 27.495C77.7829 27.5724 77.6439 27.6245 77.486 27.6118C77.328 27.5992 77.2049 27.5266 77.2112 27.4539C77.2175 27.3813 77.3501 27.3228 77.5081 27.3355C77.666 27.3481 77.7892 27.416 77.7829 27.495Z" fill="#263238"/>
<path d="M77.7883 27.416L77.7314 27.386C77.766 27.3322 77.8175 27.2913 77.8778 27.2699C77.9381 27.2484 78.0038 27.2476 78.0647 27.2676L78.0489 27.3307C78.041 27.3276 77.8594 27.2802 77.7883 27.416Z" fill="#FFC727"/>
<path d="M77.0243 28.7852C77.0243 28.7741 77.0006 28.5262 76.999 28.4693C76.9975 28.4125 77.2975 27.5897 77.3007 27.585L77.3275 27.6039L77.3575 27.6165C77.3386 27.6623 77.0685 28.4062 77.0638 28.4693C77.059 28.5325 77.089 28.7678 77.089 28.771L77.0243 28.7852Z" fill="#FFC727"/>
<path d="M78.7057 27.2896C78.7057 27.3923 78.5225 27.4618 78.3141 27.4475C78.1056 27.4333 77.9445 27.3354 77.9524 27.2328C77.9603 27.1301 78.1356 27.0606 78.3441 27.0748C78.5526 27.0891 78.7136 27.187 78.7057 27.2896Z" fill="#FFC727"/>
<path d="M78.6217 27.2675C78.6217 27.3449 78.4828 27.3986 78.3248 27.386C78.1669 27.3733 78.0437 27.2991 78.05 27.228C78.0564 27.157 78.189 27.097 78.3469 27.1096C78.5049 27.1222 78.628 27.1901 78.6217 27.2675Z" fill="#263238"/>
<path d="M77.2636 28.8327C77.2636 28.8327 76.9762 28.5469 76.842 28.6543C76.7077 28.7616 76.9652 29.207 77.1499 29.2402C77.1735 29.2462 77.198 29.2475 77.2221 29.2438C77.2461 29.2401 77.2692 29.2316 77.2899 29.2187C77.3105 29.2059 77.3284 29.189 77.3423 29.1691C77.3563 29.1491 77.366 29.1266 77.371 29.1028L77.2636 28.8327Z" fill="#D3766A"/>
<path d="M76.918 28.7805C76.9791 28.7983 77.0359 28.8288 77.0846 28.8698C77.1332 28.9109 77.1728 28.9617 77.2007 29.019C77.1914 29.0069 77.1794 28.997 77.1657 28.9903C77.152 28.9835 77.137 28.98 77.1217 28.98C77.1064 28.98 77.0914 28.9835 77.0777 28.9903C77.064 28.997 77.052 29.0069 77.0427 29.019C77.0627 29.0078 77.0858 29.0033 77.1085 29.0061C77.1312 29.009 77.1525 29.019 77.1691 29.0348C77.1976 29.0607 77.223 29.0899 77.2449 29.1216C77.2449 29.1311 77.2701 29.1216 77.2638 29.1106C77.2496 28.9621 77.0885 28.7663 76.918 28.7805Z" fill="#263238"/>
<path d="M76.8678 30.0851C75.4117 31.2885 73.2355 34.4691 72.9481 34.935C72.7507 35.2508 74.3947 36.3311 74.4958 36.0957C74.6268 35.7957 76.8504 32.0181 77.4205 30.6173C77.7348 29.8371 77.1679 29.8276 76.8678 30.0851Z" fill="#D3766A"/>
<path d="M74.6045 35.8684C74.5239 36.0263 74.2365 36.7102 74.0802 36.7812C73.9238 36.8523 73.1674 36.7449 72.7852 36.7007C72.403 36.6565 72.3382 36.5428 72.3604 36.4101C72.3825 36.2774 73.1879 36.3469 73.1879 36.3469C73.1879 36.3469 72.0824 36.5301 71.8029 36.5507C71.5233 36.5712 70.8869 36.6549 70.8222 36.4196C70.7937 36.3138 70.9801 36.2316 70.9801 36.2316C70.9801 36.2316 70.71 36.2774 70.6848 36.1432C70.6595 36.009 70.8664 35.9284 70.8664 35.9284C70.8664 35.9284 70.699 35.9426 70.7084 35.821C70.7306 35.551 71.7665 35.5368 71.7665 35.5368C71.7665 35.5368 70.9406 35.8274 70.9406 35.6047C70.9406 35.2888 72.583 35.1483 72.7646 35.0346C72.8843 34.9553 72.9877 34.854 73.0694 34.7361L74.6045 35.8684Z" fill="#D3766A"/>
<path d="M72.3567 36.4779C72.3563 36.4588 72.3605 36.4399 72.369 36.4229C72.3776 36.4058 72.3902 36.3911 72.4057 36.38C72.4363 36.3576 72.4705 36.3405 72.5068 36.3295C72.5809 36.3069 72.6571 36.2916 72.7342 36.2837C72.8921 36.2631 73.05 36.2537 73.208 36.2315C73.0507 36.2116 72.8915 36.2116 72.7342 36.2315C72.6534 36.2407 72.5742 36.2609 72.4989 36.2916C72.4599 36.3083 72.4245 36.3324 72.3946 36.3626C72.379 36.377 72.3674 36.3952 72.3607 36.4153C72.3541 36.4355 72.3527 36.4571 72.3567 36.4779Z" fill="#263238"/>
<path d="M70.9756 36.2314C71.0893 36.2172 71.2014 36.1982 71.3151 36.1793C71.4288 36.1603 71.5394 36.1398 71.6515 36.1193L71.9863 36.0561L72.3227 35.9929C72.2081 35.9932 72.0937 36.0005 71.98 36.015C71.8663 36.0277 71.7526 36.0466 71.6405 36.0671C71.5283 36.0877 71.4162 36.1114 71.3057 36.1398C71.1951 36.1682 71.0846 36.1951 70.9756 36.2314Z" fill="#263238"/>
<path d="M72.0932 35.6959C71.988 35.6879 71.8824 35.6879 71.7773 35.6959C71.6713 35.7044 71.5659 35.7186 71.4614 35.7386C71.3581 35.7584 71.2558 35.7837 71.1551 35.8144C71.0546 35.8447 70.9565 35.8822 70.8613 35.9265C70.964 35.9028 71.0651 35.876 71.1661 35.8554C71.2672 35.8349 71.3698 35.8112 71.4709 35.7923C71.572 35.7733 71.6762 35.7544 71.7868 35.737C71.8973 35.7196 71.9889 35.7101 72.0932 35.6959Z" fill="#263238"/>
<path d="M71.9655 35.4214C71.7957 35.4142 71.6256 35.4301 71.4601 35.4687C71.2955 35.5033 71.1361 35.5596 70.9863 35.6361C71.1443 35.5967 71.3117 35.5556 71.4759 35.5209C71.6401 35.4861 71.7981 35.4545 71.9655 35.4214Z" fill="#263238"/>
<path d="M77.1361 31.2063C77.193 31.0879 77.2546 30.9726 77.3162 30.8557C77.2798 30.9394 77.2451 31.0231 77.2072 31.1052L77.234 31.0705L77.2972 30.9836C77.2799 31.0152 77.2609 31.0452 77.2404 31.0752L77.2088 31.1194L77.1914 31.14V31.1479C77.1819 31.17 77.1725 31.1921 77.1614 31.2142C77.1061 31.3326 77.0461 31.4495 76.9861 31.5664C76.9861 31.5664 76.9687 31.5664 76.9735 31.5664C77.0272 31.4448 77.0793 31.3248 77.1361 31.2063Z" fill="#263238"/>
<path d="M92.7428 34.3928L90.3516 38.7568L90.6078 38.8972L92.999 34.5332L92.7428 34.3928Z" fill="#A6A6A6"/>
<path d="M101.64 34.7635L98.9639 39.647L99.2201 39.7874L101.896 34.9039L101.64 34.7635Z" fill="#A6A6A6"/>
<path d="M79.126 34.0128L77.5498 36.8894L77.806 37.0298L79.3822 34.1532L79.126 34.0128Z" fill="#A6A6A6"/>
<path d="M69.3644 33.6476L68.6738 34.908L68.9301 35.0484L69.6206 33.788L69.3644 33.6476Z" fill="#A6A6A6"/>
<path d="M90.8328 39.06C88.336 38.3762 70.5124 35.9583 70.5124 35.9583L56.9923 29.2228L56.5075 28.4474L30.5981 27.5424L30.4528 27.9467L23.4835 26.3154L23.3871 25.7089L19.3395 24.207L22.1506 20.3789H20.5713L17.8329 24.0381L15.3613 24.207L23.4298 28.9559L21.1288 31.718H19.998V33.002H24.8669L32.1852 34.7392C32.1852 34.7392 25.9993 37.9451 21.9895 41.2978C21.9895 41.2978 50.0309 39.8133 62.5655 39.2953C72.9887 38.8658 88.4655 39.8307 92.8005 39.8718C93.6834 39.886 92.1894 39.4311 90.8328 39.06Z" fill="#FFC727"/>
<path d="M4.89941 48.897H12.4594C12.4594 48.897 31.4942 44.7594 42.02 42.9195C52.5458 41.0797 104.838 40.8033 104.875 40.7401C104.911 40.677 99.641 39.8021 99.3031 39.7373C98.9651 39.6726 67.2156 36.1997 52.5569 36.5235C37.8981 36.8472 4.89941 48.897 4.89941 48.897Z" fill="#FFC727"/>
<path d="M103.417 40.7481L103.392 40.767L95.5538 46.4097L90.7702 49.8541L90.3343 49.7436L85.2522 50.7543C82.2384 51.3544 79.136 51.3576 76.1209 50.7638L72.4965 50.0484L67.0844 50.9012C63.8905 51.405 60.6269 51.2437 57.4982 50.4274L54.8877 49.7467L50.6363 50.5695C46.9407 51.2882 43.1265 51.1078 39.5152 50.0436L38.4981 49.7436L34.2609 50.5916C30.7441 51.2986 27.1121 51.1906 23.6436 50.2758L21.6521 49.7499L16.8954 50.7385C13.9405 51.353 10.8948 51.3921 7.92514 50.8538L3.5032 50.0547L2.28401 50.2916L2.24295 50.1336L1.89551 48.8987C1.89551 48.8987 4.92138 48.2148 9.5581 47.2578C18.0356 45.5064 31.8984 42.8359 42.5 41.7462C43.7113 41.6198 44.8799 41.5156 45.9933 41.4303C62.1792 40.2711 103.417 40.7481 103.417 40.7481Z" fill="#FFC727"/>
<path opacity="0.2" d="M103.417 40.7481L103.392 40.767L95.5538 46.4097L90.7702 49.8541L90.3343 49.7436L85.2522 50.7543C82.2384 51.3544 79.136 51.3576 76.1209 50.7638L72.4965 50.0484L67.0844 50.9012C63.8905 51.405 60.6269 51.2437 57.4982 50.4274L54.8877 49.7467L50.6363 50.5695C46.9407 51.2882 43.1265 51.1078 39.5152 50.0436L38.4981 49.7436L34.2609 50.5916C30.7441 51.2986 27.1121 51.1906 23.6436 50.2758L21.6521 49.7499L16.8954 50.7385C13.9405 51.353 10.8948 51.3921 7.92514 50.8538L3.5032 50.0547L2.28401 50.2916L2.24295 50.1336L1.89551 48.8987C1.89551 48.8987 4.92138 48.2148 9.5581 47.2578C18.0356 45.5064 31.8984 42.8359 42.5 41.7462C43.7113 41.6198 44.8799 41.5156 45.9933 41.4303C62.1792 40.2711 103.417 40.7481 103.417 40.7481Z" fill="black"/>
<path opacity="0.2" d="M95.552 46.4099L90.7684 49.8543L90.3326 49.7437L85.2505 50.7545C82.2366 51.3546 79.1343 51.3578 76.1192 50.7639L72.4948 50.0485L67.0826 50.9013C63.8887 51.4052 60.6252 51.2439 57.4965 50.4276L54.886 49.7469L50.6362 50.5697C46.9406 51.2884 43.1263 51.108 39.515 50.0438L38.498 49.7437L34.2608 50.5918C30.744 51.2988 27.112 51.1908 23.6434 50.2759L21.6519 49.75L16.8952 50.7387C13.9403 51.3532 10.8947 51.3923 7.92498 50.854L3.50304 50.0548L2.28385 50.2917L2.24121 50.1338C2.44967 50.1133 20.7912 48.3871 34.9004 47.3069C39.8688 46.9247 44.3128 46.6231 47.255 46.5047L48.2941 46.4668C49.6902 46.421 51.3958 46.3815 53.3241 46.3483C56.9438 46.2851 61.3483 46.2441 65.9582 46.222C67.5691 46.2141 69.2083 46.2093 70.846 46.2078C75.5838 46.1967 80.3374 46.2078 84.5019 46.2409C89.2302 46.2725 93.1973 46.3309 95.552 46.4099Z" fill="black"/>
<path d="M62.76 36.7178C58.9429 36.5441 55.418 36.4619 52.5469 36.5251C47.6512 36.6325 40.7024 38.0491 33.6336 39.8889C31.8017 40.0184 30.0013 40.1464 28.2783 40.2711C30.2398 38.3176 35.7009 33.5956 43.2466 32.7775C52.809 31.7431 62.76 36.7178 62.76 36.7178Z" fill="#263238"/>
<g opacity="0.2">
<path d="M43.9413 32.7114L37.7996 38.8532C36.653 39.1238 35.4949 39.4096 34.3252 39.7107L40.8633 33.1726C41.649 32.9937 42.4441 32.8592 43.2449 32.7699C43.4786 32.7509 43.7092 32.7288 43.9413 32.7114Z" fill="white"/>
<path d="M59.3216 35.2746L58.0487 36.5475C57.158 36.5254 56.2957 36.5127 55.4697 36.5064L57.3743 34.6018C58.0755 34.8229 58.7278 35.0566 59.3216 35.2746Z" fill="white"/>
<path d="M50.1433 32.9276L45.8556 37.2153C45.3387 37.2974 44.8123 37.3874 44.2764 37.4853L48.9731 32.7886C49.3727 32.8312 49.7564 32.877 50.1433 32.9276Z" fill="white"/>
<path d="M36.1449 34.7849L30.8433 40.0865L29.4346 40.1876L33.3038 36.3184C34.2188 35.7501 35.1676 35.238 36.1449 34.7849Z" fill="white"/>
<path d="M56.1381 34.2241L53.8561 36.5062H53.4297L55.8096 34.1262L56.1381 34.2241Z" fill="white"/>
</g>
<path d="M70.5126 35.9582C70.3673 36.0071 64.5761 36.3451 64.5761 36.3451L58.1201 33.2087C58.1201 33.2087 62.9653 32.577 63.9634 32.6354C64.9615 32.6938 70.5126 35.9582 70.5126 35.9582Z" fill="#263238"/>
<g opacity="0.2">
<path d="M68.4816 34.8023L67.0887 36.1936C65.7684 36.2773 64.5713 36.3515 64.5713 36.3515L64.4023 36.2694L66.7933 33.8752C67.3666 34.1911 67.9541 34.5069 68.4816 34.8023Z" fill="white"/>
<path d="M64.7022 32.8645L62.3223 35.2476L61.4395 34.8228L63.6236 32.6387C63.7594 32.6387 63.8731 32.6387 63.9568 32.6387C64.2148 32.678 64.4658 32.754 64.7022 32.8645Z" fill="white"/>
</g>
<path d="M26.4242 40.5081L26.2031 40.317C26.2931 40.2128 28.4994 37.7412 35.7861 36.2109C43.5561 34.5748 56.8409 33.842 63.4659 33.6715C75.672 33.3556 105.79 34.9965 106.089 35.0123L106.321 35.0265L103.32 40.4876L103.064 40.347L105.836 35.2934C103.003 35.1355 75.094 33.6604 63.4674 33.9652C56.8519 34.1374 43.5908 34.867 35.8398 36.492C28.6541 38.0018 26.4463 40.4797 26.4242 40.5081Z" fill="#A6A6A6"/>
<path d="M90.9508 34.3936L88.0693 39.6523L88.3256 39.7927L91.207 34.534L90.9508 34.3936Z" fill="#A6A6A6"/>
<path d="M84.3259 34.044L81.6455 38.9358L81.9017 39.0762L84.5821 34.1844L84.3259 34.044Z" fill="#A6A6A6"/>
<path d="M75.8361 33.8312L73.3174 38.428L73.5736 38.5684L76.0923 33.9716L75.8361 33.8312Z" fill="#A6A6A6"/>
<path d="M67.3043 33.6952L64.8994 38.0842L65.1556 38.2246L67.5605 33.8356L67.3043 33.6952Z" fill="#A6A6A6"/>
<path d="M58.5737 33.9202L56.1953 38.2607L56.4515 38.4011L58.8299 34.0606L58.5737 33.9202Z" fill="#A6A6A6"/>
<path d="M49.6869 34.4127L47.2539 38.8547L47.5102 38.9951L49.9431 34.553L49.6869 34.4127Z" fill="#A6A6A6"/>
<path d="M40.6731 35.4367L38.4609 39.4739L38.7172 39.6143L40.9293 35.5771L40.6731 35.4367Z" fill="#A6A6A6"/>
<path d="M31.4231 37.3878L29.9531 40.0706L30.2093 40.2109L31.6793 37.5282L31.4231 37.3878Z" fill="#A6A6A6"/>
<path d="M56.5075 28.4473L56.1696 27.5108L53.5196 25.4751L35.1053 26.9612L31.5488 27.5755L56.5075 28.4473Z" fill="#FFC727"/>
<path opacity="0.2" d="M56.5075 28.4473L56.1696 27.5108L53.5196 25.4751L35.1053 26.9612L31.5488 27.5755L56.5075 28.4473Z" fill="black"/>
<path d="M23.6778 18.6101H20.5762V20.3789H23.6778V18.6101Z" fill="#FFC727"/>
<path d="M19.0488 17.9799L25.8823 18.4647V17.9799L19.0488 17.3987V17.9799Z" fill="#FFC727"/>
<path d="M22.9747 17.9309H21.4238V18.6937H22.9747V17.9309Z" fill="#FFC727"/>
<path d="M0.603516 48.8971H12.4591C12.4591 48.8971 27.2236 43.695 42.4066 41.7573C57.5897 39.8195 92.8689 39.8764 92.8689 39.8764C92.8689 39.8764 68.3239 37.6212 57.5265 38.2687C46.7291 38.9162 13.8883 41.2977 13.8646 41.3214C13.8409 41.3451 13.5898 41.6278 13.5898 41.6278L14.051 41.9263L9.90696 46.8615L2.15277 47.2815L0.603516 48.8971Z" fill="#FFC727"/>
<path opacity="0.1" d="M0.603516 48.8971H12.4591C12.4591 48.8971 27.2236 43.695 42.4066 41.7573C57.5897 39.8195 92.8689 39.8764 92.8689 39.8764C92.8689 39.8764 68.3239 37.6212 57.5265 38.2687C46.7291 38.9162 13.8883 41.2977 13.8646 41.3214C13.8409 41.3451 13.5898 41.6278 13.5898 41.6278L14.051 41.9263L9.90696 46.8615L2.15277 47.2815L0.603516 48.8971Z" fill="black"/>
<path d="M43.3159 44.9394C44.3803 44.7815 46.7144 44.6473 49.8366 44.5241C49.9111 44.5219 49.9843 44.5434 50.0458 44.5855C50.1073 44.6276 50.1538 44.6881 50.1788 44.7583C50.2037 44.8285 50.2057 44.9048 50.1845 44.9762C50.1633 45.0476 50.1201 45.1105 50.0609 45.1558L47.0445 47.3904C46.9821 47.4358 46.9069 47.4602 46.8297 47.4599L34.4293 47.302C34.3429 47.3017 34.2597 47.2694 34.1955 47.2115C34.1314 47.1535 34.091 47.0739 34.082 46.9879C34.073 46.902 34.096 46.8157 34.1467 46.7457C34.1974 46.6757 34.2722 46.6269 34.3567 46.6087C36.6214 46.1002 39.9726 45.4132 43.3159 44.9394Z" fill="#263238"/>
<path d="M67.9493 44.7452L64.0864 47.6148C64.0241 47.6604 63.9488 47.6847 63.8716 47.6843L52.7362 47.5374C52.6636 47.5349 52.5935 47.51 52.5356 47.4659C52.4778 47.4219 52.4351 47.3609 52.4134 47.2916C52.3917 47.2222 52.3922 47.1478 52.4146 47.0786C52.4371 47.0095 52.4805 46.9491 52.5388 46.9057L56.1095 44.3899C56.1663 44.3505 56.2331 44.3281 56.3022 44.3252C59.824 44.2367 63.7532 44.1672 67.7361 44.1167C67.8093 44.1168 67.8806 44.1398 67.94 44.1825C67.9995 44.2252 68.0441 44.2854 68.0676 44.3547C68.0911 44.424 68.0923 44.4989 68.0711 44.569C68.0499 44.639 68.0073 44.7006 67.9493 44.7452Z" fill="#263238"/>
<path d="M86.5565 44.7217L82.3241 47.8566C82.2622 47.9029 82.1866 47.9273 82.1093 47.926L68.6855 47.7492L73.8008 44.1169C73.8591 44.0747 73.9293 44.052 74.0014 44.0521C78.4565 44.0268 82.7457 44.0347 86.3622 44.0837C86.4363 44.0851 86.508 44.1098 86.5671 44.1545C86.6262 44.1991 86.6696 44.2613 86.6912 44.3321C86.7128 44.403 86.7114 44.4788 86.6872 44.5488C86.663 44.6188 86.6172 44.6793 86.5565 44.7217Z" fill="#263238"/>
<g opacity="0.2">
<path d="M48.0459 44.6016L45.2032 47.4442L42.6211 47.4111L45.2664 44.7563C46.056 44.7026 46.9846 44.6505 48.0459 44.6016Z" fill="white"/>
<path d="M66.4582 44.1294L62.9128 47.6733L60.3291 47.6401L63.8035 44.1657C64.6768 44.1547 65.5659 44.1404 66.4582 44.1294Z" fill="white"/>
<path d="M84.6629 44.0678L80.8237 47.9086L79.5303 47.8912L83.3647 44.0583L84.6629 44.0678Z" fill="white"/>
<path d="M39.4117 45.5776L37.6477 47.3417L36.3574 47.3227L37.7946 45.884C38.3173 45.7829 38.859 45.6787 39.4117 45.5776Z" fill="white"/>
<path d="M59.5068 44.2478L56.1714 47.5832H55.7529L59.0694 44.2668L59.5068 44.2478Z" fill="white"/>
<path d="M82.1062 44.052L78.2828 47.8738H77.8643L81.6845 44.0552L82.1062 44.052Z" fill="white"/>
</g>
<path d="M60.6126 18.8202C60.5186 18.7721 60.4215 18.7305 60.322 18.6954C60.2203 18.6573 60.1141 18.6324 60.0061 18.6212C59.9726 18.6191 59.9389 18.6228 59.9066 18.6322L59.8766 18.6464L59.8577 18.6607L59.8229 18.6891C59.7825 18.726 59.7441 18.765 59.7077 18.8059C59.6366 18.8865 59.5734 18.9639 59.5087 19.0555L59.5876 19.0286C59.4814 18.9984 59.3732 18.9752 59.2639 18.9591C59.2078 18.9522 59.1514 18.9485 59.0949 18.9481C59.0649 18.9458 59.0348 18.9458 59.0049 18.9481C58.9891 18.9481 58.9717 18.9481 58.9559 18.9591L58.907 18.9828C58.8581 19.0168 58.8149 19.0584 58.7791 19.106C58.7452 19.1491 58.7135 19.1939 58.6843 19.2402C58.6245 19.333 58.5717 19.4302 58.5264 19.5308C58.5959 19.4471 58.6638 19.3634 58.7348 19.2845C58.7691 19.2447 58.8055 19.2067 58.8438 19.1708C58.8773 19.136 58.9156 19.1062 58.9575 19.0823C58.9985 19.0677 59.0424 19.0634 59.0854 19.0697C59.1385 19.0723 59.1913 19.0792 59.2434 19.0902C59.3467 19.1083 59.449 19.132 59.5497 19.1613L59.6003 19.1739L59.6287 19.1329C59.6871 19.0492 59.7503 18.967 59.8135 18.8881C59.8436 18.8481 59.8763 18.8101 59.9114 18.7744L59.9351 18.7507L59.9477 18.7412C59.9653 18.7342 59.984 18.7305 60.003 18.7301C60.1037 18.7304 60.2042 18.7405 60.303 18.7601C60.4057 18.7791 60.5083 18.8012 60.6126 18.8202Z" fill="#263238"/>
<path d="M59.4671 21.9124C59.343 21.8138 59.2121 21.7241 59.0754 21.6439C58.9367 21.5588 58.7875 21.4919 58.6317 21.4449C58.5836 21.4306 58.533 21.4263 58.4832 21.4323C58.4665 21.434 58.4501 21.4377 58.4343 21.4433L58.4011 21.4591L58.3427 21.4891C58.2724 21.532 58.2044 21.5784 58.1389 21.6281C58.011 21.7245 57.8926 21.8287 57.7741 21.944L57.8989 21.9266C57.7512 21.8513 57.5988 21.7859 57.4425 21.7308C57.3624 21.7035 57.2806 21.6813 57.1977 21.6644C57.1534 21.6553 57.1086 21.6495 57.0635 21.6471C57.0382 21.6456 57.0129 21.6456 56.9876 21.6471C56.9613 21.6517 56.9354 21.6586 56.9103 21.6676C56.8284 21.7027 56.7527 21.7507 56.686 21.8097C56.6228 21.8634 56.5628 21.9219 56.506 21.9803C56.3948 22.0997 56.2929 22.2275 56.2012 22.3625C56.3275 22.2598 56.4507 22.1556 56.5786 22.0608C56.6418 22.0135 56.705 21.9661 56.7713 21.925C56.8313 21.8841 56.8967 21.8517 56.9655 21.8287C57.0293 21.8211 57.094 21.8276 57.155 21.8476C57.2285 21.8684 57.3007 21.8931 57.3714 21.9219C57.5151 21.9787 57.6604 22.0466 57.7994 22.1145L57.8689 22.1493L57.9226 22.0972C58.0331 21.9913 58.15 21.8887 58.2669 21.7908C58.3226 21.7417 58.3812 21.6958 58.4421 21.6534C58.4564 21.6436 58.4711 21.6347 58.4864 21.6265L58.5069 21.6155C58.535 21.6099 58.564 21.6099 58.5922 21.6155C58.7402 21.6447 58.8851 21.6881 59.0249 21.745C59.1765 21.7924 59.3218 21.854 59.4671 21.9124Z" fill="#263238"/>
<path d="M27.7939 14.7566C27.7092 14.6933 27.62 14.6363 27.527 14.586C27.4328 14.5305 27.3313 14.4885 27.2254 14.4612C27.1931 14.4547 27.1598 14.4547 27.1275 14.4612C27.1162 14.4626 27.105 14.4652 27.0943 14.4691L27.0738 14.4802L27.0343 14.5023C26.9869 14.5323 26.9443 14.5655 26.9017 14.5986C26.8179 14.6665 26.7437 14.7392 26.6648 14.8134L26.7469 14.7992C26.6471 14.7518 26.5442 14.7111 26.4389 14.6776C26.3845 14.6615 26.3291 14.6488 26.2731 14.6397C26.2434 14.634 26.2133 14.6309 26.1831 14.6302C26.1668 14.6287 26.1504 14.6287 26.1341 14.6302C26.1164 14.6335 26.0989 14.6382 26.082 14.6444C26.0289 14.6701 25.9799 14.7037 25.9367 14.7439C25.8954 14.781 25.8564 14.8206 25.8199 14.8624C25.7474 14.9436 25.6819 15.0307 25.624 15.123C25.7061 15.0519 25.782 14.9808 25.8688 14.9145C25.9099 14.8813 25.9525 14.8482 25.9952 14.8197C26.0338 14.7911 26.0763 14.7682 26.1215 14.7518C26.1642 14.7446 26.2079 14.7473 26.2494 14.7597C26.2987 14.7713 26.3473 14.7861 26.3947 14.8039C26.4926 14.8387 26.5905 14.8813 26.6853 14.924L26.7327 14.9461L26.7674 14.9098C26.8385 14.8371 26.9143 14.766 26.9901 14.6981C27.028 14.6634 27.0659 14.6302 27.1038 14.6018L27.1322 14.5828L27.1464 14.5749C27.1652 14.5715 27.1845 14.5715 27.2033 14.5749C27.3025 14.5909 27.3999 14.6169 27.4939 14.6523C27.5965 14.6823 27.6944 14.7202 27.7939 14.7566Z" fill="#263238"/>
<path d="M30.3865 14.3366C30.2975 14.2056 30.1993 14.0811 30.0927 13.9639C29.9852 13.8428 29.862 13.7366 29.7263 13.6481C29.6844 13.6212 29.6378 13.6024 29.5889 13.5928C29.5727 13.5911 29.5563 13.5911 29.54 13.5928H29.5037L29.4389 13.6054C29.3591 13.6244 29.2805 13.6481 29.2036 13.6765C29.0457 13.7302 28.9083 13.7949 28.763 13.8629L28.8862 13.8834C28.7676 13.7698 28.6415 13.6642 28.5087 13.5675C28.44 13.5179 28.3683 13.4726 28.2939 13.4317C28.2546 13.4093 28.2133 13.3903 28.1708 13.3749C28.1502 13.367 28.1234 13.3622 28.0997 13.3559C28.0729 13.3543 28.046 13.3543 28.0192 13.3559C27.9307 13.3663 27.8444 13.3903 27.7633 13.427C27.6868 13.4585 27.6125 13.4949 27.5406 13.536C27.3983 13.6162 27.2626 13.7075 27.1348 13.8092C27.2927 13.7492 27.4348 13.6876 27.5849 13.6339C27.6591 13.607 27.7428 13.5817 27.8091 13.5628C27.8783 13.5415 27.95 13.5298 28.0223 13.5281C28.0863 13.5384 28.1469 13.5639 28.1992 13.6023C28.2639 13.6426 28.3256 13.6875 28.384 13.7365C28.504 13.8344 28.6224 13.9418 28.7346 14.0524L28.7914 14.1061L28.8577 14.0729C28.9951 14.005 29.1373 13.9418 29.2762 13.8818C29.3448 13.8519 29.415 13.8255 29.4863 13.8028L29.5352 13.7902H29.5574C29.5574 13.7902 29.5574 13.7902 29.5668 13.7902C29.5949 13.7931 29.6222 13.8011 29.6474 13.8139C29.7799 13.886 29.9052 13.9706 30.0217 14.0666C30.1448 14.1345 30.2633 14.2371 30.3865 14.3366Z" fill="#263238"/>
<path d="M63.1667 21.1528C63.0774 21.0226 62.9792 20.8986 62.873 20.7817C62.7666 20.6578 62.6439 20.5489 62.5082 20.4579C62.466 20.4316 62.4195 20.4129 62.3708 20.4027C62.3541 20.3994 62.3369 20.3994 62.3203 20.4027C62.3082 20.4018 62.296 20.4018 62.2839 20.4027C62.2602 20.4027 62.2413 20.4105 62.2192 20.4137C62.1371 20.4342 62.0613 20.4595 61.9839 20.4864C61.8259 20.54 61.6886 20.6048 61.5433 20.6727L61.6664 20.6932C61.5482 20.5792 61.4221 20.4737 61.289 20.3774C61.2209 20.3276 61.1497 20.2822 61.0758 20.2416C61.0361 20.2198 60.9949 20.2008 60.9526 20.1847C60.9289 20.1765 60.9046 20.1702 60.88 20.1658C60.8531 20.1641 60.8262 20.1641 60.7994 20.1658C60.711 20.1764 60.6248 20.2004 60.5436 20.2368C60.4673 20.2687 60.3929 20.3051 60.3209 20.3458C60.1786 20.426 60.0429 20.5174 59.915 20.619C60.073 20.559 60.2151 20.4958 60.3651 20.4437C60.4394 20.4169 60.5152 20.3916 60.5894 20.3726C60.659 20.3507 60.7312 20.3385 60.8042 20.3363C60.8672 20.3485 60.9269 20.3738 60.9795 20.4105C61.0438 20.4519 61.1055 20.4973 61.1642 20.5464C61.2843 20.6427 61.4027 20.7501 61.5148 20.8622L61.5717 20.9159L61.6396 20.8827C61.7754 20.8148 61.9175 20.7501 62.0581 20.6917C62.1261 20.6615 62.1957 20.6351 62.2666 20.6127C62.2831 20.6072 62.3 20.603 62.3171 20.6001H62.3392H62.3471C62.3757 20.6036 62.4035 20.6122 62.4292 20.6253C62.561 20.6978 62.6858 20.7824 62.8019 20.878C62.9251 20.9522 63.0451 21.0533 63.1667 21.1528Z" fill="#263238"/>
<path d="M25.042 54.8638C25.6187 54.8405 26.1912 54.7542 26.7492 54.6063C27.3082 54.4721 27.8547 54.3047 28.4058 54.1184C28.957 53.932 29.4924 53.7346 30.0277 53.5214C30.5631 53.3082 31.0953 53.0855 31.618 52.8486C31.6262 52.8456 31.6352 52.8456 31.6433 52.8486L33.3268 53.335C33.6079 53.4172 33.889 53.493 34.1717 53.564C34.4544 53.6351 34.7371 53.7014 35.0245 53.7535C36.1684 53.9824 37.3323 54.0967 38.4989 54.0947C39.0811 54.0947 39.6602 54.0636 40.2361 54.0015C40.8141 53.9367 41.3921 53.8578 41.9607 53.7362C42.2465 53.6809 42.5292 53.6098 42.8119 53.5419C43.0946 53.474 43.3741 53.3919 43.6552 53.3082L45.3419 52.8265C45.3542 52.8225 45.3674 52.8225 45.3798 52.8265C45.9199 53.0034 46.4616 53.1834 47.0048 53.3429C47.5481 53.5024 48.1024 53.6319 48.6615 53.7314C49.7775 53.9389 50.9108 54.0388 52.0458 54.0299C53.1806 54.0145 54.3115 53.8935 55.4239 53.6683L55.8392 53.5814L56.253 53.4788C56.5278 53.414 56.8026 53.335 57.0774 53.2624L58.7277 52.8218C58.7406 52.8179 58.7543 52.8179 58.7672 52.8218C60.0148 53.1976 61.245 53.6351 62.5195 53.8815C63.7946 54.1351 65.0938 54.2468 66.3934 54.2147C67.6941 54.1742 68.987 53.999 70.2516 53.692L74.0687 52.8486C74.0768 52.8456 74.0858 52.8456 74.0939 52.8486C75.2825 53.3826 76.5054 53.8364 77.7547 54.2068C78.3864 54.3853 79.0181 54.5448 79.6498 54.6648C80.2916 54.7826 80.9416 54.8502 81.5939 54.8669C80.9411 54.857 80.29 54.7963 79.6466 54.6853C79.0039 54.5716 78.369 54.42 77.7389 54.2463C77.1088 54.0726 76.4897 53.8673 75.8754 53.6477C75.261 53.4282 74.6514 53.1897 74.056 52.9213H74.0813L70.2721 53.7741C69.0025 54.088 67.7037 54.269 66.3966 54.3142C65.0886 54.3544 63.7803 54.2485 62.4958 53.9983C61.2087 53.7551 59.969 53.3208 58.7261 52.9497H58.764L57.1105 53.3966C56.8357 53.4693 56.5625 53.5546 56.2846 53.6162L55.8677 53.7204L55.4491 53.8104C54.3286 54.0446 53.1874 54.1668 52.0427 54.1752C50.8981 54.18 49.7557 54.0743 48.6315 53.8594C48.0677 53.7583 47.5133 53.6146 46.9638 53.463C46.4142 53.3114 45.8756 53.1171 45.334 52.9386H45.3719L43.6868 53.4124C43.4073 53.4945 43.123 53.5704 42.8403 53.643C42.5576 53.7156 42.2702 53.782 41.9828 53.8357C41.4095 53.9573 40.8267 54.0331 40.2456 54.0978C39.6644 54.1626 39.0769 54.1831 38.491 54.1847C37.3187 54.1818 36.1496 54.0628 35.0008 53.8294C34.7134 53.7757 34.4307 53.703 34.1449 53.6351C33.859 53.5672 33.5795 53.4851 33.3 53.4014L31.618 52.9071H31.6433C31.1158 53.1392 30.5805 53.3556 30.0419 53.564C29.5034 53.7725 28.9617 53.9667 28.4121 54.1452C27.8626 54.3237 27.3067 54.4879 26.7476 54.619C26.1897 54.7624 25.6177 54.8445 25.042 54.8638Z" fill="#DBDBDB"/>
<path d="M105.174 61.9246C104.275 62.0038 103.372 62.0207 102.472 61.9751C100.666 61.8778 98.8813 61.5482 97.1605 60.9944C96.2968 60.7253 95.4552 60.39 94.6431 59.9915H94.6842L93.0054 60.4906C92.7259 60.5759 92.4416 60.6485 92.159 60.7259C91.8763 60.8033 91.5904 60.8665 91.3014 60.9201C90.151 61.1537 88.9804 61.2727 87.8065 61.2755C87.2206 61.2755 86.6347 61.2439 86.0504 61.1886C85.466 61.1333 84.8849 61.0433 84.3132 60.9201C84.0257 60.8649 83.7415 60.7922 83.4556 60.7243C83.1698 60.6564 82.8887 60.5664 82.6092 60.4906L80.9257 60.0042H80.9667C80.1423 60.2584 79.3116 60.478 78.4731 60.6738C77.6345 60.8696 76.7911 61.0386 75.9462 61.1744C75.5214 61.2392 75.095 61.2976 74.667 61.3434C74.239 61.3892 73.8095 61.4145 73.3784 61.4287C72.5181 61.4734 71.6558 61.3936 70.8184 61.1918C71.6578 61.376 72.5194 61.4388 73.3768 61.3781C74.2334 61.3279 75.0865 61.2293 75.932 61.0828C76.7743 60.9386 77.6134 60.7633 78.4494 60.5569C79.2816 60.3516 80.1123 60.1274 80.9288 59.8715C80.9423 59.8683 80.9564 59.8683 80.9699 59.8715L82.6549 60.3453C82.9345 60.4258 83.2156 60.5032 83.4967 60.5743C83.7778 60.6454 84.0621 60.7117 84.3479 60.7654C85.489 60.993 86.6493 61.111 87.8128 61.1176C88.9794 61.1199 90.1433 61.0056 91.2872 60.7764C91.573 60.7259 91.8557 60.6533 92.1384 60.5885C92.4211 60.5238 92.7006 60.4401 92.9818 60.3595L94.6668 59.8857C94.6801 59.881 94.6946 59.881 94.7079 59.8857C95.5119 60.287 96.3456 60.626 97.2015 60.8996C98.0567 61.1791 98.928 61.4069 99.8105 61.5819C100.694 61.7563 101.587 61.8734 102.486 61.9325C103.381 61.9924 104.279 61.9898 105.174 61.9246Z" fill="#DBDBDB"/>
<path d="M103.828 32.6734C103.476 32.7087 103.121 32.7187 102.767 32.7034C102.413 32.6889 102.06 32.6499 101.711 32.5865C101.36 32.527 101.015 32.4425 100.676 32.3339C100.334 32.2302 100.001 32.0998 99.6798 31.9438H99.7224C99.2834 32.0733 98.8491 32.228 98.3927 32.3165C97.9391 32.4106 97.4772 32.4593 97.014 32.4618C96.7818 32.4618 96.5497 32.4507 96.3191 32.4286C96.0885 32.4065 95.8595 32.3702 95.6337 32.3212C95.1773 32.228 94.7414 32.0796 94.3008 31.958H94.3418C93.6934 32.1548 93.0315 32.3042 92.3615 32.4049C92.0269 32.4572 91.6892 32.4868 91.3507 32.4934C91.0118 32.5079 90.6726 32.4712 90.3447 32.3844C90.6747 32.4498 91.0123 32.4689 91.3476 32.4412C91.6828 32.4167 92.0166 32.374 92.3472 32.3133C92.6773 32.2549 93.0058 32.1822 93.3311 32.1001C93.6564 32.018 93.9802 31.9264 94.2992 31.8269C94.3121 31.823 94.3258 31.823 94.3387 31.8269C94.7825 31.9469 95.2199 32.0891 95.6637 32.1759C96.1087 32.2627 96.5606 32.3087 97.014 32.3133C97.4678 32.3152 97.9206 32.2719 98.3658 32.1838C98.5901 32.1428 98.808 32.0843 99.0275 32.0259L99.6908 31.8443C99.6973 31.8415 99.7043 31.8401 99.7113 31.8401C99.7184 31.8401 99.7254 31.8415 99.7319 31.8443C100.045 32.0026 100.37 32.1367 100.703 32.2454C101.037 32.3572 101.378 32.4479 101.723 32.517C102.068 32.5905 102.418 32.6396 102.77 32.6639C103.123 32.69 103.476 32.6931 103.828 32.6734Z" fill="#DBDBDB"/>
<path d="M22.4965 37.0748C21.4214 37.1745 20.3378 37.125 19.2763 36.928C18.7452 36.8314 18.2208 36.7005 17.7066 36.5363C17.1892 36.3764 16.685 36.1768 16.1984 35.9394H16.2394C15.5714 36.1336 14.9097 36.3658 14.218 36.5C13.53 36.6419 12.8295 36.715 12.127 36.7179C11.7754 36.7179 11.4242 36.7011 11.0736 36.6674C10.7246 36.6279 10.3772 36.579 10.0329 36.5095C9.68863 36.44 9.34751 36.3515 9.01428 36.252L8.00829 35.9599H8.04935C7.06645 36.2596 6.06381 36.4902 5.04875 36.65C4.54075 36.7316 4.02799 36.7801 3.51371 36.7953C2.99862 36.8181 2.48298 36.7649 1.9834 36.6374C2.48581 36.7419 3.00033 36.7759 3.51213 36.7385C4.02033 36.7063 4.52644 36.6467 5.02822 36.56C5.53253 36.4716 6.03316 36.3663 6.5301 36.2441C7.02441 36.1194 7.5203 35.9852 8.00671 35.832C8.02022 35.8288 8.03427 35.8288 8.04777 35.832L9.05376 36.1162C9.38857 36.2141 9.72337 36.2994 10.0629 36.3657C10.7427 36.5012 11.4339 36.5715 12.127 36.5758C12.82 36.5777 13.5115 36.5105 14.1911 36.3752C14.5322 36.3121 14.867 36.2173 15.2018 36.1289L16.2094 35.8446C16.2227 35.8399 16.2372 35.8399 16.2505 35.8446C16.729 36.0851 17.2253 36.2884 17.735 36.4526C18.2449 36.6203 18.7643 36.7574 19.2906 36.8632C20.345 37.0765 21.4232 37.1476 22.4965 37.0748Z" fill="#DBDBDB"/>
<path d="M37.7571 59.3488C36.8586 59.4275 35.9557 59.4439 35.0549 59.3978C34.1541 59.351 33.2573 59.2455 32.3702 59.0819C31.4821 58.9182 30.6054 58.6977 29.7454 58.4218C28.8822 58.1516 28.0407 57.8164 27.2281 57.419H27.2692L25.5904 57.918C25.3109 58.0033 25.0266 58.076 24.7439 58.1533C24.4612 58.2307 24.1738 58.2939 23.8864 58.3476C22.7361 58.5818 21.5653 58.7009 20.3915 58.7029C19.8056 58.7029 19.2181 58.6729 18.6353 58.6161C18.0526 58.5592 17.4698 58.4708 16.8981 58.3476C16.6107 58.2923 16.3249 58.2213 16.0406 58.1518C15.7563 58.0823 15.4736 57.9938 15.1941 57.918L13.5106 57.4332H13.5517C12.7273 57.689 11.8966 57.907 11.058 58.1044C10.2194 58.3018 9.3761 58.4676 8.53119 58.6034C8.11005 58.6698 7.68365 58.7261 7.25199 58.7724C6.82243 58.8135 6.39287 58.8451 5.96331 58.8593C5.10296 58.9027 4.24084 58.8224 3.40332 58.6208C4.2427 58.8058 5.1044 58.8686 5.96173 58.8072C6.81513 58.7559 7.66503 58.6573 8.5075 58.5118C9.34978 58.3665 10.1921 58.1907 11.0343 57.9844C11.8666 57.7791 12.6973 57.5548 13.5138 57.3005C13.5266 57.2966 13.5404 57.2966 13.5533 57.3005L15.2383 57.7743C15.5194 57.8564 15.8005 57.9322 16.0817 58.0033C16.3628 58.0744 16.647 58.1407 16.9329 58.1944C18.0737 58.4236 19.2341 58.5416 20.3978 58.5466C21.5643 58.5495 22.7282 58.4357 23.8722 58.207C24.1596 58.1549 24.4407 58.0823 24.725 58.0175C25.0092 57.9528 25.2872 57.8691 25.5683 57.7885L27.2518 57.3148C27.2583 57.312 27.2653 57.3105 27.2723 57.3105C27.2794 57.3105 27.2864 57.312 27.2929 57.3148C28.0971 57.7152 28.9307 58.0536 29.7865 58.3271C30.6415 58.6073 31.5128 58.8351 32.3955 59.0093C33.2787 59.1843 34.1723 59.3019 35.0707 59.3615C35.9654 59.419 36.863 59.4148 37.7571 59.3488Z" fill="#DBDBDB"/>
<path d="M3.50557 50.0406L8.03016 50.8303C11.0515 51.3516 14.1453 51.2802 17.1394 50.6202L21.6339 49.6727C21.6438 49.6703 21.6541 49.6703 21.664 49.6727C23.0458 50.0233 24.4119 50.4323 25.8143 50.6581C26.5155 50.7797 27.2214 50.8618 27.9289 50.9155C28.6364 50.9692 29.3502 50.9929 30.0593 50.9787C30.7684 50.9645 31.4807 50.9266 32.1866 50.8508C32.8925 50.775 33.5969 50.6644 34.2949 50.5349L38.4879 49.7058C38.4935 49.7043 38.4995 49.7043 38.5052 49.7058C39.823 50.1327 41.1706 50.4611 42.5371 50.6881C43.905 50.9062 45.2901 50.9976 46.6748 50.9613C48.0584 50.9277 49.4365 50.7739 50.7935 50.5018L54.8743 49.6995C54.8811 49.698 54.8881 49.698 54.8948 49.6995L57.0537 50.2554C57.7738 50.4449 58.4924 50.6202 59.2252 50.7481C60.6844 51.0082 62.165 51.1303 63.6471 51.1129C64.3878 51.1035 65.1285 51.0624 65.866 50.985C66.6035 50.9076 67.3347 50.7829 68.0691 50.6692L72.4752 49.9743H72.502L74.713 50.4102C75.4521 50.5523 76.1896 50.7102 76.924 50.8303C78.4065 51.0685 79.9084 51.1637 81.4091 51.1145C82.1598 51.0893 82.9073 51.0287 83.6516 50.9329C84.3971 50.8382 85.133 50.6976 85.8721 50.5492L90.3035 49.6806C90.3128 49.6782 90.3226 49.6782 90.3319 49.6806C91.5322 49.9822 92.7245 50.3123 93.9453 50.5081C95.1651 50.712 96.3993 50.8176 97.636 50.8239C98.873 50.8312 100.109 50.7409 101.332 50.5539C101.944 50.467 102.549 50.3407 103.154 50.2065C103.759 50.0722 104.353 49.8985 104.95 49.7327H104.959V49.7421C104.364 49.9096 103.767 50.077 103.167 50.2301C102.566 50.3833 101.962 50.5128 101.355 50.6155C100.131 50.8167 98.8924 50.9165 97.6518 50.914C96.4103 50.9141 95.1708 50.8143 93.9453 50.6155C92.7166 50.4275 91.518 50.1006 90.313 49.8053H90.3414L85.9195 50.6992C84.4444 51.0287 82.9418 51.2201 81.4312 51.2709C79.9209 51.3192 78.4095 51.2225 76.9177 50.9819C76.1707 50.8603 75.4347 50.7023 74.6956 50.5602L72.4847 50.1212H72.5099L68.1038 50.8129C67.3694 50.9266 66.6351 51.0529 65.8928 51.1287C65.1506 51.2045 64.4067 51.2472 63.6597 51.2519C62.1683 51.2615 60.6793 51.1303 59.2125 50.8603C58.4782 50.7292 57.7533 50.5444 57.0363 50.3549L54.879 49.7864H54.8996L50.8156 50.576C49.4537 50.846 48.0708 50.9961 46.6827 51.0245C45.9894 51.0371 45.2945 51.0245 44.6028 50.9756C43.911 50.9266 43.2193 50.8587 42.5339 50.7481C41.164 50.5281 39.8126 50.2056 38.491 49.7832H38.5084L34.3186 50.6329C33.6195 50.7739 32.9146 50.885 32.204 50.9661C31.4949 51.0466 30.7826 51.0893 30.0672 51.1051C29.3518 51.1208 28.6459 51.1051 27.9273 51.0498C27.2087 50.9945 26.506 50.9187 25.7985 50.8018C25.091 50.685 24.3945 50.5413 23.7028 50.3612L21.6371 49.8116H21.6671L17.1552 50.7339C15.6543 51.0565 14.1259 51.2342 12.5911 51.2646C11.0562 51.2934 9.52217 51.1712 8.01121 50.8997L3.49609 50.0564V50.0469C3.49609 50.0469 3.50241 50.0406 3.50557 50.0406Z" fill="#DBDBDB"/>
</svg>
